<?xml version="1.0" standalone="no"?>
<!DOCTYPE svg PUBLIC "-//W3C//DTD SVG 20010904//EN"
 "http://www.w3.org/TR/2001/REC-SVG-20010904/DTD/svg10.dtd">
<svg version="1.0" xmlns="http://www.w3.org/2000/svg"
 width="300.000000pt" height="122.000000pt" viewBox="0 0 300.000000 122.000000"
 preserveAspectRatio="xMidYMid meet">
<metadata>
Created by potrace 1.10, written by Peter Selinger 2001-2011
</metadata>
<g transform="translate(0.000000,122.000000) scale(0.100000,-0.100000)"
fill="#000000" stroke="none">
<path d="M495 1161 c-3 -2 -12 -6 -20 -8 -25 -5 -39 -9 -68 -21 -16 -7 -32
-12 -36 -12 -5 0 -14 -7 -21 -15 -7 -8 -16 -12 -21 -9 -5 3 -9 1 -9 -5 0 -5
-8 -12 -19 -16 -29 -9 -141 -124 -141 -145 0 -5 -4 -10 -10 -10 -5 0 -10 -7
-10 -15 0 -8 -5 -15 -11 -15 -5 0 -8 -4 -5 -9 4 -5 1 -11 -4 -13 -6 -2 -13
-16 -16 -32 -3 -16 -8 -34 -12 -40 -3 -6 -8 -22 -10 -35 -2 -14 -6 -32 -10
-40 -5 -9 -7 -54 -5 -101 2 -83 4 -100 16 -130 3 -8 11 -33 18 -55 12 -40 49
-113 72 -142 43 -55 122 -124 131 -116 3 4 6 1 6 -5 0 -7 7 -12 15 -12 8 0 15
-5 15 -11 0 -5 4 -7 10 -4 5 3 10 1 10 -4 0 -6 8 -11 18 -11 10 0 23 -5 29
-11 6 -6 26 -13 44 -16 19 -3 39 -9 44 -13 12 -10 214 -11 230 -2 6 4 16 8 23
9 36 8 70 21 97 36 11 6 33 18 49 26 58 31 166 136 166 161 0 6 4 10 8 10 7 0
42 63 42 75 0 3 -11 5 -25 5 -19 0 -28 -8 -40 -36 -21 -51 -130 -153 -203
-191 -34 -18 -62 -30 -62 -27 0 4 -7 1 -15 -6 -9 -7 -30 -15 -48 -18 -50 -7
-189 -7 -217 1 -14 4 -37 9 -52 13 -16 3 -28 10 -28 15 0 6 -4 8 -9 5 -24 -15
-189 124 -220 186 -8 16 -18 28 -23 28 -4 0 -8 8 -8 18 0 10 -5 23 -11 29 -6
6 -11 17 -13 24 -1 8 -8 31 -15 51 -7 20 -11 43 -9 50 1 7 -3 23 -10 36 -13
23 -7 88 8 97 5 3 6 25 4 50 -4 31 -2 45 7 45 6 0 9 -8 6 -20 -5 -19 0 -20
201 -21 114 -1 212 -2 217 -4 6 -1 15 -3 20 -5 6 -1 15 -3 20 -4 36 -7 135
-92 135 -116 0 -19 2 -25 9 -35 13 -16 13 -115 1 -144 -7 -18 -25 -32 -55 -44
-48 -17 -53 -14 -30 17 19 26 19 77 0 124 -16 38 -70 92 -92 92 -7 0 -13 5
-13 11 0 5 -4 8 -9 4 -5 -3 -12 -1 -15 3 -6 10 -363 16 -389 7 -9 -4 -17 -13
-17 -21 0 -14 9 -17 65 -18 26 -1 30 -5 32 -31 0 -16 2 -32 3 -35 1 -3 3 -13
6 -23 2 -9 6 -25 8 -35 3 -9 5 -18 6 -19 2 -2 3 -8 4 -13 2 -19 109 -145 140
-165 86 -57 127 -70 231 -71 55 -1 105 2 111 7 6 5 19 10 30 12 39 7 106 49
164 105 33 32 60 62 60 66 0 4 -13 6 -28 4 -18 -2 -41 -18 -62 -42 -33 -37
-128 -91 -180 -103 -14 -3 -59 -6 -100 -5 -87 0 -150 23 -218 79 -45 37 -111
127 -117 159 -2 11 -4 21 -6 24 -1 3 -3 10 -4 15 -8 41 -19 65 -31 65 -8 0
-14 7 -14 15 0 19 0 19 39 -1 28 -14 39 -14 76 -4 24 7 48 9 54 5 6 -3 39 -8
72 -11 81 -6 115 -25 151 -84 29 -47 8 -164 -23 -133 -6 6 -18 9 -25 6 -8 -3
-14 0 -14 7 0 6 -4 9 -9 6 -12 -8 -93 54 -106 81 -6 11 -16 27 -22 34 -6 8
-16 31 -22 51 -8 25 -17 35 -26 31 -38 -14 14 -134 83 -193 26 -22 50 -40 54
-40 4 0 19 -5 35 -11 30 -12 132 -19 148 -10 6 3 12 6 15 6 3 1 20 9 38 18 17
10 32 15 32 12 0 -3 9 4 20 15 11 11 24 20 28 20 5 0 17 16 28 35 10 19 22 35
25 35 6 0 18 33 24 65 1 6 3 13 4 18 3 9 3 105 0 112 -1 3 -2 9 -3 14 0 5 -4
13 -8 17 -5 4 -8 14 -8 21 0 29 -84 114 -130 132 -19 8 -40 18 -47 24 -17 12
-490 9 -514 -4 -15 -7 -19 -6 -19 6 0 8 5 15 11 15 7 0 33 19 58 43 l46 43
170 -3 c154 -3 250 -8 250 -13 0 -1 9 -3 20 -5 31 -6 95 -37 95 -47 0 -4 5 -8
11 -8 17 0 89 -80 102 -112 4 -12 17 -18 38 -18 l31 0 -17 26 c-51 79 -117
140 -185 173 -33 16 -60 28 -60 26 0 -2 -15 1 -32 7 -36 11 -255 12 -357 2
-52 -5 -63 -4 -59 7 3 8 13 16 24 18 10 1 44 14 73 28 30 13 64 25 75 26 12 0
24 5 27 10 11 15 218 14 272 -2 26 -7 47 -18 47 -23 0 -5 5 -6 10 -3 6 3 10 1
10 -6 0 -7 3 -10 6 -6 8 7 79 -37 111 -69 13 -13 29 -24 35 -24 6 0 8 -3 5 -6
-3 -4 4 -15 17 -25 13 -10 40 -50 60 -89 31 -58 41 -70 62 -70 28 0 27 4 -45
130 -28 49 -87 110 -146 150 -27 18 -53 38 -57 44 -4 6 -8 7 -8 2 0 -4 -11 -1
-25 8 -14 9 -25 14 -25 12 0 -3 -19 2 -42 11 -42 16 -260 27 -273 14z m35
-303 c137 -3 159 -5 184 -23 16 -11 40 -27 54 -35 13 -8 38 -40 54 -70 23 -43
28 -65 27 -110 -3 -75 -42 -173 -62 -154 -3 3 -3 -3 0 -14 3 -14 -2 -24 -15
-31 -19 -10 -19 -9 -9 27 20 68 13 153 -16 199 -31 48 -104 113 -128 113 -10
0 -20 4 -24 10 -3 5 -98 9 -232 9 -124 0 -228 2 -231 5 -7 8 19 65 34 74 7 4
57 6 111 5 54 -2 168 -4 253 -5z"/>
<path d="M994 717 c-2 -7 -3 -65 -2 -128 3 -106 4 -114 23 -114 19 0 20 6 18
83 -1 45 2 82 5 82 4 0 20 -23 35 -50 16 -28 34 -50 42 -50 7 0 28 24 46 52
l34 53 3 -88 c3 -79 5 -87 22 -87 19 0 20 8 20 130 0 120 -1 130 -19 130 -11
0 -31 -21 -55 -60 -20 -32 -41 -62 -45 -65 -5 -3 -28 24 -50 60 -40 62 -66 80
-77 52z"/>
<path d="M1322 609 c-29 -67 -49 -125 -46 -130 11 -18 32 -8 44 21 12 28 16
30 66 30 49 0 55 -2 69 -30 16 -31 45 -41 45 -15 0 8 -21 67 -47 130 -33 78
-53 115 -64 115 -11 0 -32 -38 -67 -121z m86 2 c7 -21 12 -40 12 -42 0 -2 -16
-4 -35 -4 -19 0 -35 3 -35 7 0 13 34 78 40 78 4 0 12 -17 18 -39z"/>
<path d="M1536 721 c-3 -5 -4 -60 -1 -123 2 -62 5 -116 5 -120 0 -5 9 -8 20
-8 17 0 20 7 20 50 l0 50 39 0 c44 0 71 -20 71 -54 0 -27 18 -46 42 -46 19 0
24 19 10 35 -4 6 -14 27 -21 47 -10 32 -10 41 3 60 22 31 20 60 -5 92 -19 24
-26 26 -99 26 -43 0 -81 -4 -84 -9z m152 -66 c5 -37 -19 -55 -70 -55 l-38 0 0
46 0 45 53 -3 c49 -3 52 -4 55 -33z"/>
<path d="M1875 720 c-7 -12 -4 -18 47 -87 33 -46 38 -59 38 -108 0 -48 2 -55
20 -55 18 0 20 7 20 57 0 50 5 64 40 114 43 62 50 89 22 89 -11 0 -29 -20 -47
-50 -17 -27 -32 -50 -35 -50 -3 0 -20 23 -38 50 -31 48 -54 61 -67 40z"/>
<path d="M2235 705 c-28 -27 -30 -42 -13 -80 9 -20 25 -30 69 -42 62 -17 81
-39 53 -60 -24 -18 -65 -16 -93 3 -26 18 -48 6 -38 -20 17 -42 136 -46 169 -6
23 28 23 72 0 93 -9 9 -37 20 -61 26 -57 12 -80 34 -61 56 10 12 24 15 49 11
74 -11 84 -11 88 1 6 18 -50 43 -97 43 -30 0 -47 -6 -65 -25z"/>
<path d="M2474 697 c-87 -80 -34 -227 82 -227 36 0 51 6 81 33 32 30 37 41 41
90 4 55 3 58 -36 97 -35 35 -45 40 -86 40 -38 0 -52 -6 -82 -33z m135 -33 c30
-38 28 -98 -4 -129 -51 -52 -125 -13 -125 65 0 80 84 121 129 64z"/>
<path d="M2724 717 c-2 -7 -3 -65 -2 -128 l3 -114 83 -3 c76 -3 83 -1 80 15
-3 14 -15 19 -61 21 l-57 3 0 109 c0 104 -1 110 -20 110 -11 0 -23 -6 -26 -13z"/>
</g>
</svg>
