<?xml version="1.0" encoding="UTF-8"?>
<svg version="1.1" xmlns="http://www.w3.org/2000/svg" width="48" height="48">
<path d="M0 0 C6.19455119 5.61831387 9.62681135 10.37246077 10.3125 18.875 C10.08871387 26.20399573 7.16397272 31.83602728 2 37 C-4.07947337 41.27612396 -9.59967624 42.74003238 -17 42 C-23.52051035 40.44924192 -28.74392558 37.39899338 -32.48046875 31.76953125 C-36.03778893 25.34244017 -37.26448447 20.00374571 -35.453125 12.8359375 C-33.12568716 5.93120524 -29.36892543 1.62154583 -23 -2 C-15.30713177 -5.10673525 -7.00254624 -4.55979755 0 0 Z M-22 1 C-22 1.33 -22 1.66 -22 2 C-21.13117187 2.03738281 -20.26234375 2.07476562 -19.3671875 2.11328125 C-8.23052209 2.74859438 -8.23052209 2.74859438 -3 6 C-2.34 6 -1.68 6 -1 6 C-0.33333333 7.33333333 0.33333333 8.66666667 1 10 C1.34546875 10.59554688 1.6909375 11.19109375 2.046875 11.8046875 C3.87378225 16.01256404 3.52101855 20.51272775 3 25 C0.69143024 29.88351295 -2.22318815 32.51973231 -7 35 C-13.03464377 36.45999446 -17.5825992 36.20171867 -23 33 C-26.8318503 29.70169848 -28.72690563 25.86090578 -30 21 C-30.99 21 -31.98 21 -33 21 C-30.52552095 29.94632492 -30.52552095 29.94632492 -23.98828125 36.1875 C-17.81399938 39.2065037 -12.67457077 39.96009468 -6 38 C-0.08847658 35.57328513 3.60981094 30.66452904 6.5 25.125 C7.44222507 19.2360933 7.03321797 14.0281686 4.3125 8.6875 C-0.23847093 3.39853379 -4.08457549 0.40869758 -11 -1 C-15.08378077 -1 -18.12315913 -0.19287411 -22 1 Z M-28 5 C-28 5.66 -28 6.32 -28 7 C-26.77023438 7.02578125 -25.54046875 7.0515625 -24.2734375 7.078125 C-22.64059068 7.13443006 -21.00777955 7.19177685 -19.375 7.25 C-18.56675781 7.26417969 -17.75851563 7.27835938 -16.92578125 7.29296875 C-11.52201665 7.51263398 -8.27354029 8.3970768 -4 12 C-1.51749715 15.72375427 -1.59007699 18.69144756 -2 23 C-2.86672034 25.91533206 -3.77099711 26.81140938 -6.125 28.75 C-9.82345193 30.35802258 -13.0726367 30.83004939 -17 30 C-20.75094223 27.92255507 -23.49661164 25.05914857 -25 21 C-25.66 21 -26.32 21 -27 21 C-26.49216139 25.44358783 -25.25203984 27.91056215 -22 31 C-18.26637458 33.08005585 -14.84472903 34.23574812 -10.5546875 33.6875 C-5.63206459 32.25782734 -2.75511808 30.47706688 0 26 C1.7381808 22.52363841 1.45508953 18.800959 1 15 C-1.39845165 10.11084857 -4.22310863 7.54444777 -9 5 C-12.31132351 4.53321963 -15.53959535 4.61939681 -18.875 4.75 C-19.75414062 4.76804687 -20.63328125 4.78609375 -21.5390625 4.8046875 C-23.6931832 4.85151621 -25.84673774 4.92325006 -28 5 Z M-31 10 C-31 10.66 -31 11.32 -31 12 C-29.83082031 12.03738281 -28.66164063 12.07476563 -27.45703125 12.11328125 C-25.90882325 12.1789628 -24.36064758 12.24540939 -22.8125 12.3125 C-21.65911133 12.34633789 -21.65911133 12.34633789 -20.48242188 12.38085938 C-15.89917561 12.59723581 -12.70479029 13.02494113 -9 16 C-7.1875 19.1875 -7.1875 19.1875 -6 22 C-5.34 22 -4.68 22 -4 22 C-3.64711565 18.2064932 -3.71606585 16.44058747 -5.8125 13.1875 C-8.23674564 10.76325436 -9.76208591 10.06456871 -13.17651367 9.88647461 C-14.40978394 9.89432983 -14.40978394 9.89432983 -15.66796875 9.90234375 C-16.56064453 9.90556641 -17.45332031 9.90878906 -18.37304688 9.91210938 C-19.30181641 9.92048828 -20.23058594 9.92886719 -21.1875 9.9375 C-22.59805664 9.94426758 -22.59805664 9.94426758 -24.03710938 9.95117188 C-26.35813712 9.96295374 -28.67903644 9.97940442 -31 10 Z M-33 15 C-32.67 15.99 -32.34 16.98 -32 18 C-31.11957031 17.97679687 -30.23914063 17.95359375 -29.33203125 17.9296875 C-27.58986328 17.90261719 -27.58986328 17.90261719 -25.8125 17.875 C-24.66394531 17.85179687 -23.51539063 17.82859375 -22.33203125 17.8046875 C-18.07139097 18.05443195 -15.18186909 18.7773768 -12.1875 21.875 C-11 24 -11 24 -11 28 C-10.34 28 -9.68 28 -9 28 C-8.59295835 22.55374374 -8.59295835 22.55374374 -10.3125 17.5625 C-13.06318984 15.01556496 -15.65203583 14.87696479 -19.23046875 14.90234375 C-20.43413086 14.90717773 -20.43413086 14.90717773 -21.66210938 14.91210938 C-22.91217773 14.92467773 -22.91217773 14.92467773 -24.1875 14.9375 C-25.4549707 14.94426758 -25.4549707 14.94426758 -26.74804688 14.95117188 C-28.83206155 14.96294597 -30.91603977 14.9808811 -33 15 Z M-21 21 C-20.6189482 23.76262553 -20.16402868 24.84143894 -18.125 26.8125 C-17.42375 27.204375 -16.7225 27.59625 -16 28 C-15.01 27.67 -14.02 27.34 -13 27 C-14.08784968 23.75016865 -14.08784968 23.75016865 -16 21 C-17.66617115 20.95936168 -19.33388095 20.957279 -21 21 Z " fill="#000000" transform="translate(37,5)"/>
</svg>
