<?xml version="1.0" encoding="UTF-8"?>
<svg version="1.1" xmlns="http://www.w3.org/2000/svg" width="615" height="406">
<path d="M0 0 C1.23298828 -0.00773437 2.46597656 -0.01546875 3.73632812 -0.0234375 C25.8065522 0.02319794 46.7264814 6.948683 65.4375 18.5 C66.14648438 18.93658936 66.85546875 19.37317871 67.5859375 19.82299805 C69.28428853 20.90573895 70.92957392 22.07090013 72.5625 23.25 C72.5625 23.91 72.5625 24.57 72.5625 25.25 C73.15579102 25.36029541 73.74908203 25.47059082 74.36035156 25.58422852 C76.79758949 26.32107417 77.94153133 27.18486639 79.796875 28.90234375 C80.65732422 29.69608398 80.65732422 29.69608398 81.53515625 30.50585938 C82.12167969 31.06080078 82.70820313 31.61574219 83.3125 32.1875 C83.91449219 32.73857422 84.51648438 33.28964844 85.13671875 33.85742188 C86.65640507 35.27545117 88.11489231 36.75846202 89.5625 38.25 C89.5625 38.91 89.5625 39.57 89.5625 40.25 C90.5525 40.58 91.5425 40.91 92.5625 41.25 C94.21688594 43.06863003 95.70776318 44.85925884 97.1875 46.8125 C97.84347168 47.67717896 97.84347168 47.67717896 98.51269531 48.55932617 C114.42180099 70.06873528 122.43200534 94.83305984 122.125 121.5 C122.12040771 122.30571442 122.11581543 123.11142883 122.11108398 123.94155884 C121.87812974 153.74901253 111.9390259 179.46534998 92.5625 202.25 C91.97210938 202.98605469 91.38171875 203.72210938 90.7734375 204.48046875 C81.73939954 215.34053566 69.74378393 223.31652768 57.5625 230.25 C56.78132812 230.70890625 56.00015625 231.1678125 55.1953125 231.640625 C28.69654995 246.12783774 -5.50057671 247.65842832 -34.25 240.06640625 C-53.71628848 234.3140419 -71.27892091 223.75152045 -85.4375 209.25 C-86.18 208.528125 -86.9225 207.80625 -87.6875 207.0625 C-110.20954135 184.02859408 -121.99316488 155.05155592 -122.8125 122.8125 C-121.90438195 88.2283376 -109.11908698 56.83159438 -84.27807617 32.50512695 C-67.767562 16.99070337 -47.49214072 7.06849887 -25.4375 2.25 C-24.62273193 2.06453613 -23.80796387 1.87907227 -22.96850586 1.68798828 C-15.29704778 0.09807067 -7.81514991 -0.04887014 0 0 Z M-59.4375 29.25 C-59.4375 29.58 -59.4375 29.91 -59.4375 30.25 C-58.21079338 30.25213753 -58.21079338 30.25213753 -56.95930481 30.25431824 C-49.15126371 30.27234567 -41.34386402 30.31452975 -33.53610706 30.38209057 C-29.52456898 30.41599779 -25.51339698 30.44141276 -21.50170898 30.44555664 C5.07246232 30.48258861 31.43464288 31.54366867 53.5625 48.25 C54.40683594 48.86875 55.25117188 49.4875 56.12109375 50.125 C61.07270928 53.89205372 64.96587453 57.58068243 68.40625 62.78125 C68.7878125 63.2659375 69.169375 63.750625 69.5625 64.25 C70.2225 64.25 70.8825 64.25 71.5625 64.25 C71.830625 65.013125 72.09875 65.77625 72.375 66.5625 C73.34302456 69.20506883 73.34302456 69.20506883 74.95703125 70.609375 C81.20071387 76.98978059 84.35352324 87.08481001 87.5625 95.25 C88.02849609 96.40048828 88.02849609 96.40048828 88.50390625 97.57421875 C95.26527779 114.72262484 93.81019967 140.4184132 86.5625 157.25 C86.05460938 158.46042969 85.54671875 159.67085937 85.0234375 160.91796875 C74.5131811 183.75660646 55.60374633 200.3992928 32.3515625 209.5078125 C10.65303678 217.03814919 -15.06302163 217.36516883 -36.171875 207.60546875 C-39.36163162 205.94694506 -42.39614213 204.16523347 -45.4375 202.25 C-46.89929688 201.37988281 -46.89929688 201.37988281 -48.390625 200.4921875 C-70.07971012 187.27725312 -83.43639968 166.68968419 -89.4375 142.25 C-90.35320297 137.60949578 -90.89889343 132.95056645 -91.4375 128.25 C-97.3775 128.25 -103.3175 128.25 -109.4375 128.25 C-108.77831917 147.1465171 -102.86556746 165.44612689 -92.4375 181.25 C-91.61185547 182.52423828 -91.61185547 182.52423828 -90.76953125 183.82421875 C-83.32146892 194.70251874 -73.4659639 204.95020723 -62.4375 212.25 C-61.53 212.91 -60.6225 213.57 -59.6875 214.25 C-44.71812013 223.46192608 -27.16147908 230.72399804 -9.4375 231.25 C-8.13941406 231.28996094 -6.84132813 231.32992187 -5.50390625 231.37109375 C25.62970836 232.00333902 53.29556173 221.41507725 75.875 199.84375 C76.761875 198.9878125 77.64875 198.131875 78.5625 197.25 C79.243125 196.6209375 79.92375 195.991875 80.625 195.34375 C85.3830069 190.84063632 88.99467454 185.72562102 92.5625 180.25 C93.078125 179.46753906 93.59375 178.68507812 94.125 177.87890625 C100.67225326 167.49537179 105.18416769 156.28341647 107.5625 144.25 C107.86994141 142.71085937 107.86994141 142.71085937 108.18359375 141.140625 C113.3835713 111.7338554 105.52145984 82.65418938 88.8515625 58.29296875 C75.54758386 40.60730431 58.20847594 27.23970987 37.5625 19.25 C36.60234985 18.86678589 36.60234985 18.86678589 35.62280273 18.47583008 C5.10585482 6.55047309 -31.87368665 12.7896309 -59.4375 29.25 Z M-80.8125 48.25 C-81.50085938 48.95125 -82.18921875 49.6525 -82.8984375 50.375 C-84.64898822 52.10335637 -84.64898822 52.10335637 -84.4375 54.25 C-85.4275 54.58 -86.4175 54.91 -87.4375 55.25 C-87.4375 55.91 -87.4375 56.57 -87.4375 57.25 C-88.0975 57.25 -88.7575 57.25 -89.4375 57.25 C-89.4375 57.91 -89.4375 58.57 -89.4375 59.25 C-88.23639587 59.25586624 -87.03529175 59.26173248 -85.79779053 59.26777649 C-74.44053532 59.32515998 -63.08346872 59.39800265 -51.7264061 59.48571491 C-45.88858184 59.53031164 -40.05082565 59.56959117 -34.21289062 59.59643555 C-28.57173912 59.62257542 -22.93085107 59.66305281 -17.28986359 59.71318626 C-15.14509628 59.72978296 -13.00028347 59.7413418 -10.85546112 59.74761391 C10.72289235 59.81706022 10.72289235 59.81706022 20.5625 63.25 C21.46921448 63.56024612 22.37592896 63.87049225 23.31011963 64.19013977 C36.13940449 68.77715068 48.23306517 78.0982966 54.5625 90.25 C55.1503125 91.27996094 55.738125 92.30992188 56.34375 93.37109375 C64.37938618 108.14151517 65.2100907 123.83227231 61.20947266 140.0859375 C59.27745481 146.54835494 55.95842962 152.45654064 52.5625 158.25 C51.85287109 159.47009766 51.85287109 159.47009766 51.12890625 160.71484375 C42.62138689 173.46350036 26.16850487 181.24782242 11.5625 184.25 C7.75851371 184.65542615 4.01081827 184.72820109 0.1875 184.6875 C-0.81764648 184.67992676 -1.82279297 184.67235352 -2.85839844 184.66455078 C-10.69561795 184.49120576 -17.2278804 183.49940602 -24.4375 180.25 C-25.37335938 179.8375 -26.30921875 179.425 -27.2734375 179 C-34.28464249 175.54349558 -43.83619512 169.45260975 -47.4375 162.25 C-48.0975 162.25 -48.7575 162.25 -49.4375 162.25 C-49.8396875 161.19619141 -49.8396875 161.19619141 -50.25 160.12109375 C-51.93237935 156.05349894 -53.98219368 152.19465599 -56 148.28515625 C-59.08330405 141.77502786 -60.23298093 135.30504028 -61.4375 128.25 C-67.0475 128.25 -72.6575 128.25 -78.4375 128.25 C-79.56764088 132.77056352 -78.84640396 135.70453822 -77.6875 140.0625 C-77.51734375 140.74892578 -77.3471875 141.43535156 -77.171875 142.14257812 C-75.99329537 146.72257324 -74.40298696 150.93514192 -72.4375 155.25 C-72.06109375 156.09304687 -71.6846875 156.93609375 -71.296875 157.8046875 C-61.58080551 178.1263258 -42.79617875 192.42509045 -21.875 200 C-4.4948285 206.01486821 17.43571068 202.91233576 33.5625 195.25 C40.40612056 191.8556374 46.6550298 188.09412557 52.5625 183.25 C53.26890625 182.70085937 53.9753125 182.15171875 54.703125 181.5859375 C69.26873427 169.61769212 77.57484615 152.53205536 80.25 134.0625 C81.84400841 114.61559743 76.48929834 98.20291075 67.5625 81.25 C67.2325 80.59 66.9025 79.93 66.5625 79.25 C65.9025 79.25 65.2425 79.25 64.5625 79.25 C64.376875 78.569375 64.19125 77.88875 64 77.1875 C61.97057364 73.04041135 58.89060132 70.38958142 55.5625 67.25 C54.7375 66.404375 53.9125 65.55875 53.0625 64.6875 C36.24640744 48.29180975 17.24994489 43.17236133 -5.8125 42.625 C-6.49172516 42.60698334 -7.17095032 42.58896667 -7.87075806 42.57040405 C-20.58396635 42.23592748 -33.30192399 42.12216375 -46.019104 42.07476807 C-48.08190265 42.06662016 -50.14469189 42.0555342 -52.2074585 42.04144287 C-55.12146371 42.02359012 -58.03516526 42.01954713 -60.94921875 42.01953125 C-61.81976395 42.01239609 -62.69030914 42.00526093 -63.5872345 41.99790955 C-70.67260957 42.02421441 -75.73691508 42.96050154 -80.8125 48.25 Z M-99.4375 74.25 C-100.87643642 76.63430993 -100.87643642 76.63430993 -101.75 79.3125 C-102.07613281 80.19035156 -102.40226562 81.06820312 -102.73828125 81.97265625 C-103.53533656 84.17160735 -103.53533656 84.17160735 -103.4375 86.25 C-102.35581039 86.25586624 -101.27412079 86.26173248 -100.15965271 86.26777649 C-89.9070311 86.32528216 -79.65461594 86.39818612 -69.40220547 86.48571491 C-64.1328176 86.53021903 -58.86350352 86.5695178 -53.59399414 86.59643555 C-48.49745966 86.62266932 -43.40121222 86.66320966 -38.30485725 86.71318626 C-36.37190415 86.72972046 -34.43890155 86.74131762 -32.50588799 86.74761391 C-11.94432428 86.82128747 7.21471142 88.87705111 22.5625 104.25 C34.74618697 119.10008491 38.42436773 134.41091586 39.5625 153.25 C42.70892954 152.54674783 42.70892954 152.54674783 44.0625 149.94921875 C51.42652201 135.16364331 53.87410009 122.10432149 48.5625 106.25 C45.18168115 97.71126521 40.52718232 90.33047047 33.5625 84.25 C32.21865234 83.71246094 32.21865234 83.71246094 30.84765625 83.1640625 C30.09355469 82.86242187 29.33945312 82.56078125 28.5625 82.25 C28.2325 81.26 27.9025 80.27 27.5625 79.25 C16.16319884 71.76157019 3.11369173 71.10658351 -10.12231445 71.08886719 C-11.03257889 71.08390228 -11.94284332 71.07893738 -12.88069153 71.07382202 C-15.85406275 71.05936413 -18.82738085 71.05243031 -21.80078125 71.046875 C-23.33325532 71.04263393 -23.33325532 71.04263393 -24.89668846 71.03830719 C-30.2905846 71.0233905 -35.68445445 71.01411036 -41.07836914 71.00976562 C-46.64459544 71.00425502 -52.21058033 70.98015141 -57.77673054 70.95179367 C-62.06695777 70.93318574 -66.35712619 70.92796294 -70.64739037 70.92642975 C-72.70030237 70.92340457 -74.75321338 70.9153806 -76.80608559 70.90224457 C-79.6707997 70.88520361 -82.53491408 70.8870582 -85.3996582 70.89355469 C-86.2449408 70.8843399 -87.09022339 70.87512512 -87.96112061 70.8656311 C-92.60387348 70.89863822 -95.67669571 71.21886077 -99.4375 74.25 Z M-106.4375 99.25 C-108.78520643 102.77155964 -108.81419614 104.75771843 -109.0625 108.9375 C-109.13726562 110.11699219 -109.21203125 111.29648438 -109.2890625 112.51171875 C-109.33804688 113.41535156 -109.38703125 114.31898438 -109.4375 115.25 C-108.49361923 115.25586624 -107.54973846 115.26173248 -106.57725525 115.26777649 C-97.61963549 115.32534611 -88.66225057 115.39828143 -79.70487118 115.48571491 C-75.10136145 115.53017095 -70.4979352 115.56947933 -65.89428711 115.59643555 C-61.43963319 115.62271856 -56.98530493 115.66329085 -52.53085518 115.71318626 C-50.84352273 115.72968798 -49.15613418 115.74130492 -47.46873283 115.74761391 C-30.1344604 115.81889047 -13.39222623 117.19611405 0.0078125 129.5703125 C11.77467468 142.28325406 12.15790238 155.8054444 11.5625 172.25 C13.01274565 171.7818149 14.46172577 171.30970842 15.91015625 170.8359375 C16.71718994 170.57345215 17.52422363 170.3109668 18.35571289 170.04052734 C22.03506306 168.72249041 23.95907924 167.42508253 25.75 163.9375 C29.72835379 150.77832978 27.68438788 136.80300691 21.8671875 124.4921875 C17.10310708 116.28306569 17.10310708 116.28306569 9.5625 111.25 C9.0675 109.765 9.0675 109.765 8.5625 108.25 C-1.1978638 101.24474983 -11.77331942 99.10459902 -23.53222656 99.08886719 C-24.42721863 99.08390228 -25.32221069 99.07893738 -26.24432373 99.07382202 C-29.18893208 99.0592788 -32.13348672 99.05241479 -35.078125 99.046875 C-37.12742107 99.04112113 -39.17671713 99.03536342 -41.22601318 99.02960205 C-45.51298269 99.01911726 -49.79993355 99.01325677 -54.08691406 99.00976562 C-59.5907762 99.00425809 -65.09439379 98.98017163 -70.59817886 98.95179367 C-74.82567075 98.93322028 -79.05310277 98.92796473 -83.28063202 98.92642975 C-85.31090394 98.92339533 -87.34117461 98.91534041 -89.37140656 98.90224457 C-92.20124872 98.88527997 -95.03047987 98.88703957 -97.86035156 98.89355469 C-98.70400269 98.8843399 -99.54765381 98.87512512 -100.41687012 98.8656311 C-102.97710897 98.84857092 -102.97710897 98.84857092 -106.4375 99.25 Z M-48.4375 128.25 C-47.87813075 135.30416643 -47.87813075 135.30416643 -45.5625 141.9375 C-45.20285156 142.67871094 -44.84320313 143.41992188 -44.47265625 144.18359375 C-44.13105469 144.86550781 -43.78945313 145.54742187 -43.4375 146.25 C-42.963125 147.3225 -42.48875 148.395 -42 149.5 C-40.17053079 152.71986582 -38.17787405 154.75321476 -35.4375 157.25 C-34.62345703 158.05244141 -34.62345703 158.05244141 -33.79296875 158.87109375 C-25.99865393 166.23877239 -16.11526537 172.49877568 -5.125 172.3125 C-3.908125 172.291875 -2.69125 172.27125 -1.4375 172.25 C0.57456115 163.65006121 1.10048632 154.02940511 -3.4375 146.25 C-4.015 145.26 -4.5925 144.27 -5.1875 143.25 C-11.6382095 134.649054 -18.59817299 129.80278259 -29.4375 128.25 C-32.70964897 128.13539397 -35.9763892 128.15576477 -39.25 128.1875 C-40.57547852 128.19426758 -40.57547852 128.19426758 -41.92773438 128.20117188 C-44.09768559 128.21290134 -46.26760172 128.23083505 -48.4375 128.25 Z " fill="#FCE968" transform="translate(306.4375,18.75)"/>
<path d="M0 0 C4.65622046 0.76019926 7.14126555 3.29267305 9.95947266 6.98608398 C10.5426123 7.89688721 11.12575195 8.80769043 11.7265625 9.74609375 C12.37367187 10.74833984 13.02078125 11.75058594 13.6875 12.78320312 C14.3475 13.82412109 15.0075 14.86503906 15.6875 15.9375 C16.35523437 16.97455078 17.02296875 18.01160156 17.7109375 19.08007812 C22.6813668 26.81903655 22.6813668 26.81903655 24.64990234 30.33618164 C25.11605957 31.0502417 25.5822168 31.76430176 26.0625 32.5 C26.7225 32.5 27.3825 32.5 28.0625 32.5 C29.6528791 30.34381295 31.11809107 28.1892412 32.5625 25.9375 C33.21919678 24.93650269 33.21919678 24.93650269 33.88916016 23.9152832 C35.75538573 21.06933913 37.60452478 18.21269359 39.44433594 15.34960938 C40.34012662 13.95672881 41.23945603 12.56611673 42.14257812 11.17797852 C42.99087251 9.87402978 43.83105688 8.56476058 44.66210938 7.24975586 C48.33371778 1.617869 48.33371778 1.617869 52.0625 0.5 C55.08296524 0.68492644 57.22490266 0.90753712 59.72084045 2.67300415 C61.6550869 5.30695121 61.45056733 7.29750389 61.46655273 10.54443359 C61.47923691 11.78937592 61.49192108 13.03431824 61.50498962 14.31698608 C61.50293787 15.67747157 61.49994959 17.03795593 61.49609375 18.3984375 C61.50065523 19.79464981 61.5059607 21.19085986 61.51197815 22.58706665 C61.5209148 25.51419185 61.51848109 28.44104432 61.50854492 31.36816406 C61.49706919 35.11321225 61.51724093 38.85731557 61.54646206 42.60223961 C61.56484218 45.48654125 61.56452785 48.37061739 61.55882454 51.25496292 C61.55867146 52.63522286 61.56470464 54.01549822 61.57711601 55.39570236 C61.59205081 57.32934113 61.57870605 59.26313524 61.56420898 61.19677734 C61.56404282 62.2958139 61.56387665 63.39485046 61.56370544 64.52719116 C60.94684603 68.18598044 59.60889435 69.85262316 57.0625 72.5 C55.1875 73.5 55.1875 73.5 53.0625 73.5 C47.39583333 71.16666667 47.39583333 71.16666667 46.0625 68.5 C45.90605828 65.94893971 45.80428611 63.42081337 45.74609375 60.8671875 C45.72531265 60.11535187 45.70453156 59.36351624 45.68312073 58.58889771 C45.61767295 56.18435915 45.55876262 53.77971033 45.5 51.375 C45.45681023 49.74608229 45.41319579 48.11717578 45.36914062 46.48828125 C45.26199649 42.49230085 45.16071567 38.49620941 45.0625 34.5 C41.59585176 38.77281424 38.70752692 43.18621725 35.84375 47.87890625 C31.53590794 54.21785805 31.53590794 54.21785805 27.125 55.0625 C23.05827686 54.31555085 21.59237526 52.69954812 19.0625 49.5 C19.0625 48.51 19.0625 47.52 19.0625 46.5 C18.4025 46.5 17.7425 46.5 17.0625 46.5 C16.505625 45.2934375 16.505625 45.2934375 15.9375 44.0625 C14.48830303 41.14191115 12.76680951 38.47997143 10.9453125 35.77734375 C10.40535645 34.97417725 9.86540039 34.17101074 9.30908203 33.34350586 C8.89770996 32.73514893 8.48633789 32.12679199 8.0625 31.5 C8.0531543 32.63542236 8.04380859 33.77084473 8.03417969 34.94067383 C7.9943243 39.15103473 7.92857871 43.36066145 7.85498047 47.57055664 C7.82674486 49.39305189 7.8055432 51.21567019 7.79150391 53.03833008 C7.7701096 55.65770583 7.72348021 58.27559815 7.671875 60.89453125 C7.67003204 62.11811089 7.67003204 62.11811089 7.66815186 63.3664093 C7.5220747 69.00071271 7.5220747 69.00071271 5.21191406 71.51049805 C2.24783624 72.87503774 0.28849856 72.97045812 -2.9375 72.5 C-5.77387612 70.34721382 -6.82128925 69.15978435 -7.44543457 65.61621094 C-7.44861694 64.50020508 -7.45179932 63.38419922 -7.45507812 62.234375 C-7.46768677 60.96625977 -7.48029541 59.69814453 -7.49328613 58.39160156 C-7.4861263 57.01106205 -7.47792231 55.63052761 -7.46875 54.25 C-7.47144562 52.83040094 -7.47532863 51.41080369 -7.48034668 49.99121094 C-7.48623858 47.01870106 -7.47768954 44.04667259 -7.45898438 41.07421875 C-7.436194 37.26741213 -7.44931888 33.46173351 -7.47327423 29.65496826 C-7.48774114 26.72436044 -7.48312235 23.79401926 -7.47276306 20.86340332 C-7.47009819 19.46000026 -7.47335717 18.05657285 -7.48268127 16.65319824 C-7.49285941 14.69067865 -7.4745904 12.72807398 -7.45507812 10.765625 C-7.45189575 9.64961914 -7.44871338 8.53361328 -7.44543457 7.38378906 C-6.64076114 2.81527068 -4.53924254 0.77263703 0 0 Z " fill="#20140C" transform="translate(66.9375,310.5)"/>
<path d="M0 0 C2.21227784 -0.00216843 4.4240421 -0.02027441 6.63623047 -0.03930664 C25.21961328 -0.11660572 25.21961328 -0.11660572 32.07373047 6.36108398 C36.62920844 11.74692756 38.29896932 17.69865406 38.01513672 24.68530273 C37.20535052 29.76631419 35.27123336 34.5307686 31.61669922 38.18530273 C31.8845288 41.30998119 32.79812482 43.57839153 34.11669922 46.43530273 C35.75593827 50.02113816 36.04882328 53.35463933 36.21044922 57.26733398 C36.46934476 59.59193484 36.46934476 59.59193484 39.61669922 61.18530273 C40.31722382 63.84836574 40.39414739 66.42566011 40.61669922 69.18530273 C38.02577695 71.776225 36.42568466 72.21611153 32.74169922 72.81030273 C30.12885587 72.71280858 28.92869039 72.42340126 26.83544922 70.82592773 C21.6095143 65.0364116 20.43459077 58.75824422 19.17919922 51.25952148 C18.99357422 50.5750293 18.80794922 49.89053711 18.61669922 49.18530273 C16.26731033 48.01060829 14.66596717 47.98495385 12.04638672 47.86889648 C10.70253906 47.80605469 10.70253906 47.80605469 9.33154297 47.74194336 C8.39439453 47.70262695 7.45724609 47.66331055 6.49169922 47.62280273 C5.074375 47.55802734 5.074375 47.55802734 3.62841797 47.49194336 C1.2913283 47.38571201 -1.04586908 47.28367097 -3.38330078 47.18530273 C-3.37282715 47.77021484 -3.36235352 48.35512695 -3.3515625 48.95776367 C-3.30989814 51.61689937 -3.28394177 54.27596626 -3.25830078 56.93530273 C-3.24154297 57.85569336 -3.22478516 58.77608398 -3.20751953 59.72436523 C-3.20107422 60.61381836 -3.19462891 61.50327148 -3.18798828 62.41967773 C-3.17751465 63.23662109 -3.16704102 64.05356445 -3.15625 64.89526367 C-3.40890297 67.44352693 -4.02195343 69.02650092 -5.38330078 71.18530273 C-8.27191788 72.62961128 -10.17977779 72.56218779 -13.38330078 72.18530273 C-16.50071023 69.69035258 -18.17678852 68.17317245 -19.00476074 64.2124939 C-19.0027063 63.11345734 -19.00065186 62.01442078 -18.99853516 60.88208008 C-19.00784058 59.63083344 -19.017146 58.37958679 -19.0267334 57.09042358 C-19.01114942 55.73401756 -18.99456465 54.37762271 -18.97705078 53.02124023 C-18.97533871 51.62309879 -18.97540634 50.22495413 -18.97717285 48.82681274 C-18.97552248 45.9030264 -18.95687439 42.98000951 -18.92529297 40.05639648 C-18.88554139 36.30904549 -18.88125762 32.56269795 -18.8887558 28.81517601 C-18.89182446 25.93092657 -18.87971015 23.04690278 -18.86262512 20.16270828 C-18.85559638 18.78082316 -18.85247044 17.39891247 -18.85331726 16.01700974 C-18.85152013 14.08784717 -18.82787768 12.15874218 -18.80322266 10.22973633 C-18.79480347 9.13229095 -18.78638428 8.03484558 -18.77770996 6.90414429 C-18.38330078 4.18530273 -18.38330078 4.18530273 -16.98205566 2.37002563 C-12.15098877 -1.20993252 -5.77443805 -0.00063414 0 0 Z M-3.38330078 13.18530273 C-3.38330078 19.78530273 -3.38330078 26.38530273 -3.38330078 33.18530273 C-0.16580078 33.22655273 3.05169922 33.26780273 6.36669922 33.31030273 C7.37442383 33.32851074 8.38214844 33.34671875 9.42041016 33.36547852 C10.2225293 33.37047363 11.02464844 33.37546875 11.85107422 33.38061523 C13.07648926 33.39632568 13.07648926 33.39632568 14.32666016 33.41235352 C16.87492341 33.15970055 18.45789741 32.54665009 20.61669922 31.18530273 C21.88109507 28.65651104 21.92809726 26.69672245 22.05419922 23.87280273 C22.14507812 22.45547852 22.14507812 22.45547852 22.23779297 21.00952148 C21.51333204 17.71527464 20.26003573 16.13429922 17.55737305 14.12060547 C13.76971661 12.29515424 9.85212157 12.67318191 5.74169922 12.87280273 C1.22482422 13.02749023 1.22482422 13.02749023 -3.38330078 13.18530273 Z " fill="#1B1107" transform="translate(220.38330078125,310.814697265625)"/>
<path d="M0 0 C7.37361086 5.94068244 12.29599071 14.03221954 13.8125 23.375 C14.90010221 34.27821219 13.06263147 43.27770881 6.5625 52.1875 C0.948933 58.8640616 -5.46445654 63.81266386 -14.1875 65.375 C-25.97047371 66.3591927 -35.01379538 64.98722298 -44.1875 57.375 C-44.1875 56.715 -44.1875 56.055 -44.1875 55.375 C-44.78175781 55.16746094 -45.37601562 54.95992188 -45.98828125 54.74609375 C-49.03837035 52.84452843 -49.85401494 50.66323952 -51.375 47.4375 C-52.13876953 45.84615234 -52.13876953 45.84615234 -52.91796875 44.22265625 C-56.69286685 35.75526944 -56.54292001 24.28597838 -53.75 15.4375 C-50.31979264 7.4010142 -42.94269114 -0.90952249 -34.96875 -4.671875 C-22.27911061 -8.58306522 -11.02288649 -7.43305755 0 0 Z M-36.0625 14.3125 C-39.79251374 20.23738577 -40.61851559 27.56443039 -39.84375 34.4140625 C-38.42204365 40.55786493 -36.08603444 45.31786088 -31.1875 49.375 C-26.4019525 52.26438717 -22.72385614 52.80705429 -17.32421875 51.9453125 C-11.39388226 50.36244389 -7.6281801 46.2492968 -4.1875 41.375 C-1.13346727 33.66720311 -1.33354515 26.15363846 -4.2109375 18.44921875 C-6.2675215 14.08103433 -8.91347595 11.24365276 -12.9375 8.5 C-21.54134954 5.52174439 -30.03897394 7.23221498 -36.0625 14.3125 Z " fill="#20150B" transform="translate(491.1875,317.625)"/>
<path d="M0 0 C3.0925415 2.13887005 5.15969267 3.76297991 6.75390625 7.203125 C6.49581811 10.55827088 5.81214503 12.11416887 3.56640625 14.640625 C0.16259094 15.7752301 -2.15723347 16.12540771 -5.5625 14.83203125 C-6.93913337 14.13991171 -8.29923533 13.41347802 -9.63671875 12.6484375 C-15.06661404 9.60297449 -21.16986786 10.00519317 -26.99609375 11.640625 C-27.80046875 11.970625 -28.60484375 12.300625 -29.43359375 12.640625 C-29.65627083 16.01885916 -29.65627083 16.01885916 -28.43359375 19.640625 C-24.2484625 23.01258308 -18.5964052 23.86561535 -13.48339844 25.03198242 C-4.94713016 26.98648398 1.1325393 29.13367463 6.56640625 36.265625 C8.50754848 42.81698003 8.78253622 49.83762336 5.87890625 56.140625 C2.27897851 62.14878026 -2.71701544 64.6626935 -9.19921875 66.87890625 C-20.56956489 69.55670516 -31.03854986 67.97675787 -40.93359375 62.078125 C-44.28075532 59.94630186 -44.28075532 59.94630186 -45.43359375 57.640625 C-45.41796875 55.546875 -45.41796875 55.546875 -45.18359375 53.140625 C-45.1165625 52.3465625 -45.04953125 51.5525 -44.98046875 50.734375 C-44.43359375 48.640625 -44.43359375 48.640625 -41.43359375 46.640625 C-37.15551721 46.74757691 -33.90436488 48.31513054 -30.12109375 50.140625 C-24.68446952 52.67083139 -19.29367228 55.01196869 -13.35546875 52.90234375 C-10.09016587 51.18341398 -8.6191889 50.19741045 -7.43359375 46.640625 C-8.29701819 43.83183069 -9.00093411 42.87091158 -11.61328125 41.48046875 C-12.50273437 41.18269531 -13.3921875 40.88492188 -14.30859375 40.578125 C-15.28957031 40.24683594 -16.27054687 39.91554688 -17.28125 39.57421875 C-20.4178781 38.64527932 -23.5592236 37.87666867 -26.74609375 37.140625 C-34.42112625 35.28632128 -38.79655082 31.86751123 -43.43359375 25.640625 C-45.23031172 20.2504711 -45.45379381 14.43876708 -43.4921875 9.05859375 C-40.1637017 2.76681652 -36.59361821 -0.77266831 -29.80859375 -3.109375 C-19.8140841 -5.80419094 -9.13744521 -5.10406249 0 0 Z " fill="#22170D" transform="translate(423.43359375,315.359375)"/>
<path d="M0 0 C3.7076825 0.61794708 4.57123284 1.70206023 7 4.5 C11.66582027 12.61973917 14.6300001 21.97858955 18.078125 30.67578125 C19.96886649 35.43871076 21.92846524 40.17040891 23.9140625 44.89453125 C25.34632763 48.33093716 26.72332636 51.78782235 28.08203125 55.25390625 C28.91781877 57.29891828 29.85124258 59.26224144 30.8125 61.25 C32.17047001 64.96654951 32.35103304 66.78465915 31 70.5 C28.24045918 73.02300875 26.79566054 73.5338579 23.0625 73.375 C18.22755272 70.4148282 16.15468263 65.64220357 14 60.5 C14 59.51 14 58.52 14 57.5 C9.75051671 57.32584085 5.50194845 57.21918873 1.25 57.125 C-0.55984375 57.04958984 -0.55984375 57.04958984 -2.40625 56.97265625 C-5.70357823 56.91770078 -8.7497992 56.9366357 -12 57.5 C-14.86364657 60.07471226 -14.86364657 60.07471226 -16 63.5 C-16.39445313 64.25925781 -16.78890625 65.01851563 -17.1953125 65.80078125 C-17.82097925 67.15463998 -18.445967 68.5088127 -19.0703125 69.86328125 C-20 71.5 -20 71.5 -22 72.5 C-27.31020813 72.95193261 -27.31020813 72.95193261 -29.8125 71.3125 C-31.38460875 68.91296559 -31.74104822 67.38378116 -32 64.5 C-31.21103388 61.80317037 -30.36398618 59.33827368 -29.3125 56.75 C-29.05533203 56.08484375 -28.79816406 55.4196875 -28.53320312 54.734375 C-26.83959492 50.40672749 -24.98424921 46.15889906 -23.08227539 41.91943359 C-21.04145302 37.35716207 -19.05645011 32.77039979 -17.0625 28.1875 C-16.62083496 27.17582764 -16.17916992 26.16415527 -15.72412109 25.12182617 C-13.07067974 19.02734091 -10.49863438 12.91964226 -8.1328125 6.70703125 C-6.17499332 2.8926594 -4.27699777 0.71283296 0 0 Z M-1 26.5 C-3.31 32.11 -5.62 37.72 -8 43.5 C-3.05 43.83 1.9 44.16 7 44.5 C6.17155102 40.35775512 5.16434606 37.10964094 3.5625 33.25 C3.13066406 32.19296875 2.69882813 31.1359375 2.25390625 30.046875 C1.25857283 27.3772399 1.25857283 27.3772399 -1 26.5 Z " fill="#21170C" transform="translate(165,310.5)"/>
<path d="M0 0 C4.03846154 2.01923077 4.03846154 2.01923077 5.5 4.25 C6.3219263 10.82541042 4.19919918 14.02982464 0.4375 19.0625 C-0.06330078 19.75956055 -0.56410156 20.45662109 -1.08007812 21.17480469 C-2.08097477 22.56665645 -3.08818088 23.95399558 -4.10205078 25.33642578 C-5.94592746 27.86040508 -7.7232445 30.42848075 -9.5 33 C-12.37382349 37.1095676 -12.37382349 37.1095676 -14.06445312 38.99121094 C-15.93508402 41.93459139 -15.88355854 43.93445708 -15.90625 47.40625 C-15.92816406 48.59347656 -15.95007813 49.78070313 -15.97265625 51.00390625 C-15.98167969 52.24011719 -15.99070312 53.47632813 -16 54.75 C-16.01786898 57.19805091 -16.04856988 59.64605081 -16.09375 62.09375 C-16.10083984 63.17849609 -16.10792969 64.26324219 -16.11523438 65.38085938 C-16.5471003 68.60122001 -17.18435341 69.99324847 -19.5 72.25 C-22.9375 72.75 -22.9375 72.75 -26.5 72.25 C-29.33772429 70.11412604 -30.38116045 68.94896418 -30.98242188 65.41259766 C-30.97791016 64.34058105 -30.97339844 63.26856445 -30.96875 62.1640625 C-30.98292969 60.98585938 -30.99710937 59.80765625 -31.01171875 58.59375 C-31.00393087 56.12239576 -30.99611853 53.65104159 -30.98828125 51.1796875 C-31.03596465 42.41218682 -31.03596465 42.41218682 -35.5 35.25 C-36.01820313 34.4971875 -36.53640625 33.744375 -37.0703125 32.96875 C-37.58335937 32.2365625 -38.09640625 31.504375 -38.625 30.75 C-39.51058594 29.47189453 -39.51058594 29.47189453 -40.4140625 28.16796875 C-41.97548024 25.98373831 -43.56604807 23.85781254 -45.2109375 21.73828125 C-45.67226074 21.12984375 -46.13358398 20.52140625 -46.60888672 19.89453125 C-47.51896925 18.69599504 -48.44463428 17.50909387 -49.38720703 16.3359375 C-51.78250845 13.1434311 -52.50795899 11.51511671 -52.38671875 7.4765625 C-51.3826308 3.82292087 -50.63563997 2.36867566 -47.5 0.25 C-44.5 -0.25 -44.5 -0.25 -41.5 0.25 C-39.05838656 2.13353037 -37.68058578 3.94835113 -36.1015625 6.5859375 C-34.52454139 9.2091775 -32.83292263 11.69155896 -31.0625 14.1875 C-28.48498037 17.84080643 -25.95725493 21.5149725 -23.5 25.25 C-18.94530568 19.02722283 -14.43798993 12.77817075 -10.04296875 6.44140625 C-9.27919922 5.35666016 -9.27919922 5.35666016 -8.5 4.25 C-8.00113281 3.51652344 -7.50226563 2.78304688 -6.98828125 2.02734375 C-4.77773484 -0.61254763 -3.2725057 -0.98175171 0 0 Z " fill="#1F140B" transform="translate(342.5,310.75)"/>
<path d="M0 0 C0.70125 0.07863281 1.4025 0.15726562 2.125 0.23828125 C4 0.6875 4 0.6875 6 2.6875 C6.2784729 5.01602173 6.2784729 5.01602173 6.31884766 7.96337891 C6.33871735 9.0643692 6.35858704 10.1653595 6.37905884 11.29971313 C6.39061005 12.49244843 6.40216125 13.68518372 6.4140625 14.9140625 C6.43342865 16.13201508 6.4527948 17.34996765 6.4727478 18.60482788 C6.53268215 22.5073133 6.57898471 26.40982799 6.625 30.3125 C6.66316699 32.9531381 6.70221795 35.59376357 6.7421875 38.234375 C6.83839504 44.71863826 6.92340176 51.20297708 7 57.6875 C8.24873901 57.70151855 8.24873901 57.70151855 9.52270508 57.71582031 C12.61502289 57.75986366 15.70634946 57.82148775 18.7980957 57.89501953 C20.79289131 57.93708649 22.78808082 57.95887864 24.78320312 57.98046875 C26.03681641 58.01269531 27.29042969 58.04492188 28.58203125 58.078125 C29.73936768 58.09907227 30.8967041 58.12001953 32.08911133 58.14160156 C35 58.6875 35 58.6875 36.8737793 60.53417969 C38.41362947 63.47835452 38.48737172 65.41514702 38 68.6875 C35.48445118 71.48374324 33.90611369 71.69689572 30.12109375 72.07568359 C28.56001698 72.09543048 26.99865646 72.09781758 25.4375 72.0859375 C24.60919678 72.08880768 23.78089355 72.09167786 22.92749023 72.09463501 C21.17919225 72.09667318 19.43087133 72.09116056 17.68261719 72.07861328 C15.00924607 72.06255554 12.3373867 72.07846971 9.6640625 72.09765625 C7.96353834 72.09567377 6.26301511 72.09183001 4.5625 72.0859375 C3.76448975 72.09201019 2.96647949 72.09808289 2.14428711 72.1043396 C-1.02967931 72.06419041 -3.57466466 71.88530109 -6.47265625 70.53759766 C-9.54547522 66.81543938 -9.12888989 61.50079325 -9.16113281 56.85327148 C-9.17074036 55.72868027 -9.1803479 54.60408905 -9.19024658 53.44541931 C-9.19449646 52.24526688 -9.19874634 51.04511444 -9.203125 49.80859375 C-9.20882507 48.56376724 -9.21452515 47.31894073 -9.22039795 46.03639221 C-9.22982635 43.40976812 -9.23637333 40.78313232 -9.24023438 38.15649414 C-9.24463899 35.46690448 -9.2586136 32.77763205 -9.28125 30.08813477 C-9.31165868 26.20318872 -9.32227442 22.31864542 -9.328125 18.43359375 C-9.3404718 17.23141708 -9.3528186 16.02924042 -9.36553955 14.79063416 C-9.36253845 13.6691951 -9.35953735 12.54775604 -9.35644531 11.39233398 C-9.36009094 10.40893539 -9.36373657 9.4255368 -9.36749268 8.41233826 C-8.93267755 5.18832601 -7.90172307 3.30498545 -6 0.6875 C-3.63106495 -0.49696753 -2.5933174 -0.31939755 0 0 Z " fill="#22180E" transform="translate(521,311.3125)"/>
<path d="M0 0 C4.65837687 0.76055133 7.14170434 3.30325945 9.9753418 6.98608398 C10.85959839 8.35228882 10.85959839 8.35228882 11.76171875 9.74609375 C12.41333984 10.74833984 13.06496094 11.75058594 13.73632812 12.78320312 C14.7330957 14.34458008 14.7330957 14.34458008 15.75 15.9375 C16.42611328 16.97455078 17.10222656 18.01160156 17.79882812 19.08007812 C25.0625 30.33334888 25.0625 30.33334888 25.0625 36.5 C24.0725 36.5 23.0825 36.5 22.0625 36.5 C22.0625 37.49 22.0625 38.48 22.0625 39.5 C20.7425 39.5 19.4225 39.5 18.0625 39.5 C16.0825 39.995 16.0825 39.995 14.0625 40.5 C12.0825 37.53 10.1025 34.56 8.0625 31.5 C8.0531543 32.63542236 8.04380859 33.77084473 8.03417969 34.94067383 C7.9943243 39.15103473 7.92857871 43.36066145 7.85498047 47.57055664 C7.82674486 49.39305189 7.8055432 51.21567019 7.79150391 53.03833008 C7.7701096 55.65770583 7.72348021 58.27559815 7.671875 60.89453125 C7.67003204 62.11811089 7.67003204 62.11811089 7.66815186 63.3664093 C7.5220747 69.00071271 7.5220747 69.00071271 5.21191406 71.51049805 C2.24783624 72.87503774 0.28849856 72.97045812 -2.9375 72.5 C-5.77387612 70.34721382 -6.82128925 69.15978435 -7.44543457 65.61621094 C-7.44861694 64.50020508 -7.45179932 63.38419922 -7.45507812 62.234375 C-7.46768677 60.96625977 -7.48029541 59.69814453 -7.49328613 58.39160156 C-7.4861263 57.01106205 -7.47792231 55.63052761 -7.46875 54.25 C-7.47144562 52.83040094 -7.47532863 51.41080369 -7.48034668 49.99121094 C-7.48623858 47.01870106 -7.47768954 44.04667259 -7.45898438 41.07421875 C-7.436194 37.26741213 -7.44931888 33.46173351 -7.47327423 29.65496826 C-7.48774114 26.72436044 -7.48312235 23.79401926 -7.47276306 20.86340332 C-7.47009819 19.46000026 -7.47335717 18.05657285 -7.48268127 16.65319824 C-7.49285941 14.69067865 -7.4745904 12.72807398 -7.45507812 10.765625 C-7.45189575 9.64961914 -7.44871338 8.53361328 -7.44543457 7.38378906 C-6.64076114 2.81527068 -4.53924254 0.77263703 0 0 Z " fill="#1A0F07" transform="translate(66.9375,310.5)"/>
<path d="M0 0 C4.58588775 4.10316272 6.5728765 7.14931739 7.25390625 13.2890625 C7.55819433 19.63003348 6.22866123 24.53248609 3 30 C2.34 30.66 1.68 31.32 1 32 C1.26782958 35.12467846 2.1814256 37.39308879 3.5 40.25 C5.13923905 43.83583542 5.43212406 47.16933659 5.59375 51.08203125 C5.85264554 53.4066321 5.85264554 53.4066321 9 55 C9.70052461 57.663063 9.77744818 60.24035737 10 63 C7.40907774 65.59092226 5.80898544 66.0308088 2.125 66.625 C-0.48784335 66.52750585 -1.68800883 66.23809853 -3.78125 64.640625 C-9.44650049 58.36441613 -10.50113721 51.06834651 -12 43 C-14.97 42.34 -17.94 41.68 -21 41 C-21 40.67 -21 40.34 -21 40 C-18.69 40 -16.38 40 -14 40 C-14.66 38.02 -15.32 36.04 -16 34 C-15.01 33.505 -15.01 33.505 -14 33 C-14.33 31.68 -14.66 30.36 -15 29 C-21.6 28.67 -28.2 28.34 -35 28 C-35 21.4 -35 14.8 -35 8 C-34.67 8 -34.34 8 -34 8 C-34 14.27 -34 20.54 -34 27 C-30.74971909 26.85907454 -27.49986597 26.71245938 -24.25 26.5625 C-23.32960937 26.52318359 -22.40921875 26.48386719 -21.4609375 26.44335938 C-20.57148438 26.40146484 -19.68203125 26.35957031 -18.765625 26.31640625 C-17.54020996 26.26141968 -17.54020996 26.26141968 -16.29003906 26.20532227 C-14.0965577 26.00865725 -12.11603587 25.59699406 -10 25 C-9.1587727 17.26782934 -9.1587727 17.26782934 -11.11328125 10.0234375 C-12.59603596 8.51827245 -12.59603596 8.51827245 -15 7 C-14.01 7 -13.02 7 -12 7 C-12 6.34 -12 5.68 -12 5 C-8.94152152 4.45627049 -6.11227195 4 -3 4 C-2.01 3.67 -1.02 3.34 0 3 C0 2.01 0 1.02 0 0 Z " fill="#271D13" transform="translate(251,317)"/>
<path d="M0 0 C5.29294361 0.16039223 9.31543181 3.46931169 13 7 C14.52175771 10.28379294 14.2280079 11.37297827 13 14.75 C11 17 11 17 7.8125 18.0625 C3.58403323 17.99318087 1.39311308 17.06486068 -2.203125 15.0078125 C-7.63302029 11.96234949 -13.73627411 12.36456817 -19.5625 14 C-20.366875 14.33 -21.17125 14.66 -22 15 C-22 14.34 -22 13.68 -22 13 C-21.34 13 -20.68 13 -20 13 C-20 12.01 -20 11.02 -20 10 C-16.04 10 -12.08 10 -8 10 C-7.34 8.35 -6.68 6.7 -6 5 C-3.69 5 -1.38 5 1 5 C0.34 3.68 -0.32 2.36 -1 1 C-0.67 0.67 -0.34 0.34 0 0 Z " fill="#271C10" transform="translate(416,313)"/>
<path d="M0 0 C0.33 1.65 0.66 3.3 1 5 C-1.31 5.33 -3.62 5.66 -6 6 C-6 7.32 -6 8.64 -6 10 C-6 10.33 -6 10.66 -6 11 C-7.72880982 11.05449838 -9.45812712 11.09301688 -11.1875 11.125 C-12.15042969 11.14820313 -13.11335938 11.17140625 -14.10546875 11.1953125 C-17.12812778 10.9913544 -19.26769985 10.26874632 -22 9 C-22 8.01 -22 7.02 -22 6 C-23.32 5.34 -24.64 4.68 -26 4 C-25.4375 2.125 -25.4375 2.125 -24 0 C-16.53397574 -3.1770316 -7.45127571 -3.22217328 0 0 Z M-22 3 C-21.67 3.66 -21.34 4.32 -21 5 C-20.34 4.34 -19.68 3.68 -19 3 C-19.99 3 -20.98 3 -22 3 Z " fill="#1A0E06" transform="translate(416,313)"/>
<path d="M0 0 C4.3740826 1.13402141 8.30693369 2.93136832 12.375 4.875 C11.385 5.74125 11.385 5.74125 10.375 6.625 C7.93209077 8.87153977 7.93209077 8.87153977 8.375 12.875 C7.385 13.37 7.385 13.37 6.375 13.875 C6.375 15.525 6.375 17.175 6.375 18.875 C-4.625 14.875 -4.625 14.875 -6.625 10.875 C-6.609375 8.78125 -6.609375 8.78125 -6.375 6.375 C-6.30796875 5.5809375 -6.2409375 4.786875 -6.171875 3.96875 C-5.26993307 0.51560091 -3.39068537 -0.16146121 0 0 Z " fill="#241A0E" transform="translate(384.625,362.125)"/>
<path d="M0 0 C4.03846154 2.01923077 4.03846154 2.01923077 5.5 4.25 C6.06045628 8.57351988 5.9786058 10.54704773 3.5 14.1875 C2.51 15.2084375 2.51 15.2084375 1.5 16.25 C0.24458443 12.48375329 1.12938042 10.87811066 2.5 7.25 C1.51 7.25 0.52 7.25 -0.5 7.25 C-0.83 6.92 -1.16 6.59 -1.5 6.25 C-2.16 6.91 -2.82 7.57 -3.5 8.25 C-4.16 7.92 -4.82 7.59 -5.5 7.25 C-5.5 7.91 -5.5 8.57 -5.5 9.25 C-6.16 9.25 -6.82 9.25 -7.5 9.25 C-7.5 9.91 -7.5 10.57 -7.5 11.25 C-8.49 11.25 -9.48 11.25 -10.5 11.25 C-10.5 12.24 -10.5 13.23 -10.5 14.25 C-11.139375 14.45625 -11.77875 14.6625 -12.4375 14.875 C-13.118125 15.32875 -13.79875 15.7825 -14.5 16.25 C-14.665 17.24 -14.83 18.23 -15 19.25 C-15.165 20.24 -15.33 21.23 -15.5 22.25 C-17.4375 23.5 -17.4375 23.5 -19.5 24.25 C-20.16 24.91 -20.82 25.57 -21.5 26.25 C-21.02223611 21.38048339 -18.6020168 18.17494146 -15.75 14.375 C-15.31945312 13.78847656 -14.88890625 13.20195312 -14.4453125 12.59765625 C-13.57593599 11.41332597 -12.70157621 10.23263756 -11.82226562 9.05566406 C-10.91271747 7.81360014 -10.02710112 6.55376859 -9.16210938 5.28027344 C-4.62219714 -1.38665914 -4.62219714 -1.38665914 0 0 Z " fill="#372C1F" transform="translate(342.5,310.75)"/>
<path d="M0 0 C17.16 0 34.32 0 52 0 C47.5 3.375 47.5 3.375 43.04785156 3.2487793 C42.06713684 3.22853195 41.08642212 3.20828461 40.07598877 3.18742371 C38.4992337 3.13138725 38.4992337 3.13138725 36.890625 3.07421875 C35.80867859 3.04777786 34.72673218 3.02133698 33.61199951 2.99409485 C30.15743744 2.90634811 26.70392821 2.79719042 23.25 2.6875 C20.90758977 2.62423972 18.56514144 2.56237372 16.22265625 2.50195312 C10.48123071 2.35080974 4.74052303 2.18208487 -1 2 C-0.67 1.34 -0.34 0.68 0 0 Z " fill="#FBE973" transform="translate(240,105)"/>
<path d="M0 0 C-1.58424783 3.91456586 -4.27568159 6.54477137 -7.25 9.4375 C-7.74943115 9.92686035 -8.2488623 10.4162207 -8.76342773 10.92041016 C-10.16823208 12.28790261 -11.58375247 13.64436221 -13 15 C-13.56332031 15.54527344 -14.12664062 16.09054688 -14.70703125 16.65234375 C-18.78146292 20.32755157 -23.85014851 23.13860789 -29 25 C-29.99 24.67 -30.98 24.34 -32 24 C-31.27296875 23.55011719 -30.5459375 23.10023438 -29.796875 22.63671875 C-20.63639373 16.77635958 -12.79893879 10.10900239 -5.33984375 2.16796875 C-3 0 -3 0 0 0 Z " fill="#F8E77B" transform="translate(393,210)"/>
<path d="M0 0 C0.70703125 1.5703125 0.70703125 1.5703125 1 4 C0.00132467 6.44120637 -1.03217299 8.5885758 -2.3125 10.875 C-2.66989258 11.52686279 -3.02728516 12.17872559 -3.39550781 12.8503418 C-6.10469259 17.67266748 -9.07207699 22.28689012 -12.25 26.8125 C-12.66161377 27.40466309 -13.07322754 27.99682617 -13.49731445 28.60693359 C-15.6804612 31.61710354 -17.45160948 33.72225387 -21 35 C-21 34.01 -21 33.02 -21 32 C-19.68 31.67 -18.36 31.34 -17 31 C-17.33 30.01 -17.66 29.02 -18 28 C-17.360625 27.7525 -16.72125 27.505 -16.0625 27.25 C-13.81258459 26.18437567 -13.81258459 26.18437567 -13.25 23.875 C-13.1675 23.25625 -13.085 22.6375 -13 22 C-12.34 22 -11.68 22 -11 22 C-10.67 20.68 -10.34 19.36 -10 18 C-9.34 18 -8.68 18 -8 18 C-8 16.68 -8 15.36 -8 14 C-7.34 14 -6.68 14 -6 14 C-6 12.35 -6 10.7 -6 9 C-5.34 9 -4.68 9 -4 9 C-4 8.34 -4 7.68 -4 7 C-3.34 7 -2.68 7 -2 7 C-2.04125 6.21625 -2.0825 5.4325 -2.125 4.625 C-2 2 -2 2 0 0 Z " fill="#FBED86" transform="translate(418,186)"/>
<path d="M0 0 C0.495 1.485 0.495 1.485 1 3 C-12.53 3 -26.06 3 -40 3 C-40 2.67 -40 2.34 -40 2 C-26.76343476 -0.69544601 -13.43951357 -0.19706032 0 0 Z " fill="#FDF2A9" transform="translate(306,59)"/>
<path d="M0 0 C11.22 0 22.44 0 34 0 C33.67 0.99 33.34 1.98 33 3 C28.6213617 2.9065465 24.24326804 2.80047246 19.86523438 2.68261719 C18.37541111 2.64430002 16.88549446 2.60945192 15.39550781 2.578125 C13.25551952 2.53253271 11.11617564 2.47453126 8.9765625 2.4140625 C7.68830566 2.3826416 6.40004883 2.3512207 5.07275391 2.31884766 C2 2 2 2 0 0 Z " fill="#FDEF79" transform="translate(204,105)"/>
<path d="M0 0 C0.33 0 0.66 0 1 0 C1.96365326 4.84219015 2.14592151 9.5499379 2.1328125 14.46875 C2.13376923 15.26728394 2.13472595 16.06581787 2.13571167 16.8885498 C2.13638927 18.56941812 2.13456438 20.25028912 2.13037109 21.93115234 C2.12501689 24.49192224 2.13033035 27.05251676 2.13671875 29.61328125 C2.13605789 31.25260455 2.13477658 32.89192774 2.1328125 34.53125 C2.13483673 35.29078979 2.13686096 36.05032959 2.13894653 36.83288574 C2.12075536 40.99349101 1.81229149 44.91837643 1 49 C-1.56162537 45.15756194 -0.99703821 42.39266166 -0.625 38 C-0.15444885 31.2847001 0.1209926 24.60742442 0.125 17.875 C0.12935059 17.10671875 0.13370117 16.3384375 0.13818359 15.546875 C0.12923432 11.81096202 -0.05824154 8.21085944 -0.5703125 4.5078125 C-0.71210938 3.35023437 -0.85390625 2.19265625 -1 1 C-0.67 0.67 -0.34 0.34 0 0 Z " fill="#FBE97A" transform="translate(426,116)"/>
<path d="M0 0 C0.33 0 0.66 0 1 0 C1 8.58 1 17.16 1 26 C3.31 26.33 5.62 26.66 8 27 C7.67 27.99 7.34 28.98 7 30 C7.99 30 8.98 30 10 30 C10.33 28.68 10.66 27.36 11 26 C11.66 26 12.32 26 13 26 C13.33 25.01 13.66 24.02 14 23 C13.25 28.75 13.25 28.75 11 31 C4.9136953 31.67625608 4.9136953 31.67625608 1.79785156 29.37011719 C-0.53595013 26.29345412 -0.46292635 24.53509646 -0.390625 20.703125 C-0.37773437 19.49785156 -0.36484375 18.29257812 -0.3515625 17.05078125 C-0.31804687 15.79652344 -0.28453125 14.54226563 -0.25 13.25 C-0.23195313 11.98027344 -0.21390625 10.71054687 -0.1953125 9.40234375 C-0.14817153 6.26746923 -0.08237664 3.1341144 0 0 Z " fill="#56452C" transform="translate(312,352)"/>
<path d="M0 0 C6.75 -0.125 6.75 -0.125 9 1 C9 1.99 9 2.98 9 4 C9.99 4.66 10.98 5.32 12 6 C12 6.66 12 7.32 12 8 C13.32 8.33 14.64 8.66 16 9 C16 9.99 16 10.98 16 12 C16.639375 12.268125 17.27875 12.53625 17.9375 12.8125 C20 14 20 14 21 17 C20.34 17.66 19.68 18.32 19 19 C18.57589844 18.40832031 18.15179688 17.81664063 17.71484375 17.20703125 C13.89040139 12.05454077 10.34070198 8.52486331 5 5 C4.67 4.34 4.34 3.68 4 3 C1.98330173 1.86649466 1.98330173 1.86649466 0 1 C0 0.67 0 0.34 0 0 Z " fill="#F8EB7E" transform="translate(330,96)"/>
<path d="M0 0 C5 2 5 2 7.125 3 C10.97976901 4.34078922 14.76707543 4.71130193 18.8125 5.125 C19.99489258 5.25455078 19.99489258 5.25455078 21.20117188 5.38671875 C23.13343084 5.59751064 25.06663263 5.79962896 27 6 C27 6.66 27 7.32 27 8 C17.05934272 8.58570157 8.01644198 7.50822099 -1 3 C-0.67 2.01 -0.34 1.02 0 0 Z " fill="#F8E876" transform="translate(281,196)"/>
<path d="M0 0 C0.99 1.32 1.98 2.64 3 4 C2.360625 4.9075 1.72125 5.815 1.0625 6.75 C-0.66701758 9.47530043 -1.35301369 10.98073055 -2 14 C-2.66 14.66 -3.32 15.32 -4 16 C-4.7136591 18.31939207 -5.3747292 20.65523449 -6 23 C-6.65572791 25.00361307 -7.31875294 27.00491933 -8 29 C-8.66 29 -9.32 29 -10 29 C-7.68177836 18.9543729 -4.42314349 9.31683416 0 0 Z " fill="#FCEB7D" transform="translate(197,85)"/>
<path d="M0 0 C0.99 1.32 1.98 2.64 3 4 C-3.01651793 10.73540335 -8.97462506 17.28307598 -16 23 C-16.33 22.34 -16.66 21.68 -17 21 C-16.01 19.515 -16.01 19.515 -15 18 C-14.01 18 -13.02 18 -12 18 C-12 17.34 -12 16.68 -12 16 C-9.8939743 13.78013508 -7.72802738 11.66488215 -5.46875 9.6015625 C-3.80606599 7.7885294 -2.86673089 6.03002015 -1.8125 3.8125 C-1.46832031 3.09707031 -1.12414062 2.38164062 -0.76953125 1.64453125 C-0.38861328 0.83048828 -0.38861328 0.83048828 0 0 Z " fill="#FCEE83" transform="translate(379,193)"/>
<path d="M0 0 C0.598125 0.20625 1.19625 0.4125 1.8125 0.625 C1.1525 1.285 0.4925 1.945 -0.1875 2.625 C-1.0112956 4.58628755 -1.0112956 4.58628755 -1.1875 6.625 C-0.5275 7.285 0.1325 7.945 0.8125 8.625 C-0.5075 9.945 -1.8275 11.265 -3.1875 12.625 C-2.5275 12.625 -1.8675 12.625 -1.1875 12.625 C-1.5175 13.285 -1.8475 13.945 -2.1875 14.625 C-4.25 13.1875 -4.25 13.1875 -6.1875 10.625 C-6.39765873 7.51133253 -6.14632129 4.59906844 -5.1875 1.625 C-2.1875 -0.375 -2.1875 -0.375 0 0 Z " fill="#372B1B" transform="translate(384.1875,362.375)"/>
<path d="M0 0 C0.99 0.66 1.98 1.32 3 2 C1.71283353 3.00578589 0.42011342 4.00446798 -0.875 5 C-1.59429687 5.556875 -2.31359375 6.11375 -3.0546875 6.6875 C-5 8 -5 8 -7 8 C-7 8.66 -7 9.32 -7 10 C-12.17578125 13.22265625 -12.17578125 13.22265625 -14 14 C-14.99 13.67 -15.98 13.34 -17 13 C-12.752291 9.54873643 -8.38680595 6.27048158 -4 3 C-2.6663884 2.00037113 -1.332977 1.00047494 0 0 Z " fill="#FCEC7A" transform="translate(363,198)"/>
<path d="M0 0 C4.05606165 0.46800711 7.46588679 0.87953208 11 3 C5.55464391 6.38495108 0.32278971 6.67373505 -6 7 C-5.36578125 6.89816406 -4.7315625 6.79632813 -4.078125 6.69140625 C-3.39234375 6.46324219 -2.7065625 6.23507812 -2 6 C-0.6954344 3.00384054 -0.6954344 3.00384054 0 0 Z " fill="#392B20" transform="translate(477,376)"/>
<path d="M0 0 C2.16874252 0.50603992 3.99967627 0.99983813 6 2 C6.2519555 5.02346601 6.20421041 6.6402007 4.6875 9.3125 C4.130625 9.869375 3.57375 10.42625 3 11 C2.01 11 1.02 11 0 11 C-0.84098656 6.98195309 -1.05404945 3.98196457 0 0 Z " fill="#271F10" transform="translate(254,370)"/>
<path d="M0 0 C0.66 0 1.32 0 2 0 C3.55078125 2.34375 3.55078125 2.34375 5.3125 5.5 C8.09674945 10.41612245 10.97306149 15.23027871 14 20 C13.34 20.66 12.68 21.32 12 22 C11.9175 21.38125 11.835 20.7625 11.75 20.125 C11.19392091 17.82618538 11.19392091 17.82618538 9 16.8125 C8.34 16.544375 7.68 16.27625 7 16 C6 15 6 15 5.9375 12.4375 C5.958125 11.633125 5.97875 10.82875 6 10 C5.34 10 4.68 10 4 10 C3.67 8.02 3.34 6.04 3 4 C2.01 3.67 1.02 3.34 0 3 C0 2.01 0 1.02 0 0 Z " fill="#FBEB89" transform="translate(206,188)"/>
<path d="M0 0 C0.33 0 0.66 0 1 0 C1.25 2.3125 1.25 2.3125 1 5 C-0.78697551 7.15926208 -2.17224412 7.87841815 -4.94140625 8.28515625 C-8.15162797 8.42113249 -10.37927478 8.46554391 -13 6.5 C-13.33 6.005 -13.66 5.51 -14 5 C-13.67 4.01 -13.34 3.02 -13 2 C-12.67 2.66 -12.34 3.32 -12 4 C-9.1490712 3.2981424 -9.1490712 3.2981424 -8 2 C-7.34 2 -6.68 2 -6 2 C-6 3.32 -6 4.64 -6 6 C-5.01 6 -4.02 6 -3 6 C-2.690625 5.38125 -2.38125 4.7625 -2.0625 4.125 C-1.375 2.75 -0.6875 1.375 0 0 Z " fill="#3D3221" transform="translate(260,375)"/>
<path d="M0 0 C-5.78560849 4.77786931 -11.54128358 9.17261249 -18 13 C-18.33 12.01 -18.66 11.02 -19 10 C-12.25 6 -12.25 6 -10 6 C-9.773125 5.21625 -9.54625 4.4325 -9.3125 3.625 C-8 1 -8 1 -5.5625 -0.375 C-3 -1 -3 -1 0 0 Z " fill="#FBEC87" transform="translate(387,233)"/>
<path d="M0 0 C0.66 0 1.32 0 2 0 C3.70994772 7.7558343 4.24923458 15.06603268 4 23 C3.34 22.67 2.68 22.34 2 22 C0.2536818 14.75601341 -0.25164681 7.423581 0 0 Z " fill="#FAEB80" transform="translate(342,148)"/>
<path d="M0 0 C2.86724686 0.57344937 3.8614515 0.8614515 6 3 C6 3.99 6 4.98 6 6 C6.66 6 7.32 6 8 6 C12 10.47058824 12 10.47058824 12 13 C12.99 13.33 13.98 13.66 15 14 C15 14.66 15 15.32 15 16 C11.87780873 15.69348351 10.94088539 14.9389687 8.7109375 12.63671875 C7.55464844 11.17685547 7.55464844 11.17685547 6.375 9.6875 C5.59898437 8.72199219 4.82296875 7.75648438 4.0234375 6.76171875 C2.39073986 4.5333071 1.11050524 2.51356294 0 0 Z " fill="#F9E675" transform="translate(206,210)"/>
<path d="M0 0 C6.27635464 7.47185077 7.1610467 15.6592915 7 25 C4.90284215 21.85426323 4.47995441 19.98543749 3.875 16.3125 C3.70742188 15.31863281 3.53984375 14.32476562 3.3671875 13.30078125 C3.24601562 12.54152344 3.12484375 11.78226563 3 11 C2.67 11 2.34 11 2 11 C2 9.35 2 7.7 2 6 C1.34 6 0.68 6 0 6 C-1 3 -1 3 0 0 Z " fill="#F8E880" transform="translate(363,112)"/>
<path d="M0 0 C7.75 -0.125 7.75 -0.125 10 1 C10 1.99 10 2.98 10 4 C10.763125 4.268125 11.52625 4.53625 12.3125 4.8125 C14.87380884 5.94424112 16.19692938 6.91223401 18 9 C17.67 9.66 17.34 10.32 17 11 C14.72896609 9.54197823 12.45816565 8.08359508 10.1875 6.625 C9.54490234 6.2125 8.90230469 5.8 8.24023438 5.375 C5.48042011 3.60185508 2.72947292 1.81964862 0 0 Z " fill="#F8EB8F" transform="translate(337,68)"/>
<path d="M0 0 C6.27 0 12.54 0 19 0 C18.67 0.99 18.34 1.98 18 3 C11.59370576 3.20852314 6.07027358 3.1583195 0 1 C0 0.67 0 0.34 0 0 Z " fill="#FEF174" transform="translate(297,19)"/>
<path d="M0 0 C5.59305858 1.39826464 9.71990921 4.24087492 14 8 C14.33 8.66 14.66 9.32 15 10 C13.35 10 11.7 10 10 10 C9.34 8.68 8.68 7.36 8 6 C7.34 6 6.68 6 6 6 C6 5.34 6 4.68 6 4 C4.68 4.33 3.36 4.66 2 5 C1.67 4.01 1.34 3.02 1 2 C0.34 1.67 -0.32 1.34 -1 1 C-0.67 0.67 -0.34 0.34 0 0 Z " fill="#36291E" transform="translate(481,313)"/>
<path d="M0 0 C-7.21818942 4.17249281 -13.66519805 7.72858953 -22 9 C-21.67 8.01 -21.34 7.02 -21 6 C-19.35 6 -17.7 6 -16 6 C-15.67 5.34 -15.34 4.68 -15 4 C-13.375 3.0625 -13.375 3.0625 -11 2 C-9.845 1.443125 -8.69 0.88625 -7.5 0.3125 C-3.96592988 -1.01277629 -3.3403666 -1.09147944 0 0 Z " fill="#F9EA7E" transform="translate(367,247)"/>
<path d="M0 0 C1.32 0 2.64 0 4 0 C4 0.66 4 1.32 4 2 C4.66 2 5.32 2 6 2 C6 2.66 6 3.32 6 4 C6.99 4.33 7.98 4.66 9 5 C10.66666667 7 12.33333333 9 14 11 C14.99 11.33 15.98 11.66 17 12 C17 13.65 17 15.3 17 17 C11.33333333 11.33333333 5.66666667 5.66666667 0 0 Z " fill="#FBED85" transform="translate(375,56)"/>
<path d="M0 0 C0.86625 0.2784375 0.86625 0.2784375 1.75 0.5625 C4.20692525 1.04023546 5.64397534 0.75729364 8 0 C9.32 1.65 10.64 3.3 12 5 C9.19084526 6.40457737 7.11189466 6.24895157 4 6 C1.625 4.6875 1.625 4.6875 0 3 C0 2.01 0 1.02 0 0 Z " fill="#2A1D0C" transform="translate(203,377)"/>
<path d="M0 0 C6.95365789 1.78559482 12.87314903 4.2558133 19 8 C18.34 8.66 17.68 9.32 17 10 C14.97954558 9.39816251 12.97888961 8.72693904 11 8 C10.67 7.34 10.34 6.68 10 6 C8.68 6 7.36 6 6 6 C6 5.34 6 4.68 6 4 C4.02 3.34 2.04 2.68 0 2 C0 1.34 0 0.68 0 0 Z " fill="#F9ED88" transform="translate(325,81)"/>
<path d="M0 0 C0.99 0.66 1.98 1.32 3 2 C2.625 4.9375 2.625 4.9375 2 8 C1.01 8.495 1.01 8.495 0 9 C-0.33 9.99 -0.66 10.98 -1 12 C-1.99 12 -2.98 12 -4 12 C-4.66 10.35 -5.32 8.7 -6 7 C-5.38125 6.95875 -4.7625 6.9175 -4.125 6.875 C-3.42375 6.58625 -2.7225 6.2975 -2 6 C-0.6954344 3.00384054 -0.6954344 3.00384054 0 0 Z " fill="#150905" transform="translate(323,370)"/>
<path d="M0 0 C3.49873271 1.39655297 4.70891831 2.71260484 6.25 6.125 C6.58515625 6.84945313 6.9203125 7.57390625 7.265625 8.3203125 C7.62914063 9.15175781 7.62914063 9.15175781 8 10 C4.28272326 11.13583456 2.52948291 10.66670026 -1 9 C-0.34 8.67 0.32 8.34 1 8 C0.67 7.01 0.34 6.02 0 5 C0 3.33333333 0 1.66666667 0 0 Z " fill="#372B1C" transform="translate(74,317)"/>
<path d="M0 0 C5.75 1.625 5.75 1.625 8 5 C8.99 5.33 9.98 5.66 11 6 C11 6.66 11 7.32 11 8 C11.99 8 12.98 8 14 8 C14.33 9.65 14.66 11.3 15 13 C11.25928847 10.60210799 7.66886284 8.05669084 4.125 5.375 C3.34382812 4.78460938 2.56265625 4.19421875 1.7578125 3.5859375 C1.17773438 3.06257812 0.59765625 2.53921875 0 2 C0 1.34 0 0.68 0 0 Z " fill="#F9EB7D" transform="translate(222,228)"/>
<path d="M0 0 C0.75 1.75 0.75 1.75 1 4 C-0.79908469 6.33214682 -2.29675803 7.69233164 -5 8.875 C-7.52392246 9.03274515 -8.86640881 8.29539465 -11 7 C-8.77174356 4.77174356 -7.34238372 4.30760631 -4.375 3.375 C-3.55773437 3.11460937 -2.74046875 2.85421875 -1.8984375 2.5859375 C-1.27195313 2.39257812 -0.64546875 2.19921875 0 2 C0 1.34 0 0.68 0 0 Z " fill="#4E453A" transform="translate(196,375)"/>
<path d="M0 0 C0.66 0 1.32 0 2 0 C2.50636607 1.74816858 3.00484619 3.49862263 3.5 5.25 C3.7784375 6.22453125 4.056875 7.1990625 4.34375 8.203125 C5 11 5 11 5 15 C4.01 15 3.02 15 2 15 C-0.59227518 10.13948404 -0.18689553 5.34728867 0 0 Z " fill="#FAEB7E" transform="translate(227,156)"/>
<path d="M0 0 C8.78843098 -0.62774507 16.60314556 1.69215289 25 4 C25 4.99 25 5.98 25 7 C23.824375 6.54625 22.64875 6.0925 21.4375 5.625 C15.76497564 3.6918037 9.98867153 3.14465328 4.0625 2.52734375 C3.051875 2.35332031 2.04125 2.17929688 1 2 C0.67 1.34 0.34 0.68 0 0 Z " fill="#FBED83" transform="translate(282,116)"/>
<path d="M0 0 C0.33 1.32 0.66 2.64 1 4 C-0.26257233 5.17560179 -1.53537084 6.34022865 -2.8125 7.5 C-3.52019531 8.1496875 -4.22789062 8.799375 -4.95703125 9.46875 C-7 11 -7 11 -10 11 C-9.64701919 8.0991395 -9.11271704 7.10483324 -6.93359375 5.078125 C-6.10988281 4.47484375 -5.28617188 3.8715625 -4.4375 3.25 C-3.61121094 2.63640625 -2.78492188 2.0228125 -1.93359375 1.390625 C-1.29550781 0.93171875 -0.65742188 0.4728125 0 0 Z " fill="#F9EC7F" transform="translate(235,41)"/>
<path d="M0 0 C1.439735 0.14033578 2.88337149 0.24416857 4.328125 0.31640625 C5.52695312 0.37924805 5.52695312 0.37924805 6.75 0.44335938 C7.9875 0.50233398 7.9875 0.50233398 9.25 0.5625 C10.09046875 0.60568359 10.9309375 0.64886719 11.796875 0.69335938 C13.86440671 0.79908543 15.93218281 0.90001295 18 1 C17.67 1.66 17.34 2.32 17 3 C5.615 2.505 5.615 2.505 -6 2 C-6.33 2.99 -6.66 3.98 -7 5 C-7.33 3.68 -7.66 2.36 -8 1 C-4.78950325 -0.94923017 -3.53781817 -0.96069363 0 0 Z " fill="#FCEC7B" transform="translate(264,145)"/>
<path d="M0 0 C12.21 0 24.42 0 37 0 C35.68 0.99 34.36 1.98 33 3 C32.01 2.67 31.02 2.34 30 2 C27.7174301 1.84854901 25.43112294 1.75113021 23.14453125 1.68359375 C22.48289474 1.66281265 21.82125824 1.64203156 21.13957214 1.62062073 C19.03065148 1.55535273 16.92160865 1.49634656 14.8125 1.4375 C13.38084685 1.39429311 11.94920596 1.35067812 10.51757812 1.30664062 C7.01184846 1.19969494 3.50598214 1.09836359 0 1 C0 0.67 0 0.34 0 0 Z " fill="#FDF68F" transform="translate(255,105)"/>
<path d="M0 0 C0.66 0 1.32 0 2 0 C0.70931268 4.63288815 -1.0438844 7.69753944 -4.125 11.375 C-5.21167969 12.68597656 -5.21167969 12.68597656 -6.3203125 14.0234375 C-7.15175781 15.00183594 -7.15175781 15.00183594 -8 16 C-8.64453125 14.203125 -8.64453125 14.203125 -9 12 C-6.6875 8.75 -6.6875 8.75 -4 6 C-3.34 6 -2.68 6 -2 6 C-1.855625 5.195625 -1.71125 4.39125 -1.5625 3.5625 C-1 1 -1 1 0 0 Z " fill="#F8EB88" transform="translate(361,170)"/>
<path d="M0 0 C-3.13642175 2.53326372 -6.25994799 4.47344816 -10 6 C-12.875 5.6875 -12.875 5.6875 -15 5 C-10.87384475 1.53402959 -5.43913747 -2.39322049 0 0 Z " fill="#FCEE7D" transform="translate(267,27)"/>
<path d="M0 0 C0 0.33 0 0.66 0 1 C-4.51815281 1.88277755 -8.77512694 2.10589503 -13.375 2.0625 C-15.24285156 2.04896484 -15.24285156 2.04896484 -17.1484375 2.03515625 C-18.55996094 2.01775391 -18.55996094 2.01775391 -20 2 C-20.33 1.34 -20.66 0.68 -21 0 C-13.83834298 -1.1936095 -7.18957421 -1.43791484 0 0 Z " fill="#FBEFA0" transform="translate(320,261)"/>
<path d="M0 0 C0.66 0.33 1.32 0.66 2 1 C3.99960012 1.039992 6.00047242 1.04346799 8 1 C7.67 1.99 7.34 2.98 7 4 C1.39 3.34 -4.22 2.68 -10 2 C-6.33134759 -0.44576827 -4.32799657 -0.23607254 0 0 Z " fill="#FBEA83" transform="translate(287,258)"/>
<path d="M0 0 C4.13621084 3.3810038 7.81316569 6.66590534 11 11 C9.68 11.33 8.36 11.66 7 12 C7 11.34 7 10.68 7 10 C6.34 10 5.68 10 5 10 C5 9.34 5 8.68 5 8 C4.34 8 3.68 8 3 8 C0.95830515 5.09451118 0 3.59857954 0 0 Z " fill="#FAEC95" transform="translate(223,212)"/>
<path d="M0 0 C0.268125 0.78375 0.53625 1.5675 0.8125 2.375 C1.84814432 5.28114923 1.84814432 5.28114923 5 7 C5.6875 9.625 5.6875 9.625 6 12 C4.7010161 11.09373216 3.41106833 10.17450463 2.125 9.25 C1.40570313 8.73953125 0.68640625 8.2290625 -0.0546875 7.703125 C-2.10061524 5.91191116 -2.86659418 4.43018545 -4 2 C-4.66 1.67 -5.32 1.34 -6 1 C-4 0 -4 0 0 0 Z " fill="#FCEF92" transform="translate(245,203)"/>
<path d="M0 0 C0.70125 0.06703125 1.4025 0.1340625 2.125 0.203125 C4 0.75 4 0.75 6 3.75 C4.01432292 3.71744792 2.02864583 3.68489583 0.04296875 3.65234375 C-2.20305461 3.66736783 -2.20305461 3.66736783 -5 4.75 C-5.66 4.42 -6.32 4.09 -7 3.75 C-6.67 2.76 -6.34 1.77 -6 0.75 C-3.64710301 -0.4264485 -2.58181049 -0.28475851 0 0 Z " fill="#3D321F" transform="translate(521,311.25)"/>
<path d="M0 0 C0.92232422 0.28423828 0.92232422 0.28423828 1.86328125 0.57421875 C0.6181016 1.70455173 -0.63308527 2.82826911 -1.88671875 3.94921875 C-2.5828125 4.57570312 -3.27890625 5.2021875 -3.99609375 5.84765625 C-6.01852963 7.47889103 -7.70242516 8.67372803 -10.13671875 9.57421875 C-11.12671875 9.24421875 -12.11671875 8.91421875 -13.13671875 8.57421875 C-12.47671875 8.57421875 -11.81671875 8.57421875 -11.13671875 8.57421875 C-11.13671875 7.91421875 -11.13671875 7.25421875 -11.13671875 6.57421875 C-9.81671875 6.57421875 -8.49671875 6.57421875 -7.13671875 6.57421875 C-7.05421875 5.97609375 -6.97171875 5.37796875 -6.88671875 4.76171875 C-5.71970526 1.35792941 -3.71580798 -0.74044437 0 0 Z " fill="#F9E883" transform="translate(349.13671875,186.42578125)"/>
<path d="M0 0 C2.9375 0.8125 2.9375 0.8125 6 2 C6.33 2.99 6.66 3.98 7 5 C9.09719872 6.02281518 9.09719872 6.02281518 11.5625 6.6875 C12.38878906 6.93886719 13.21507812 7.19023437 14.06640625 7.44921875 C15.02353516 7.72185547 15.02353516 7.72185547 16 8 C16 8.66 16 9.32 16 10 C9.83643195 8.3341708 4.51740344 5.12194714 -1 2 C-0.67 1.34 -0.34 0.68 0 0 Z " fill="#FBEA82" transform="translate(243,243)"/>
<path d="M0 0 C0.99 0 1.98 0 3 0 C2.98839844 0.80824219 2.97679687 1.61648437 2.96484375 2.44921875 C2.95582031 3.51785156 2.94679687 4.58648437 2.9375 5.6875 C2.92589844 6.74324219 2.91429687 7.79898438 2.90234375 8.88671875 C2.99134575 11.72410262 3.35060162 14.2438919 4 17 C3.34 17 2.68 17 2 17 C1.66291092 14.91727106 1.33046884 12.83378963 1 10.75 C0.814375 9.58984375 0.62875 8.4296875 0.4375 7.234375 C0 4 0 4 0 0 Z " fill="#FBEE82" transform="translate(215,148)"/>
<path d="M0 0 C7.34117647 0.48941176 7.34117647 0.48941176 10.5 2.9375 C12 5 12 5 12 7 C7.52761347 5.58192622 3.28853694 3.88695626 -1 2 C-0.67 1.34 -0.34 0.68 0 0 Z " fill="#FAEC7F" transform="translate(283,147)"/>
<path d="M0 0 C4.35522853 0.50642192 7.44239635 1.38411497 11 4 C11 4.66 11 5.32 11 6 C12.32 6.33 13.64 6.66 15 7 C14.34 7.66 13.68 8.32 13 9 C12.22914063 8.57847656 11.45828125 8.15695313 10.6640625 7.72265625 C9.15972656 6.90087891 9.15972656 6.90087891 7.625 6.0625 C6.62726563 5.51722656 5.62953125 4.97195312 4.6015625 4.41015625 C3.07929654 3.5850241 1.54871217 2.77435609 0 2 C0 1.34 0 0.68 0 0 Z " fill="#FBED87" transform="translate(353,41)"/>
<path d="M0 0 C2.05078125 0.03255208 4.1015625 0.06510417 6.15234375 0.09765625 C2.89044118 2.27225797 0.45783147 2.87413534 -3.34765625 3.72265625 C-5.0646875 4.11324219 -5.0646875 4.11324219 -6.81640625 4.51171875 C-9.84765625 5.09765625 -9.84765625 5.09765625 -12.84765625 5.09765625 C-12.84765625 4.43765625 -12.84765625 3.77765625 -12.84765625 3.09765625 C-12.13738281 2.96488281 -11.42710937 2.83210938 -10.6953125 2.6953125 C-9.77621094 2.51871094 -8.85710937 2.34210938 -7.91015625 2.16015625 C-6.53537109 1.89912109 -6.53537109 1.89912109 -5.1328125 1.6328125 C-2.83347056 1.09433413 -2.25681537 0.119282 0 0 Z " fill="#FBED85" transform="translate(338.84765625,255.90234375)"/>
<path d="M0 0 C1.65 0 3.3 0 5 0 C5 0.66 5 1.32 5 2 C7.97 2 10.94 2 14 2 C14.33 3.32 14.66 4.64 15 6 C9.22621075 5.5188509 5.04140164 3.81532819 0 1 C0 0.67 0 0.34 0 0 Z " fill="#F8EA85" transform="translate(266,224)"/>
<path d="M0 0 C0.33 0 0.66 0 1 0 C2.22517308 5.66642551 2.09228867 11.23708518 2 17 C1.34 16.67 0.68 16.34 0 16 C-1.0271168 10.96712766 -1.17620109 6.10983163 -1 1 C-0.67 0.67 -0.34 0.34 0 0 Z " fill="#FBEC84" transform="translate(397,122)"/>
<path d="M0 0 C4.70270446 2.12741392 8.16393369 4.62060825 12 8 C9 9 9 9 6 7.8125 C3.12023857 6.07264413 1.66982258 4.87580555 0 2 C0 1.34 0 0.68 0 0 Z " fill="#FAEE88" transform="translate(353,62)"/>
<path d="M0 0 C1.33877662 4.01632987 0.49049413 6.09632491 -1 10 C-3 11.3125 -3 11.3125 -5 12 C-5.66 12.66 -6.32 13.32 -7 14 C-6.44010697 10.00987629 -5.24330232 7.4744948 -2.9375 4.1875 C-2.38964844 3.39730469 -1.84179688 2.60710937 -1.27734375 1.79296875 C-0.64505859 0.90544922 -0.64505859 0.90544922 0 0 Z " fill="#413627" transform="translate(328,323)"/>
<path d="M0 0 C0.66 0.99 1.32 1.98 2 3 C1.690625 3.5775 1.38125 4.155 1.0625 4.75 C-0.07077603 6.9207821 -0.07077603 6.9207821 -0.4375 9.125 C-1 11 -1 11 -4 13 C-4 12.34 -4 11.68 -4 11 C-4.66 10.67 -5.32 10.34 -6 10 C-4.02 6.7 -2.04 3.4 0 0 Z " fill="#FDED84" transform="translate(204,73)"/>
<path d="M0 0 C1.63814448 2.45721672 2.61952199 4.34567811 3.625 7.0625 C3.88539063 7.75472656 4.14578125 8.44695312 4.4140625 9.16015625 C5 11 5 11 5 13 C3 13 3 13 1.4375 11.9375 C-0.67463772 9.09070568 -0.75115827 6.48378428 -1 3 C-0.67 2.01 -0.34 1.02 0 0 Z " fill="#FAEA85" transform="translate(419,94)"/>
<path d="M0 0 C0.33 0.99 0.66 1.98 1 3 C-0.53169336 5.78327158 -2.55010891 7.98816891 -5 10 C-8.375 10.4375 -8.375 10.4375 -11 10 C-9.68 9.67 -8.36 9.34 -7 9 C-7 8.01 -7 7.02 -7 6 C-6.01 6 -5.02 6 -4 6 C-3.67 5.01 -3.34 4.02 -3 3 C-2.01 2.67 -1.02 2.34 0 2 C0 1.34 0 0.68 0 0 Z " fill="#4A3B2B" transform="translate(102,355)"/>
<path d="M0 0 C0.99 0.495 0.99 0.495 2 1 C2.33 1.99 2.66 2.98 3 4 C7.95 2.515 7.95 2.515 13 1 C13 1.99 13 2.98 13 4 C8.82262526 5.59138085 5.46839215 6.21278058 1 6 C0.67 4.02 0.34 2.04 0 0 Z " fill="#FCEB7C" transform="translate(316,186)"/>
<path d="M0 0 C2.30854925 2.12333613 3.78412576 4.13612842 5.1875 6.9375 C5.53167969 7.60652344 5.87585938 8.27554688 6.23046875 8.96484375 C7 11 7 11 7 15 C6.34 15 5.68 15 5 15 C3.50178941 11.62902617 3 9.79557881 3 6 C2.34 6 1.68 6 1 6 C0.67 4.02 0.34 2.04 0 0 Z " fill="#F8EA81" transform="translate(386,97)"/>
<path d="M0 0 C2.40785992 3.2104799 3.68197635 5.35008834 5 9 C3.02 9.33 1.04 9.66 -1 10 C-0.67 6.7 -0.34 3.4 0 0 Z " fill="#FCED83" transform="translate(411,78)"/>
<path d="M0 0 C4.29 1.65 8.58 3.3 13 5 C13 5.33 13 5.66 13 6 C7.76824163 6.38281159 4.62197306 5.21854707 0 3 C0 2.01 0 1.02 0 0 Z " fill="#FBEF8C" transform="translate(338,55)"/>
<path d="M0 0 C0.33 1.32 0.66 2.64 1 4 C-2.45245824 6.30163882 -3.94738713 6.34490322 -8 6 C-8.66 5.34 -9.32 4.68 -10 4 C-8.35 4 -6.7 4 -5 4 C-4.67 3.01 -4.34 2.02 -4 1 C-2 0 -2 0 0 0 Z " fill="#362A19" transform="translate(145,377)"/>
<path d="M0 0 C0.66 0.66 1.32 1.32 2 2 C0.02 4.97 0.02 4.97 -2 8 C-5.875 6.25 -5.875 6.25 -7 4 C-4.69 2.68 -2.38 1.36 0 0 Z " fill="#3A2E22" transform="translate(417,364)"/>
<path d="M0 0 C0.33 0 0.66 0 1 0 C1 2.97 1 5.94 1 9 C-0.65 8.67 -2.3 8.34 -4 8 C-4 6.35 -4 4.7 -4 3 C-2.68 2.67 -1.36 2.34 0 2 C0 1.34 0 0.68 0 0 Z " fill="#1A0D05" transform="translate(429,360)"/>
<path d="M0 0 C0 0.66 0 1.32 0 2 C-0.99 2 -1.98 2 -3 2 C-3 2.66 -3 3.32 -3 4 C-6.3125 4.6875 -6.3125 4.6875 -10 5 C-11.73046875 3.51953125 -11.73046875 3.51953125 -13 2 C-11.20873548 1.66451233 -9.41697413 1.33167645 -7.625 1 C-6.62726563 0.814375 -5.62953125 0.62875 -4.6015625 0.4375 C-2 0 -2 0 0 0 Z " fill="#FBEE85" transform="translate(330,218)"/>
<path d="M0 0 C1.485 0.99 1.485 0.99 3 2 C3.29296875 4.6015625 3.29296875 4.6015625 3.1875 7.625 C3.16042969 8.62789062 3.13335937 9.63078125 3.10546875 10.6640625 C3.07066406 11.43492187 3.03585937 12.20578125 3 13 C2.34 12.67 1.68 12.34 1 12 C0.33203125 9.53125 0.33203125 9.53125 -0.1875 6.5 C-0.36667969 5.4996875 -0.54585938 4.499375 -0.73046875 3.46875 C-0.81941406 2.6540625 -0.90835937 1.839375 -1 1 C-0.67 0.67 -0.34 0.34 0 0 Z " fill="#FAEB82" transform="translate(356,125)"/>
<path d="M0 0 C6.04801071 0.54981916 11.30601106 1.90429574 17 4 C16.67 4.66 16.34 5.32 16 6 C15.43152344 5.79503906 14.86304688 5.59007813 14.27734375 5.37890625 C9.4915546 3.70907331 5.04056799 2.53623064 0 2 C0 1.34 0 0.68 0 0 Z " fill="#FCEE8C" transform="translate(320,62)"/>
<path d="M0 0 C2.64 0.66 5.28 1.32 8 2 C7.67 3.65 7.34 5.3 7 7 C6.01 7 5.02 7 4 7 C2.02 3.535 2.02 3.535 0 0 Z " fill="#403423" transform="translate(295,328)"/>
<path d="M0 0 C2.31309705 0.11341637 4.62550185 0.24103807 6.9375 0.375 C8.86916016 0.47941406 8.86916016 0.47941406 10.83984375 0.5859375 C12.40412109 0.79089844 12.40412109 0.79089844 14 1 C14.33 1.66 14.66 2.32 15 3 C13.91332031 2.96519531 13.91332031 2.96519531 12.8046875 2.9296875 C7.45421756 2.82981206 3.00553918 2.83544252 -2 5 C-2 4.34 -2 3.68 -2 3 C-1.34 3 -0.68 3 0 3 C0 2.01 0 1.02 0 0 Z " fill="#6F6551" transform="translate(396,323)"/>
<path d="M0 0 C0 0.66 0 1.32 0 2 C-1.9570868 2.67031719 -3.91571113 3.33614683 -5.875 4 C-6.96554687 4.37125 -8.05609375 4.7425 -9.1796875 5.125 C-12 6 -12 6 -14 6 C-14 5.34 -14 4.68 -14 4 C-11.09399739 2.74335022 -9.20395416 2 -6 2 C-6 1.34 -6 0.68 -6 0 C-2.25 -1.125 -2.25 -1.125 0 0 Z " fill="#FCEF8A" transform="translate(275,35)"/>
<path d="M0 0 C0.33 0 0.66 0 1 0 C1.125 2.875 1.125 2.875 1 6 C0.34 6.66 -0.32 7.32 -1 8 C-2.32 8 -3.64 8 -5 8 C-5 5 -5 5 -3.625 3.4375 C-3.08875 2.963125 -2.5525 2.48875 -2 2 C-1.34 1.34 -0.68 0.68 0 0 Z " fill="#302013" transform="translate(558,374)"/>
<path d="M0 0 C0.598125 0.20625 1.19625 0.4125 1.8125 0.625 C1.1525 1.285 0.4925 1.945 -0.1875 2.625 C-0.8300235 4.69374034 -0.8300235 4.69374034 -1.1875 6.625 C-2.1775 6.625 -3.1675 6.625 -4.1875 6.625 C-4.5175 4.975 -4.8475 3.325 -5.1875 1.625 C-2.1875 -0.375 -2.1875 -0.375 0 0 Z " fill="#493F32" transform="translate(384.1875,362.375)"/>
<path d="M0 0 C3.80635497 3.20760251 7.54563567 6.40746109 11 10 C10.01 10.33 9.02 10.66 8 11 C8 10.34 8 9.68 8 9 C7.4225 8.7525 6.845 8.505 6.25 8.25 C3.65091342 6.80606301 1.92163162 5.26478013 0 3 C0 2.01 0 1.02 0 0 Z " fill="#FBEE81" transform="translate(247,194)"/>
<path d="M0 0 C2.0625 0.4375 2.0625 0.4375 4 1 C2.07848152 5.13126473 -0.04250209 8.53258866 -3 12 C-3 10.35 -3 8.7 -3 7 C-2.34 7 -1.68 7 -1 7 C-0.67 6.01 -0.34 5.02 0 4 C0.33 3.34 0.66 2.68 1 2 C0.34 1.67 -0.32 1.34 -1 1 C-0.67 0.67 -0.34 0.34 0 0 Z " fill="#625945" transform="translate(253,340)"/>
<path d="M0 0 C-0.99 1.98 -1.98 3.96 -3 6 C-3.33 5.34 -3.66 4.68 -4 4 C-4.66 4 -5.32 4 -6 4 C-6.33 4.66 -6.66 5.32 -7 6 C-7.99 4.68 -8.98 3.36 -10 2 C-6.5980513 -0.09350689 -3.94727588 -0.17942163 0 0 Z " fill="#130A03" transform="translate(347,316)"/>
<path d="M0 0 C-0.99 0.33 -1.98 0.66 -3 1 C-4.67067133 2.99665598 -6.33752986 4.99651034 -8 7 C-8.66 7 -9.32 7 -10 7 C-9.8125 4.6875 -9.8125 4.6875 -9 2 C-5.81738059 -0.58050222 -3.89040693 -1.5849806 0 0 Z " fill="#514B3F" transform="translate(123,312)"/>
<path d="M0 0 C-3.96 1.98 -7.92 3.96 -12 6 C-12.33 5.34 -12.66 4.68 -13 4 C-11.59248779 3.13083113 -10.1735479 2.28014851 -8.75 1.4375 C-7.96109375 0.96183594 -7.1721875 0.48617187 -6.359375 -0.00390625 C-4 -1 -4 -1 0 0 Z " fill="#F9EC83" transform="translate(356,221)"/>
<path d="M0 0 C0.66 0 1.32 0 2 0 C4.61046448 2.84777943 6.42676569 5.13066838 7 9 C6.01 9 5.02 9 4 9 C2.61328125 7.25 2.61328125 7.25 1.3125 5 C0.87550781 4.2575 0.43851563 3.515 -0.01171875 2.75 C-0.33785156 2.1725 -0.66398438 1.595 -1 1 C-0.67 0.67 -0.34 0.34 0 0 Z " fill="#FCEF80" transform="translate(229,189)"/>
<path d="M0 0 C2.475 0.495 2.475 0.495 5 1 C5 1.99 5 2.98 5 4 C7.475 4.99 7.475 4.99 10 6 C9.34 7.32 8.68 8.64 8 10 C7.67 9.34 7.34 8.68 7 8 C6.34 8 5.68 8 5 8 C3.7109375 6.25 3.7109375 6.25 2.375 4 C1.92898438 3.2575 1.48296875 2.515 1.0234375 1.75 C0.68570312 1.1725 0.34796875 0.595 0 0 Z " fill="#F7EB80" transform="translate(366,90)"/>
<path d="M0 0 C3.39192363 0.59283621 5.2107757 1.76743189 7.75 4.0625 C8.67039062 4.88427734 8.67039062 4.88427734 9.609375 5.72265625 C10.29773438 6.35494141 10.29773438 6.35494141 11 7 C10.67 7.66 10.34 8.32 10 9 C9.34 9 8.68 9 8 9 C8 8.34 8 7.68 8 7 C7.34 7 6.68 7 6 7 C5.34 6.01 4.68 5.02 4 4 C1.94996045 2.80767387 1.94996045 2.80767387 0 2 C0 1.34 0 0.68 0 0 Z " fill="#FDF089" transform="translate(379,44)"/>
<path d="M0 0 C1.11375 0.185625 2.2275 0.37125 3.375 0.5625 C6.82568861 1.31680657 6.82568861 1.31680657 9 0 C9 0.66 9 1.32 9 2 C9.66 2.33 10.32 2.66 11 3 C8.17116253 4.41441874 6.12623255 4.31900332 3 4 C1.125 2 1.125 2 0 0 Z " fill="#40331C" transform="translate(61,379)"/>
<path d="M0 0 C0.66 0 1.32 0 2 0 C4.28571429 8.42857143 4.28571429 8.42857143 4 13 C3.01 13.495 3.01 13.495 2 14 C1.34 9.38 0.68 4.76 0 0 Z " fill="#FDF28D" transform="translate(412,113)"/>
<path d="M0 0 C1.65 1.65 3.3 3.3 5 5 C4.67 5.66 4.34 6.32 4 7 C3.34 6.67 2.68 6.34 2 6 C1.67 6.66 1.34 7.32 1 8 C-0.5 6.625 -0.5 6.625 -2 5 C-2 4.34 -2 3.68 -2 3 C-1.34 3 -0.68 3 0 3 C0 2.01 0 1.02 0 0 Z " fill="#483D32" transform="translate(251,317)"/>
<path d="M0 0 C0.33 0 0.66 0 1 0 C1.36923077 5.53846154 1.36923077 5.53846154 -0.5 7.875 C-1.2425 8.431875 -1.2425 8.431875 -2 9 C-2.99 8.67 -3.98 8.34 -5 8 C-4.19185349 6.66402348 -3.37836819 5.331275 -2.5625 4 C-2.11003906 3.2575 -1.65757812 2.515 -1.19140625 1.75 C-0.79824219 1.1725 -0.40507812 0.595 0 0 Z " fill="#FBEB86" transform="translate(402,193)"/>
<path d="M0 0 C1.98 0.66 3.96 1.32 6 2 C6 2.99 6 3.98 6 5 C6.66 5 7.32 5 8 5 C8.33 6.32 8.66 7.64 9 9 C8.01 9.495 8.01 9.495 7 10 C5.83043409 8.52312468 4.66441854 7.04343707 3.5 5.5625 C2.8503125 4.73878906 2.200625 3.91507813 1.53125 3.06640625 C0 1 0 1 0 0 Z " fill="#FBEE8B" transform="translate(318,130)"/>
<path d="M0 0 C5.28 0 10.56 0 16 0 C16 0.33 16 0.66 16 1 C14.78763672 1.07347656 14.78763672 1.07347656 13.55078125 1.1484375 C12.48214844 1.22320312 11.41351563 1.29796875 10.3125 1.375 C8.72888672 1.47941406 8.72888672 1.47941406 7.11328125 1.5859375 C4.09322731 1.98760089 1.75921946 2.74069019 -1 4 C-0.67 2.68 -0.34 1.36 0 0 Z " fill="#FAED7D" transform="translate(209,88)"/>
<path d="M0 0 C3.3 1.65 6.6 3.3 10 5 C6 7 6 7 4 7 C4 6.34 4 5.68 4 5 C3.01 4.67 2.02 4.34 1 4 C0.67 2.68 0.34 1.36 0 0 Z " fill="#403524" transform="translate(457,364)"/>
<path d="M0 0 C0.66 0 1.32 0 2 0 C2.33 0.99 2.66 1.98 3 3 C2.01 4.485 2.01 4.485 1 6 C1 6.66 1 7.32 1 8 C-0.32 8.33 -1.64 8.66 -3 9 C-1.125 2.25 -1.125 2.25 0 0 Z " fill="#160801" transform="translate(140,361)"/>
<path d="M0 0 C0.66 0 1.32 0 2 0 C2 3.3 2 6.6 2 10 C1.01 10 0.02 10 -1 10 C-0.67 6.7 -0.34 3.4 0 0 Z " fill="#3C3226" transform="translate(256,328)"/>
<path d="M0 0 C6.4 0.49230769 6.4 0.49230769 9.4375 3.0625 C10.2109375 4.0215625 10.2109375 4.0215625 11 5 C10.01 5.495 10.01 5.495 9 6 C9 5.34 9 4.68 9 4 C7.68 4.33 6.36 4.66 5 5 C5 4.34 5 3.68 5 3 C2.525 2.01 2.525 2.01 0 1 C0 0.67 0 0.34 0 0 Z " fill="#4E4135" transform="translate(240,312)"/>
<path d="M0 0 C0.66 0 1.32 0 2 0 C1.68950274 1.43793392 1.3765224 2.8753318 1.0625 4.3125 C0.88847656 5.11300781 0.71445312 5.91351563 0.53515625 6.73828125 C0 9 0 9 -1 12 C-1.66 12 -2.32 12 -3 12 C-2.88541307 10.56163249 -2.75790884 9.12429034 -2.625 7.6875 C-2.55539062 6.88699219 -2.48578125 6.08648437 -2.4140625 5.26171875 C-2 3 -2 3 0 0 Z " fill="#FBEE86" transform="translate(394,167)"/>
<path d="M0 0 C1.46015291 0.28241641 2.91809793 0.57626614 4.375 0.875 C5.18710937 1.03742188 5.99921875 1.19984375 6.8359375 1.3671875 C9 2 9 2 11 4 C8.625 4.625 8.625 4.625 6 5 C5.34 4.34 4.68 3.68 4 3 C1.93125966 2.3574765 1.93125966 2.3574765 0 2 C0 1.34 0 0.68 0 0 Z " fill="#FBE977" transform="translate(283,136)"/>
<path d="M0 0 C0.33 0 0.66 0 1 0 C1 3.3 1 6.6 1 10 C0.01 10 -0.98 10 -2 10 C-2.17942163 6.05272412 -2.09350689 3.4019487 0 0 Z " fill="#FDEE80" transform="translate(186,130)"/>
<path d="M0 0 C0.66 0 1.32 0 2 0 C6 6.75 6 6.75 6 9 C3 8 3 8 1.3125 5.625 C0 3 0 3 0 0 Z " fill="#F6E97D" transform="translate(375,101)"/>
<path d="M0 0 C0.33 0.66 0.66 1.32 1 2 C1.66 2.33 2.32 2.66 3 3 C2.34 4.65 1.68 6.3 1 8 C-0.98 7.34 -2.96 6.68 -5 6 C-5 5.34 -5 4.68 -5 4 C-3.35 4 -1.7 4 0 4 C0 2.68 0 1.36 0 0 Z " fill="#0E0600" transform="translate(173,351)"/>
<path d="M0 0 C1.65 0.33 3.3 0.66 5 1 C3.93453047 3.13093906 2.70840281 4.36587557 1 6 C-0.32 4.68 -1.64 3.36 -3 2 C-2.01 2 -1.02 2 0 2 C0 1.34 0 0.68 0 0 Z " fill="#40372B" transform="translate(239,322)"/>
<path d="M0 0 C0.66 0.33 1.32 0.66 2 1 C1.51789063 1.47050781 1.03578125 1.94101562 0.5390625 2.42578125 C-0.09257812 3.04839844 -0.72421875 3.67101562 -1.375 4.3125 C-2.00148438 4.92738281 -2.62796875 5.54226563 -3.2734375 6.17578125 C-5.18086607 8.08812528 -5.18086607 8.08812528 -7 11 C-7.66 11 -8.32 11 -9 11 C-7.59155282 7.78475695 -5.89655214 5.67816132 -3.375 3.25 C-2.74335938 2.63640625 -2.11171875 2.0228125 -1.4609375 1.390625 C-0.73777344 0.70226562 -0.73777344 0.70226562 0 0 Z " fill="#584630" transform="translate(451,316)"/>
<path d="M0 0 C3.63 0.33 7.26 0.66 11 1 C9.515 2.485 9.515 2.485 8 4 C5.15124622 3.79846293 2.74900747 2.85624823 0 2 C0 1.34 0 0.68 0 0 Z " fill="#F7E884" transform="translate(267,255)"/>
<path d="M0 0 C0.66 0.33 1.32 0.66 2 1 C-0.19412227 4.46440358 -2.02694801 5.9074107 -6 7 C-6.99 6.67 -7.98 6.34 -9 6 C-6.03 4.02 -3.06 2.04 0 0 Z " fill="#F7EC94" transform="translate(370,228)"/>
<path d="M0 0 C0.99 0.33 1.98 0.66 3 1 C1.29374499 3.78388975 0.52373261 4.85384206 -2.6875 5.75 C-3.8321875 5.87375 -3.8321875 5.87375 -5 6 C-5.33 5.34 -5.66 4.68 -6 4 C-3.1875 1.9375 -3.1875 1.9375 0 0 Z " fill="#F8E785" transform="translate(352,206)"/>
<path d="M0 0 C0.66 0.33 1.32 0.66 2 1 C1.02526874 2.66926454 0.04510211 4.33535642 -0.9375 6 C-1.75541016 7.3921875 -1.75541016 7.3921875 -2.58984375 8.8125 C-3.05519531 9.534375 -3.52054687 10.25625 -4 11 C-4.33 11 -4.66 11 -5 11 C-5 9.35 -5 7.7 -5 6 C-4.01 5.67 -3.02 5.34 -2 5 C-2 3.68 -2 2.36 -2 1 C-1.34 0.67 -0.68 0.34 0 0 Z " fill="#FCF094" transform="translate(412,199)"/>
<path d="M0 0 C0.99 0.495 0.99 0.495 2 1 C2 1.99 2 2.98 2 4 C2.99 4.33 3.98 4.66 5 5 C6.1875 7.0625 6.1875 7.0625 7 9 C5.68 8.67 4.36 8.34 3 8 C3 7.34 3 6.68 3 6 C2.01 5.67 1.02 5.34 0 5 C0 3.35 0 1.7 0 0 Z " fill="#F8E985" transform="translate(264,167)"/>
<path d="M0 0 C0.66 0 1.32 0 2 0 C2.66 1.98 3.32 3.96 4 6 C2.35 6.66 0.7 7.32 -1 8 C-0.67 5.36 -0.34 2.72 0 0 Z " fill="#F8EB7A" transform="translate(339,141)"/>
<path d="M0 0 C7.42857143 1 7.42857143 1 11 2 C10.67 2.99 10.34 3.98 10 5 C6.7 4.01 3.4 3.02 0 2 C0 1.34 0 0.68 0 0 Z " fill="#F9ED8C" transform="translate(316,90)"/>
<path d="M0 0 C0.33 0 0.66 0 1 0 C0.88541307 1.43836751 0.75790884 2.87570966 0.625 4.3125 C0.55539062 5.11300781 0.48578125 5.91351563 0.4140625 6.73828125 C0 9 0 9 -2 12 C-2.66 12 -3.32 12 -4 12 C-2.66666667 8 -1.33333333 4 0 0 Z " fill="#FBF090" transform="translate(412,169)"/>
<path d="M0 0 C5.875 3.625 5.875 3.625 7 7 C6.34 7.66 5.68 8.32 5 9 C4.731875 8.38125 4.46375 7.7625 4.1875 7.125 C3.04443152 4.7004767 3.04443152 4.7004767 0 3 C0 2.01 0 1.02 0 0 Z " fill="#FBEE86" transform="translate(302,145)"/>
<path d="M0 0 C2.00720923 0.28674418 4.0085944 0.61866701 6 1 C2.65060119 3.02558881 0.13037449 3.21738987 -3.75 3.125 C-4.73484375 3.10695312 -5.7196875 3.08890625 -6.734375 3.0703125 C-7.85585938 3.03550781 -7.85585938 3.03550781 -9 3 C-9 2.67 -9 2.34 -9 2 C-6.94921875 1.77213542 -4.8984375 1.54427083 -2.84765625 1.31640625 C-0.98859771 1.18113386 -0.98859771 1.18113386 0 0 Z " fill="#FDF48D" transform="translate(313,29)"/>
<path d="M0 0 C1.33333333 2.66666667 2.66666667 5.33333333 4 8 C2.35 8.33 0.7 8.66 -1 9 C-1.33 7.35 -1.66 5.7 -2 4 C-1.34 4 -0.68 4 0 4 C0 2.68 0 1.36 0 0 Z " fill="#42381D" transform="translate(452,354)"/>
<path d="M0 0 C2.97 0.99 5.94 1.98 9 3 C8.34 3.66 7.68 4.32 7 5 C6.34 5 5.68 5 5 5 C5 4.34 5 3.68 5 3 C4.01 3.33 3.02 3.66 2 4 C1.01 3.01 0.02 2.02 -1 1 C-0.67 0.67 -0.34 0.34 0 0 Z " fill="#31251A" transform="translate(399,338)"/>
<path d="M0 0 C2 1.125 2 1.125 4 3 C4.25 6.1875 4.25 6.1875 4 9 C0 4.5 0 4.5 0 0 Z " fill="#453929" transform="translate(75,338)"/>
<path d="M0 0 C2.375 0.25 2.375 0.25 5 1 C6.3125 3.0625 6.3125 3.0625 7 5 C5.125 5.625 5.125 5.625 3 6 C2.34 5.34 1.68 4.68 1 4 C1.33 3.34 1.66 2.68 2 2 C1.34 2 0.68 2 0 2 C0 1.34 0 0.68 0 0 Z " fill="#140804" transform="translate(394,337)"/>
<path d="M0 0 C0.99 0 1.98 0 3 0 C3 0.99 3 1.98 3 3 C2.34 3 1.68 3 1 3 C1 3.99 1 4.98 1 6 C0.01 6.33 -0.98 6.66 -2 7 C-1.125 1.125 -1.125 1.125 0 0 Z " fill="#332216" transform="translate(331,319)"/>
<path d="M0 0 C2.86724686 0.57344937 3.8614515 0.8614515 6 3 C6.125 5.625 6.125 5.625 6 8 C1.125 3.375 1.125 3.375 0 0 Z " fill="#FBEC8B" transform="translate(206,210)"/>
<path d="M0 0 C1.25541557 3.76624671 0.37061958 5.37188934 -1 9 C-1.99 9 -2.98 9 -4 9 C-2.94124926 5.59687262 -1.99097846 2.98646769 0 0 Z " fill="#FAE97E" transform="translate(408,182)"/>
<path d="M0 0 C0.33 0 0.66 0 1 0 C0.67 3.3 0.34 6.6 0 10 C-1.32 9.67 -2.64 9.34 -4 9 C-3.34 9 -2.68 9 -2 9 C-2.04125 8.2575 -2.0825 7.515 -2.125 6.75 C-1.99601866 3.91241048 -1.42948778 2.41226062 0 0 Z " fill="#FAEB7E" transform="translate(307,182)"/>
<path d="M0 0 C1.1875 1.5625 1.1875 1.5625 2 4 C0.625 7.75 0.625 7.75 -1 11 C-1.66 11 -2.32 11 -3 11 C-1.125 3.375 -1.125 3.375 0 0 Z " fill="#FCEB8E" transform="translate(190,103)"/>
<path d="M0 0 C0.66 0.33 1.32 0.66 2 1 C1.01 3.64 0.02 6.28 -1 9 C-1.99 9 -2.98 9 -4 9 C-3.67 7.35 -3.34 5.7 -3 4 C-2.34 4 -1.68 4 -1 4 C-0.67 2.68 -0.34 1.36 0 0 Z " fill="#FAE675" transform="translate(206,92)"/>
<path d="M0 0 C0.598125 0.165 1.19625 0.33 1.8125 0.5 C4.11344336 1.1114124 4.11344336 1.1114124 7 1 C6.67 2.32 6.34 3.64 6 5 C3.03 4.505 3.03 4.505 0 4 C0 2.68 0 1.36 0 0 Z " fill="#110500" transform="translate(135,377)"/>
<path d="M0 0 C1.32 0.99 2.64 1.98 4 3 C3.34 4.98 2.68 6.96 2 9 C-0.29013653 5.5647952 -0.17842973 4.014669 0 0 Z " fill="#130600" transform="translate(241,360)"/>
<path d="M0 0 C1.4606285 2.64738916 2 3.89448334 2 7 C0.35 7.33 -1.3 7.66 -3 8 C-2.01 5.36 -1.02 2.72 0 0 Z " fill="#453A24" transform="translate(156,320)"/>
<path d="M0 0 C2.88575819 0.39803561 3.82189513 0.79009069 5.75 3.0625 C6.1625 3.701875 6.575 4.34125 7 5 C4.625 5.125 4.625 5.125 2 5 C1.34 4.34 0.68 3.68 0 3 C0 2.01 0 1.02 0 0 Z " fill="#443A32" transform="translate(489,318)"/>
<path d="M0 0 C1.79068573 2.6860286 2.66055791 4.6626589 3.625 7.6875 C3.88539063 8.49574219 4.14578125 9.30398437 4.4140625 10.13671875 C4.60742188 10.75160156 4.80078125 11.36648437 5 12 C4.34 11.67 3.68 11.34 3 11 C3 10.01 3 9.02 3 8 C2.34 8 1.68 8 1 8 C-0.35439668 5.29120665 -0.06501451 2.99066732 0 0 Z " fill="#F8EC96" transform="translate(202,175)"/>
<path d="M0 0 C2.95183101 2.95183101 3.08663988 5.95511947 4 10 C3.01 10 2.02 10 1 10 C1 7.69 1 5.38 1 3 C0.34 3 -0.32 3 -1 3 C-0.67 2.01 -0.34 1.02 0 0 Z " fill="#F9EB82" transform="translate(197,158)"/>
<path d="M0 0 C2.18975773 3.28463659 2.99806563 6.20696275 4 10 C3.34 10.66 2.68 11.32 2 12 C-0.13586678 8.79619983 -0.23132175 7.98060033 -0.125 4.3125 C-0.10695313 3.50425781 -0.08890625 2.69601563 -0.0703125 1.86328125 C-0.04710937 1.24839844 -0.02390625 0.63351563 0 0 Z " fill="#FBEC8A" transform="translate(258,153)"/>
<path d="M0 0 C2.09749995 2.35968744 2.96905704 3.54616994 3.1875 6.75 C3.125625 7.4925 3.06375 8.235 3 9 C2.01 9.495 2.01 9.495 1 10 C-1.125 3.375 -1.125 3.375 0 0 Z " fill="#F6E881" transform="translate(247,154)"/>
<path d="M0 0 C4.67692308 1.47692308 4.67692308 1.47692308 6.3125 4.125 C6.539375 4.74375 6.76625 5.3625 7 6 C6.34 6.66 5.68 7.32 5 8 C2.525 4.04 2.525 4.04 0 0 Z " fill="#F5EB94" transform="translate(344,107)"/>
<path d="M0 0 C0.66 1.98 1.32 3.96 2 6 C-1.12301517 4.43849241 -4.0873706 2.94175293 -7 1 C-2.25 0 -2.25 0 0 0 Z " fill="#140701" transform="translate(410,370)"/>
<path d="M0 0 C0.99 0.33 1.98 0.66 3 1 C2.67 2.32 2.34 3.64 2 5 C-2.455 4.01 -2.455 4.01 -7 3 C-7 2.67 -7 2.34 -7 2 C-4.69 2 -2.38 2 0 2 C0 1.34 0 0.68 0 0 Z " fill="#43382A" transform="translate(237,355)"/>
<path d="M0 0 C1.99097846 2.98646769 2.94124926 5.59687262 4 9 C3.01 9 2.02 9 1 9 C0.814375 8.071875 0.814375 8.071875 0.625 7.125 C0.12802644 4.80879168 0.12802644 4.80879168 -2 3 C-1.34 2.01 -0.68 1.02 0 0 Z " fill="#4D422B" transform="translate(187,353)"/>
<path d="M0 0 C2.5 2.3125 2.5 2.3125 5 5 C5 5.99 5 6.98 5 8 C4.34 8 3.68 8 3 8 C3 7.34 3 6.68 3 6 C2.34 6 1.68 6 1 6 C0.67 4.02 0.34 2.04 0 0 Z " fill="#F8EB7C" transform="translate(241,187)"/>
<path d="M0 0 C0.33 2.64 0.66 5.28 1 8 C0.01 8.495 0.01 8.495 -1 9 C-1.66 6.36 -2.32 3.72 -3 1 C-1 0 -1 0 0 0 Z " fill="#F9EA7F" transform="translate(221,165)"/>
<path d="M0 0 C0.99 0.99 1.98 1.98 3 3 C2.34 4.98 1.68 6.96 1 9 C-0.61949011 6.42786866 -1.04408751 5.32330841 -0.625 2.25 C-0.41875 1.5075 -0.2125 0.765 0 0 Z " fill="#FCED79" transform="translate(385,157)"/>
<path d="M0 0 C2.475 0.495 2.475 0.495 5 1 C5 1.66 5 2.32 5 3 C5.99 3.33 6.98 3.66 8 4 C7.67 4.66 7.34 5.32 7 6 C5 6 5 6 3.5 4.5625 C3.005 4.046875 2.51 3.53125 2 3 C1.34 2.67 0.68 2.34 0 2 C0 1.34 0 0.68 0 0 Z " fill="#FCE986" transform="translate(311,124)"/>
<path d="M0 0 C2.875 -0.1875 2.875 -0.1875 6 0 C6.66 0.99 7.32 1.98 8 3 C6 4 6 4 2.875 3.0625 C1.92625 2.711875 0.9775 2.36125 0 2 C0 1.34 0 0.68 0 0 Z " fill="#FDF081" transform="translate(338,35)"/>
<path d="M0 0 C-1 2 -2 4 -3 6 C-3.99 6 -4.98 6 -6 6 C-6 5.01 -6 4.02 -6 3 C-2.66666667 0 -2.66666667 0 0 0 Z " fill="#130A0A" transform="translate(260,375)"/>
<path d="M0 0 C0.6875 1.75 0.6875 1.75 1 4 C-0.4375 6.25 -0.4375 6.25 -2 8 C-3.32 7.67 -4.64 7.34 -6 7 C-5.01 7 -4.02 7 -3 7 C-2.67 5.68 -2.34 4.36 -2 3 C-1.34 3 -0.68 3 0 3 C0 2.01 0 1.02 0 0 Z " fill="#4C4329" transform="translate(325,375)"/>
<path d="M0 0 C0.66 0.33 1.32 0.66 2 1 C-0.97 3.475 -0.97 3.475 -4 6 C-4.99 5.34 -5.98 4.68 -7 4 C-1.7265625 0.77734375 -1.7265625 0.77734375 0 0 Z " fill="#2E251F" transform="translate(461,375)"/>
<path d="M0 0 C1.32 0 2.64 0 4 0 C3.67 1.32 3.34 2.64 3 4 C2.34 4 1.68 4 1 4 C0.67 4.66 0.34 5.32 0 6 C-0.38218767 4.34385343 -0.71395102 2.67542976 -1 1 C-0.67 0.67 -0.34 0.34 0 0 Z " fill="#170804" transform="translate(497,359)"/>
<path d="M0 0 C0.66 1.32 1.32 2.64 2 4 C-0.475 5.485 -0.475 5.485 -3 7 C-3 3.48283697 -2.17554415 2.62878252 0 0 Z " fill="#493224" transform="translate(104,330)"/>
<path d="M0 0 C2.1875 0.3125 2.1875 0.3125 4 1 C4 1.66 4 2.32 4 3 C2.02 3.66 0.04 4.32 -2 5 C-2.33 4.34 -2.66 3.68 -3 3 C-1.75 1.4375 -1.75 1.4375 0 0 Z " fill="#130801" transform="translate(492,322)"/>
<path d="M0 0 C1.65 0 3.3 0 5 0 C3.86695008 3.39914975 2.87481525 4.05254451 0 6 C-1.24546405 3.50907189 -0.7767578 2.58919267 0 0 Z " fill="#1A0E03" transform="translate(164,312)"/>
<path d="M0 0 C0 1.32 0 2.64 0 4 C-1.98 4 -3.96 4 -6 4 C-6 3.01 -6 2.02 -6 1 C-3.92446352 0.4465236 -2.15634036 0 0 0 Z " fill="#FAEB78" transform="translate(335,246)"/>
<path d="M0 0 C2.97 0.99 5.94 1.98 9 3 C8.67 3.66 8.34 4.32 8 5 C2.25 3.125 2.25 3.125 0 2 C0 1.34 0 0.68 0 0 Z " fill="#FAED8B" transform="translate(267,243)"/>
<path d="M0 0 C0.33 1.65 0.66 3.3 1 5 C-0.65 4.67 -2.3 4.34 -4 4 C-4 3.34 -4 2.68 -4 2 C-4.66 1.67 -5.32 1.34 -6 1 C-4 0 -4 0 0 0 Z " fill="#FCEA7F" transform="translate(245,203)"/>
<path d="M0 0 C1.65 0.33 3.3 0.66 5 1 C1.375 4 1.375 4 -2 4 C-1.34 2.68 -0.68 1.36 0 0 Z " fill="#FDF089" transform="translate(328,197)"/>
<path d="M0 0 C0.66 0 1.32 0 2 0 C2.33 1.32 2.66 2.64 3 4 C2.34 4 1.68 4 1 4 C1.33 4.99 1.66 5.98 2 7 C1.01 7.33 0.02 7.66 -1 8 C-0.67 5.36 -0.34 2.72 0 0 Z " fill="#FDEA79" transform="translate(187,114)"/>
<path d="M0 0 C0.66 0.99 1.32 1.98 2 3 C-1.75 6 -1.75 6 -4 6 C-2.84826645 3.53199953 -1.95216435 1.95216435 0 0 Z " fill="#FBEE85" transform="translate(216,58)"/>
<path d="M0 0 C-2.17424117 2.50037734 -3.73045798 3.43628586 -7 4 C-7 3.01 -7 2.02 -7 1 C-3.375 -1.125 -3.375 -1.125 0 0 Z " fill="#FBED86" transform="translate(260,41)"/>
<path d="M0 0 C3.465 1.98 3.465 1.98 7 4 C6.34 4.66 5.68 5.32 5 6 C2.5 4.6875 2.5 4.6875 0 3 C0 2.01 0 1.02 0 0 Z " fill="#FDF08F" transform="translate(372,38)"/>
<path d="M0 0 C0 0.99 0 1.98 0 3 C-4.455 3.495 -4.455 3.495 -9 4 C-9 3.34 -9 2.68 -9 2 C-2.25 0 -2.25 0 0 0 Z " fill="#FDEF8C" transform="translate(278,22)"/>
<path d="M0 0 C0.75 1.6875 0.75 1.6875 1 4 C-0.9375 6.75 -0.9375 6.75 -3 9 C-3.33 8.01 -3.66 7.02 -4 6 C-3.67 5.34 -3.34 4.68 -3 4 C-2.34 4 -1.68 4 -1 4 C-0.67 2.68 -0.34 1.36 0 0 Z " fill="#3D321F" transform="translate(501,359)"/>
<path d="M0 0 C0.66 0.33 1.32 0.66 2 1 C2 1.99 2 2.98 2 4 C0.02 4.66 -1.96 5.32 -4 6 C-2.68 4.02 -1.36 2.04 0 0 Z " fill="#120A01" transform="translate(189,361)"/>
<path d="M0 0 C0.66 0.33 1.32 0.66 2 1 C1.43628586 4.26954202 0.50037734 5.82575883 -2 8 C-1.125 2.25 -1.125 2.25 0 0 Z " fill="#4C4032" transform="translate(338,330)"/>
<path d="M0 0 C3.465 1.485 3.465 1.485 7 3 C6.67 3.66 6.34 4.32 6 5 C1.25 4.25 1.25 4.25 -1 2 C-0.67 1.34 -0.34 0.68 0 0 Z " fill="#FCEE8A" transform="translate(246,232)"/>
<path d="M0 0 C2.64 0.66 5.28 1.32 8 2 C7.67 2.66 7.34 3.32 7 4 C4.69 3.67 2.38 3.34 0 3 C0 2.01 0 1.02 0 0 Z " fill="#FCF18D" transform="translate(290,230)"/>
<path d="M0 0 C0.33 0 0.66 0 1 0 C1 1.65 1 3.3 1 5 C-0.65 5.66 -2.3 6.32 -4 7 C-2.79618552 4.50638429 -1.54571278 2.31856917 0 0 Z " fill="#F7E888" transform="translate(396,202)"/>
<path d="M0 0 C0.66 0 1.32 0 2 0 C1.75 1.875 1.75 1.875 1 4 C-1.0625 5.25 -1.0625 5.25 -3 6 C-1.125 1.125 -1.125 1.125 0 0 Z " fill="#FBEC80" transform="translate(370,190)"/>
<path d="M0 0 C3.875 0.875 3.875 0.875 5 2 C5.04063832 3.66617115 5.042721 5.33388095 5 7 C2.65941363 4.87219421 1.29299694 2.88437779 0 0 Z " fill="#F8ED8C" transform="translate(299,159)"/>
<path d="M0 0 C0.66 0 1.32 0 2 0 C1.67 2.97 1.34 5.94 1 9 C-1.14809171 5.77786243 -1.29386153 4.72224599 -1 1 C-0.67 0.67 -0.34 0.34 0 0 Z " fill="#FBEB88" transform="translate(426,156)"/>
<path d="M0 0 C0.66 0 1.32 0 2 0 C2 1.98 2 3.96 2 6 C1.34 6 0.68 6 0 6 C-0.33 6.66 -0.66 7.32 -1 8 C-0.67 5.36 -0.34 2.72 0 0 Z " fill="#F3E47B" transform="translate(415,154)"/>
</svg>
