<?xml version="1.0" encoding="UTF-8"?>
<svg version="1.1" xmlns="http://www.w3.org/2000/svg" width="783" height="319">
<path d="M0 0 C0.79921875 0.66386719 1.5984375 1.32773437 2.421875 2.01171875 C20.19298357 17.32090623 31.71016324 36.69623901 41 58 C41.40089844 58.90105469 41.80179687 59.80210938 42.21484375 60.73046875 C43 63 43 63 43 67 C37.97170844 67.94280467 32.94297031 68.70772533 28 67 C26.32881789 64.64203072 25.51248065 63.07498094 24.5625 60.4375 C23.99120712 59.06019316 23.41417112 57.68525739 22.83203125 56.3125 C22.53635254 55.59964844 22.24067383 54.88679688 21.93603516 54.15234375 C8.99598054 24.3976433 -16.96201246 1.04713106 -47.00390625 -10.78955078 C-73.00296195 -20.55099297 -103.16876199 -23.24861614 -130 -15 C-130.83063965 -14.74798828 -131.6612793 -14.49597656 -132.51708984 -14.23632812 C-142.42855929 -11.15481255 -151.69698809 -7.52939642 -160.6640625 -2.28515625 C-163 -1 -163 -1 -165 -1 C-165 -0.34 -165 0.32 -165 1 C-164.04216614 0.99111755 -163.08433228 0.98223511 -162.09747314 0.9730835 C-152.97976186 0.89127067 -143.862127 0.83169111 -134.74412918 0.79275131 C-130.05875355 0.7720576 -125.37367899 0.74408242 -120.68847656 0.69824219 C-116.14965701 0.6541225 -111.61112319 0.63072684 -107.07210541 0.62049103 C-105.35811628 0.61321615 -103.64413911 0.5990191 -101.93027496 0.57707977 C-73.17744067 0.22434372 -44.56310068 8.33531184 -23 28 C-22.36835938 28.57363281 -21.73671875 29.14726563 -21.0859375 29.73828125 C-11.77796846 38.64247994 -4.76078043 49.13701242 2 60 C2.99 61.485 2.99 61.485 4 63 C3.625 65.6875 3.625 65.6875 3 68 C-9.2086866 68.5757217 -9.2086866 68.5757217 -13.20703125 65.05859375 C-14.95655888 62.44044819 -16.47825074 59.7560144 -18 57 C-32.09732446 37.3633295 -52.08937632 21.8772819 -76.40302086 17.67843056 C-77.15125933 17.56331312 -77.8994978 17.44819569 -78.67041016 17.32958984 C-79.48496988 17.20382254 -80.29952961 17.07805523 -81.13877296 16.94847679 C-91.07864694 15.5440263 -101.00411 15.5660053 -111.0234375 15.6015625 C-113.06938785 15.59953519 -115.11533749 15.59661832 -117.1612854 15.59286499 C-121.40512109 15.58848653 -125.64876502 15.59473558 -129.89257812 15.60888672 C-135.32743427 15.62613013 -140.76185076 15.6160143 -146.19669151 15.59816933 C-150.40200128 15.58733986 -154.60720619 15.59077136 -158.81251907 15.5985527 C-160.81796954 15.60054912 -162.82342962 15.59811512 -164.82886887 15.59111404 C-167.61843051 15.58349659 -170.4072696 15.59510097 -173.19677734 15.61181641 C-174.01856979 15.60574371 -174.84036224 15.59967102 -175.6870575 15.59341431 C-182.13320516 15.66498374 -185.88064752 17.5869367 -190.4375 22.1875 C-190.97246094 22.71730469 -191.50742188 23.24710938 -192.05859375 23.79296875 C-193.86373764 25.84509409 -195.48881325 27.94771748 -197.12133789 30.13793945 C-197.66069473 30.86052444 -198.20005157 31.58310944 -198.75575256 32.32759094 C-199.16635422 32.87948593 -199.57695587 33.43138092 -200 34 C-198.70755371 34.00808685 -197.41510742 34.01617371 -196.08349609 34.02450562 C-183.84456322 34.1023228 -171.60573667 34.19014884 -159.36694336 34.28752708 C-153.07635663 34.33726329 -146.78578488 34.38359362 -140.49511719 34.421875 C-134.41310514 34.45901636 -128.3312258 34.50545075 -122.24932861 34.55806351 C-119.94039257 34.5764554 -117.63142825 34.59161805 -115.32244873 34.60334396 C-86.19684161 34.75641414 -61.70819073 38.11053866 -39 58 C-36.59533172 60.48157665 -34.80343556 63.05856767 -33 66 C-32.26303852 67.14844885 -31.52605754 68.29688519 -30.7890625 69.4453125 C-19.42674805 87.46877223 -15.72043773 106.69470413 -20.4375 127.75 C-24.96977901 145.67560867 -36.27107279 162.09920207 -52 172 C-71.33731679 183.21980937 -92.66732255 188.23768324 -114.8125 182.375 C-125.02963076 178.80651683 -133.74165705 173.95945795 -142 167 C-142.59167969 166.56429687 -143.18335938 166.12859375 -143.79296875 165.6796875 C-157.17692349 155.45030333 -163.70462036 137.94300989 -167 122 C-167.10546875 119.0546875 -167.10546875 119.0546875 -167 117 C-169.93756119 116.9730499 -172.87487555 116.95318526 -175.8125 116.9375 C-176.64587891 116.92912109 -177.47925781 116.92074219 -178.33789062 116.91210938 C-179.14033203 116.90888672 -179.94277344 116.90566406 -180.76953125 116.90234375 C-181.50792236 116.89710693 -182.24631348 116.89187012 -183.00708008 116.88647461 C-185.21057409 116.92476787 -185.21057409 116.92476787 -188 118 C-185.78124797 137.47246845 -179.47634666 156.30575167 -166 171 C-165.12730469 171.95261719 -164.25460938 172.90523437 -163.35546875 173.88671875 C-146.29434161 191.95597744 -123.09668288 203.98939532 -98 205 C-97.19046875 205.0515625 -96.3809375 205.103125 -95.546875 205.15625 C-72.98940049 205.96669819 -49.94206815 196.58228009 -33 182 C-32.154375 181.27554688 -31.30875 180.55109375 -30.4375 179.8046875 C-26.54929256 176.39093394 -22.8652956 172.98951548 -19.5625 169 C-17 166 -17 166 -14 165 C-11.98257505 164.85609589 -9.95983585 164.77948728 -7.9375 164.75 C-6.34228516 164.71132813 -6.34228516 164.71132813 -4.71484375 164.671875 C-3.37099609 164.83429688 -3.37099609 164.83429688 -2 165 C-1.34 165.99 -0.68 166.98 0 168 C-11.95070036 184.74908763 -24.83270547 197.90359618 -43 208 C-43.61746094 208.35578125 -44.23492187 208.7115625 -44.87109375 209.078125 C-69.76250399 222.56766345 -100.49054424 222.83859277 -127.16796875 215.32421875 C-134.1526613 213.05126461 -140.60750968 209.57330084 -147 206 C-147.97710937 205.45472656 -148.95421875 204.90945312 -149.9609375 204.34765625 C-174.77353626 189.46737342 -192.84300013 165.66207964 -199.875 137.625 C-201.26021475 132.03747304 -202.26738157 126.56497545 -202.75830078 120.82568359 C-202.91164571 118.90507708 -202.91164571 118.90507708 -204 117 C-210.93 117 -217.86 117 -225 117 C-219.41568873 144.92155633 -213.16908216 171.01073305 -194 193 C-193.48824219 193.63164062 -192.97648437 194.26328125 -192.44921875 194.9140625 C-188.72209204 199.47502079 -184.50952887 203.22768107 -180 207 C-179.18660156 207.71285156 -178.37320313 208.42570313 -177.53515625 209.16015625 C-170.49039936 215.19113021 -163.14013753 219.66289052 -155 224 C-154.04609375 224.53496094 -153.0921875 225.06992187 -152.109375 225.62109375 C-124.31600661 240.56585189 -90.04806661 242.5896436 -60 234 C-25.58853802 223.52816945 3.41428186 200.46546868 20.78125 168.85546875 C22 167 22 167 25 165 C27.91796875 164.8046875 27.91796875 164.8046875 31.1875 164.875 C32.27417969 164.89304688 33.36085938 164.91109375 34.48046875 164.9296875 C35.31191406 164.95289063 36.14335937 164.97609375 37 165 C37.9484112 167.53319437 38.1312991 168.6610123 37.13891602 171.22314453 C36.68186279 172.01833496 36.22480957 172.81352539 35.75390625 173.6328125 C35.25052734 174.51638428 34.74714844 175.39995605 34.22851562 176.31030273 C33.67873047 177.23915283 33.12894531 178.16800293 32.5625 179.125 C32.00626953 180.07769775 31.45003906 181.03039551 30.87695312 182.01196289 C27.04278419 188.48017922 22.98598037 194.36528612 18 200 C17.10812047 201.10105219 16.22041876 202.20549597 15.3359375 203.3125 C8.41098502 211.86343226 0.90223011 218.57030836 -8 225 C-8.86367187 225.64453125 -9.72734375 226.2890625 -10.6171875 226.953125 C-43.27989704 250.72729391 -82.81901856 257.77449361 -122.36425781 251.6328125 C-145.64098831 247.59364546 -169.54852733 236.22588995 -187.125 220.4375 C-189.40044446 218.40601157 -191.67295149 216.46438555 -194.0625 214.5625 C-197.77224097 211.32634299 -200.8287264 207.75413614 -204 204 C-205.16402344 202.70255859 -205.16402344 202.70255859 -206.3515625 201.37890625 C-213.21891449 193.54417186 -218.23121756 185.23937371 -223 176 C-223.61746094 174.84113281 -224.23492187 173.68226563 -224.87109375 172.48828125 C-241.7791918 138.86037132 -243.34233331 99.57688399 -232 64 C-223.51154348 38.69126627 -207.99554938 14.67870745 -187 -2 C-186.15566406 -2.68191406 -185.31132812 -3.36382812 -184.44140625 -4.06640625 C-129.74736914 -46.73814484 -52.85275349 -44.58385496 0 0 Z M-211 50 C-212.29263816 52.31844734 -213.29169071 54.4254441 -214.25 56.875 C-214.518125 57.51308594 -214.78625 58.15117188 -215.0625 58.80859375 C-216.24194665 61.69101695 -217 63.85851645 -217 67 C-214.67866438 68.16066781 -213.34458503 68.12711002 -210.7603302 68.13130188 C-209.87052963 68.13531006 -208.98072906 68.13931824 -208.06396484 68.14344788 C-207.08484131 68.14291916 -206.10571777 68.14239044 -205.09692383 68.1418457 C-204.06734055 68.14532013 -203.03775726 68.14879456 -201.97697449 68.15237427 C-199.7332749 68.15974231 -197.48956797 68.16508208 -195.24585915 68.16866493 C-191.68359613 68.17582838 -188.12147102 68.19149842 -184.55924988 68.21000671 C-174.4276225 68.26245148 -164.29606654 68.31036162 -154.16430664 68.32592773 C-147.9696917 68.33606931 -141.77541788 68.36555986 -135.58093834 68.40724754 C-133.22931194 68.4194855 -130.87763717 68.42469212 -128.52598 68.42244911 C-105.9531299 68.40623209 -85.92869084 71.39078453 -69.06640625 87.80859375 C-63.84920322 93.34139318 -60.2633236 99.12649585 -56.8125 105.875 C-56.47911621 106.52283447 -56.14573242 107.17066895 -55.80224609 107.83813477 C-51.26607197 117.03261955 -49.51862491 125.94125359 -48.8125 136.125 C-48.73064453 137.176875 -48.64878906 138.22875 -48.56445312 139.3125 C-48.366486 141.87442746 -48.17851741 144.43665663 -48 147 C-41.40476612 144.03244134 -38.95151052 136.54280164 -36.25 130.125 C-30.93582266 114.56205209 -32.6741706 98.88623749 -39 84 C-47.94731974 66.28749425 -63.62665737 56.12444754 -82 50 C-89.52646756 48.97486945 -97.06697562 48.8555586 -104.65014648 48.87060547 C-106.31077873 48.86797699 -106.31077873 48.86797699 -108.00495911 48.86529541 C-111.62702041 48.86093023 -115.24903204 48.86379454 -118.87109375 48.8671875 C-121.40169789 48.86651326 -123.93230197 48.86554224 -126.46290588 48.86428833 C-131.74732971 48.86281888 -137.0317408 48.86484637 -142.31616211 48.86962891 C-148.41988347 48.87508922 -154.52357152 48.87329175 -160.6272921 48.8678025 C-166.51821955 48.86271765 -172.40913666 48.86325513 -178.30006599 48.86618423 C-180.80036486 48.86685164 -183.30066458 48.86603157 -185.80096245 48.86370468 C-189.28586986 48.86117123 -192.77071265 48.8650277 -196.25561523 48.87060547 C-197.28993683 48.86858124 -198.32425842 48.86655701 -199.3899231 48.86447144 C-200.81314629 48.86870117 -200.81314629 48.86870117 -202.26512146 48.87301636 C-203.08782248 48.87339338 -203.91052351 48.87377041 -204.75815487 48.87415886 C-207.02397725 49.00134591 -208.87365458 49.19787782 -211 50 Z M-223 84 C-223.4951724 86.49902798 -223.88146615 88.91568616 -224.1875 91.4375 C-224.28224609 92.11876953 -224.37699219 92.80003906 -224.47460938 93.50195312 C-224.89117583 96.74862757 -225.04856866 98.85429402 -224 102 C-222.86153625 102.00808685 -221.72307251 102.01617371 -220.55010986 102.02450562 C-209.78153362 102.10224453 -199.01307943 102.19005217 -188.24466324 102.28752708 C-182.70952066 102.33731234 -177.17439554 102.383643 -171.63916016 102.421875 C-166.28982978 102.45895345 -160.94065212 102.50537249 -155.59145355 102.55806351 C-153.55832366 102.57648828 -151.52516119 102.59163939 -149.49198151 102.60334396 C-127.65390852 102.73347455 -109.17248153 104.75542717 -93 121 C-84.67778471 130.69169376 -80.8042996 141.24677901 -80.875 153.9375 C-80.87113281 154.62779297 -80.86726562 155.31808594 -80.86328125 156.02929688 C-80.87104388 160.12408324 -81.20803123 163.98358696 -82 168 C-76.98386087 169.67204638 -72.58804454 167.28024436 -68 165 C-60.9932511 157.48056216 -61.48453415 146.56277319 -61.6875 136.90234375 C-62.46970701 120.1859282 -69.8805759 106.29776823 -82 95 C-94.34643065 85.05611801 -107.11411172 81.84765446 -122.65527344 81.85473633 C-124.24647758 81.84969841 -124.24647758 81.84969841 -125.86982727 81.84455872 C-129.36635517 81.83508059 -132.86283507 81.83310764 -136.359375 81.83203125 C-138.78981547 81.82881814 -141.22025574 81.82545403 -143.6506958 81.82194519 C-148.73800099 81.81596298 -153.8252892 81.81410453 -158.91259766 81.81469727 C-165.44547781 81.81479922 -171.97825008 81.80110908 -178.51110458 81.78392506 C-183.5260875 81.77283694 -188.54104398 81.77077702 -193.5560379 81.77130699 C-195.9658877 81.77012351 -198.3757381 81.76568129 -200.78557587 81.75797462 C-204.14456399 81.74823252 -207.50331314 81.75102906 -210.86230469 81.75708008 C-211.86491837 81.75146057 -212.86753204 81.74584106 -213.90052795 81.74005127 C-214.81174911 81.74424576 -215.72297028 81.74844025 -216.6618042 81.75276184 C-217.45597118 81.75221707 -218.25013817 81.75167231 -219.06837082 81.75111103 C-221.23801283 81.83071551 -221.23801283 81.83071551 -223 84 Z M-153 118 C-151.65940796 133.81898611 -143.40598811 146.5076684 -131.61962891 156.66796875 C-121.66890479 164.85174186 -110.88660602 169.44092816 -98 170 C-93.46882585 163.10473499 -93.22896661 155.94797187 -94.2734375 147.890625 C-96.46046193 137.57447202 -102.84187419 129.45663824 -111 123 C-119.40594832 118.43109526 -127.46782178 116.89175974 -136.875 116.3125 C-138.04095703 116.22258789 -138.04095703 116.22258789 -139.23046875 116.13085938 C-144.30859625 115.81934399 -148.18978153 116.32604397 -153 118 Z " fill="#FCEA67" transform="translate(254,46)"/>
<path d="M0 0 C4.44103874 4.65497582 7.69056647 10.04552639 11.0625 15.5 C12.09437666 17.15667089 13.12691424 18.81293032 14.16015625 20.46875 C14.64371582 21.24734375 15.12727539 22.0259375 15.62548828 22.828125 C16.83503688 24.73934069 18.08726788 26.60711777 19.37109375 28.46875 C21 31 21 31 21 33 C24.04847036 30.13282634 26.3464194 27.19263569 28.625 23.6875 C29.31207031 22.64207031 29.99914062 21.59664062 30.70703125 20.51953125 C31.90439085 18.68379021 33.09967341 16.84671125 34.29443359 15.00927734 C35.62887441 12.96125777 36.97050625 10.91807575 38.3125 8.875 C38.73289551 8.22362061 39.15329102 7.57224121 39.58642578 6.90112305 C41.55095107 3.91404931 42.98669466 2.00887023 46 0 C52.18138528 -0.5519094 52.18138528 -0.5519094 54.6934967 1.14175415 C56.56536423 3.80412023 56.38811383 5.80694859 56.40405273 9.04443359 C56.41673691 10.28937592 56.42942108 11.53431824 56.44248962 12.81698608 C56.44043787 14.17747157 56.43744959 15.53795593 56.43359375 16.8984375 C56.43815523 18.29464981 56.4434607 19.69085986 56.44947815 21.08706665 C56.4584148 24.01419185 56.45598109 26.94104432 56.44604492 29.86816406 C56.43456919 33.61321225 56.45474093 37.35731557 56.48396206 41.10223961 C56.50234218 43.98654125 56.50202785 46.87061739 56.49632454 49.75496292 C56.49617146 51.13522286 56.50220464 52.51549822 56.51461601 53.89570236 C56.52955081 55.82934113 56.51620605 57.76313524 56.50170898 59.69677734 C56.50154282 60.7958139 56.50137665 61.89485046 56.50120544 63.02719116 C55.87813108 66.72284332 54.66515475 68.40052346 52 71 C48.64777152 71.47048821 46.291588 71.77292913 43.31713867 69.99291992 C41.20440694 66.79621388 41.51816331 63.32565008 41.48828125 59.61328125 C41.47033005 58.79627243 41.45237885 57.97926361 41.43388367 57.13749695 C41.37972212 54.52921706 41.34586692 51.92112075 41.3125 49.3125 C41.27933201 47.54359421 41.24484283 45.77471267 41.20898438 44.00585938 C41.12399254 39.67070527 41.05720965 35.33560616 41 31 C39.73413251 32.72673332 38.47018757 34.45487614 37.20703125 36.18359375 C36.50296143 37.14579834 35.7988916 38.10800293 35.07348633 39.09936523 C32.70948434 42.40640723 30.49324469 45.7857756 28.32421875 49.22265625 C27 51 27 51 24 53 C21.01619515 52.84698437 19.45384708 52.38254201 17.16015625 50.44921875 C14.28785664 47.19256079 12.12266368 43.64247678 9.875 39.9375 C8.99766329 38.50895029 8.12006896 37.08055876 7.2421875 35.65234375 C6.8591748 35.02320068 6.47616211 34.39405762 6.08154297 33.74584961 C5.08822752 32.14241873 4.04626312 30.56939468 3 29 C2.9906543 30.13018555 2.98130859 31.26037109 2.97167969 32.42480469 C2.93177608 36.62214421 2.86601674 40.81875104 2.79248047 45.015625 C2.7642729 46.83128439 2.74305726 48.64706652 2.72900391 50.46289062 C2.70757091 53.07485789 2.66092115 55.68534974 2.609375 58.296875 C2.60753204 59.51271271 2.60753204 59.51271271 2.60565186 60.75311279 C2.51241101 64.34912377 2.30265978 66.5765368 0.18457031 69.54003906 C-2 71 -2 71 -5.5625 71.0625 C-9 70 -9 70 -10.69058228 67.80162048 C-12.1637961 64.64954307 -12.38006566 62.57715843 -12.38818359 59.11157227 C-12.39764008 57.95009171 -12.40709656 56.78861115 -12.4168396 55.5919342 C-12.41076691 54.34600998 -12.40469421 53.10008575 -12.3984375 51.81640625 C-12.40130768 50.52814438 -12.40417786 49.23988251 -12.40713501 47.9125824 C-12.41154876 45.18990243 -12.40515946 42.46751849 -12.39111328 39.74487305 C-12.37403846 36.26689558 -12.38385694 32.78961359 -12.40183067 29.31166172 C-12.4153238 25.97985526 -12.40585512 22.64823243 -12.3984375 19.31640625 C-12.40451019 18.07250626 -12.41058289 16.82860626 -12.4168396 15.54701233 C-12.32826936 4.6389595 -12.32826936 4.6389595 -9 0 C-5.73616149 -1.63191925 -3.46807101 -0.88171297 0 0 Z " fill="#170C02" transform="translate(269,127)"/>
<path d="M0 0 C1.24201172 -0.01224609 2.48402344 -0.02449219 3.76367188 -0.03710938 C13.05960341 -0.05188828 21.84865088 -0.06130392 29.3125 6.1875 C34.47162917 12.92302975 36.3779965 18.75338915 35.3125 27.1875 C33.96349419 31.07502907 32.11050121 34.25649859 29.4375 37.375 C29.06625 37.973125 28.695 38.57125 28.3125 39.1875 C28.90059436 41.58312767 28.90059436 41.58312767 30.3125 44.1875 C31.97785796 48.15423203 33.24985901 51.70986245 33.8125 56 C34.36515363 59.52316691 34.88831159 59.86431944 37.3125 62.1875 C38.25 65.125 38.25 65.125 38.3125 68.1875 C36.8125 70.5625 36.8125 70.5625 34.3125 72.1875 C30.875 72.75 30.875 72.75 27.3125 72.1875 C19.03961333 65.60679469 18.52700585 58.1838174 17.3125 48.1875 C10.0525 47.8575 2.7925 47.5275 -4.6875 47.1875 C-5.76436921 52.57184607 -5.67441793 57.3531066 -5.52734375 62.8125 C-5.68478665 66.13032105 -6.14602552 68.26568078 -7.6875 71.1875 C-10.52833641 72.60791821 -12.54227278 72.50202272 -15.6875 72.1875 C-17.99025556 70.3204009 -19.36573871 68.83102259 -20.6875 66.1875 C-20.79392856 64.3045679 -20.83632656 62.41787979 -20.84863281 60.53198242 C-20.85824036 59.34702682 -20.8678479 58.16207123 -20.87774658 56.94120789 C-20.88199646 55.65478897 -20.88624634 54.36837006 -20.890625 53.04296875 C-20.89632507 51.72589432 -20.90202515 50.40881989 -20.90789795 49.05183411 C-20.91840825 46.2600567 -20.92425038 43.46830808 -20.92773438 40.67651367 C-20.93321235 37.10538108 -20.95722477 33.53463107 -20.98570633 29.96361828 C-21.00885532 26.5525758 -21.01078419 23.14158572 -21.015625 19.73046875 C-21.0279718 18.45012253 -21.0403186 17.16977631 -21.05303955 15.85063171 C-21.05003845 14.65621964 -21.04703735 13.46180756 -21.04394531 12.23120117 C-21.04759094 11.18244308 -21.05123657 10.133685 -21.05499268 9.05314636 C-20.63118929 5.74839851 -19.64427059 3.86062846 -17.6875 1.1875 C-12.54409183 -1.1041175 -5.51360702 0.00281738 0 0 Z M-5.6875 13.1875 C-5.88211488 16.12468767 -6.06847593 19.06199932 -6.25 22 C-6.30607422 22.83337891 -6.36214844 23.66675781 -6.41992188 24.52539062 C-6.46826172 25.32783203 -6.51660156 26.13027344 -6.56640625 26.95703125 C-6.63710327 28.06461792 -6.63710327 28.06461792 -6.70922852 29.19458008 C-6.78679638 31.39938792 -6.78679638 31.39938792 -5.6875 34.1875 C-2.64486733 34.29595027 0.39386204 34.37502063 3.4375 34.4375 C4.72140625 34.48777344 4.72140625 34.48777344 6.03125 34.5390625 C11.58850285 34.6245587 15.0434397 34.1360398 19.3125 30.1875 C20.86626963 26.3100124 20.58412969 22.32340598 19.625 18.3125 C18.09996911 15.84340237 16.76942571 14.72375534 14.3125 13.1875 C12.00007604 12.77879912 12.00007604 12.77879912 9.546875 12.89453125 C8.65742188 12.90419922 7.76796875 12.91386719 6.8515625 12.92382812 C5.47097656 12.9615332 5.47097656 12.9615332 4.0625 13 C2.65871094 13.02030273 2.65871094 13.02030273 1.2265625 13.04101562 C-1.07871327 13.07630046 -3.3828106 13.12559719 -5.6875 13.1875 Z " fill="#170C03" transform="translate(419.6875,125.8125)"/>
<path d="M0 0 C9.4998776 7.59990208 14.06279179 16.01550797 15.62890625 28.00390625 C15.89589703 32.7245305 15.18345181 36.74987005 13.8125 41.25 C13.61527344 41.94738281 13.41804687 42.64476562 13.21484375 43.36328125 C9.91510736 53.53911504 3.15167827 59.39677534 -6.1875 64.25 C-14.10541535 67.4256345 -23.34909153 67.61528711 -31.4375 64.8125 C-40.64204593 60.54438547 -47.79770298 52.83817197 -51.74609375 43.60546875 C-54.71299064 35.50629272 -54.87013633 25.39269807 -51.93359375 17.25 C-46.80270754 6.20252342 -39.70835185 -0.62631665 -28.30078125 -4.90234375 C-17.67775007 -7.79468725 -9.33954207 -5.12759172 0 0 Z M-33 14.0625 C-37.78727448 21.03824282 -39.19564021 26.90993102 -38.1875 35.25 C-36.45608142 42.42301983 -33.39408992 47.22116093 -27.1875 51.25 C-23.24039355 53.48333332 -19.6569004 54.16740324 -15.1875 53.25 C-9.34666759 50.25397431 -3.69269178 46.57995064 -1.5 40.1875 C0.67929473 33.08461348 0.83479564 26.01934135 -2.1484375 19.1328125 C-5.55386431 12.9620767 -9.4329074 9.30050132 -16.1875 7.25 C-23.03517221 6.23013393 -28.28521757 9.34771757 -33 14.0625 Z " fill="#170B03" transform="translate(686.1875,131.75)"/>
<path d="M0 0 C2.31332486 3.46998729 2.33957563 4.92509248 2 9 C1.34 9.99 0.68 10.98 0 12 C-5.53527869 12.82004129 -8.92888553 11.74196847 -14 9.4375 C-19.39885293 7.03422751 -22.30588262 6.40165126 -28 8 C-31.00120605 9.0636649 -31.00120605 9.0636649 -33 11 C-33.66666667 13.5 -33.66666667 13.5 -33 16 C-30.73705758 18.8896589 -28.61743364 19.61415984 -25.10546875 20.46484375 C-24.14962891 20.70783203 -23.19378906 20.95082031 -22.20898438 21.20117188 C-20.2066216 21.68914264 -18.20401983 22.17613384 -16.20117188 22.66210938 C-8.68737914 24.57461941 -3.14187422 26.93993396 2 33 C4.87238281 38.02666991 4.58605625 43.55373443 3.640625 49.11328125 C1.62244994 56.13598502 -3.83066394 59.55051506 -9.875 63.1015625 C-18.23655629 66.95796993 -29.22792608 65.98837417 -37.73828125 63.0625 C-41.95448112 61.0818327 -45.70629524 58.29370476 -49 55 C-49.2632246 51.05163095 -49.08997373 48.39620731 -47 45 C-41.59062052 44.67298462 -38.3838055 45.4619704 -33.625 48 C-26.57659512 51.43114084 -21.9258209 52.10198481 -14.4375 50 C-13.2309375 49.505 -13.2309375 49.505 -12 49 C-11.06922241 46.03843493 -10.88641945 44.36695254 -11.8125 41.375 C-15.20721941 37.68930464 -19.23173581 37.1628412 -24 36 C-40.58475809 31.83105422 -40.58475809 31.83105422 -45.234375 25.25390625 C-48.30269983 20.03144926 -49.04139438 14.95345815 -48 9 C-45.91320858 2.9415733 -42.72927953 -1.01406168 -37.1015625 -4.0703125 C-24.79125808 -9.5161349 -11.03703653 -7.51457806 0 0 Z " fill="#180C03" transform="translate(624,133)"/>
<path d="M0 0 C3.71932492 1.02281435 5.43920097 3.59001134 7.5 6.6875 C9.06474996 9.88263659 10.32078184 13.16801481 11.5625 16.5 C12.21831522 18.21550874 12.87585876 19.93035779 13.53515625 21.64453125 C13.86104736 22.49378174 14.18693848 23.34303223 14.52270508 24.21801758 C15.72614074 27.25892484 17.04566352 30.23572971 18.39086914 33.21606445 C20.72078083 38.40772108 22.9495463 43.64322745 25.1875 48.875 C25.68572266 50.02419922 26.18394531 51.17339844 26.69726562 52.35742188 C27.40979492 54.02708008 27.40979492 54.02708008 28.13671875 55.73046875 C28.56686279 56.73102295 28.99700684 57.73157715 29.44018555 58.76245117 C30.53419528 61.78187772 31.20548201 64.48951852 31.5 67.6875 C30 70.5625 30 70.5625 27.5 72.6875 C25.19 72.6875 22.88 72.6875 20.5 72.6875 C17.86 67.7375 15.22 62.7875 12.5 57.6875 C3.59 57.6875 -5.32 57.6875 -14.5 57.6875 C-15.49 60.6575 -16.48 63.6275 -17.5 66.6875 C-19.96478873 71.41989437 -19.96478873 71.41989437 -22.5 72.6875 C-27.7751364 73.24868472 -27.7751364 73.24868472 -30.4375 71.1875 C-32.43916901 66.47769058 -30.79567988 61.56817114 -29.23046875 56.90625 C-28.7268073 55.6622966 -28.21224547 54.42270731 -27.6875 53.1875 C-27.41687744 52.53023926 -27.14625488 51.87297852 -26.86743164 51.19580078 C-25.23467589 47.27738131 -23.44423818 43.48968452 -21.48046875 39.73046875 C-20.24826425 37.16296694 -19.25621573 34.53929879 -18.25 31.875 C-16.06376435 26.11926232 -13.82369603 20.38928277 -11.5 14.6875 C-11.17999023 13.87434326 -10.85998047 13.06118652 -10.53027344 12.22338867 C-8.34531447 6.92139062 -5.9655142 1.6405164 0 0 Z M-1.5 25.6875 C-2.67094005 28.4774439 -3.83690927 31.26928597 -5 34.0625 C-5.33386719 34.8565625 -5.66773438 35.650625 -6.01171875 36.46875 C-6.48544922 37.60957031 -6.48544922 37.60957031 -6.96875 38.7734375 C-7.26201172 39.4751709 -7.55527344 40.1769043 -7.85742188 40.89990234 C-8.61275781 42.68458561 -8.61275781 42.68458561 -8.5 44.6875 C-3.22 44.6875 2.06 44.6875 7.5 44.6875 C6.57258588 42.07933538 5.63365283 39.4763611 4.6875 36.875 C4.42646484 36.13701172 4.16542969 35.39902344 3.89648438 34.63867188 C3.50493164 33.57036133 3.50493164 33.57036133 3.10546875 32.48046875 C2.86981201 31.8258667 2.63415527 31.17126465 2.39135742 30.49682617 C1.3875027 28.45914682 0.17730596 27.20096655 -1.5 25.6875 Z " fill="#170C03" transform="translate(362.5,125.3125)"/>
<path d="M0 0 C3.60804823 1.06091574 4.31471614 1.92709473 6.265625 5.07421875 C6.83925781 5.96238281 7.41289062 6.85054687 8.00390625 7.765625 C8.99970703 9.31056641 8.99970703 9.31056641 10.015625 10.88671875 C11.80261361 13.44682578 13.62735069 15.97918268 15.453125 18.51171875 C16.32722001 19.73278876 17.20095028 20.95411999 18.07421875 22.17578125 C18.71488281 23.07039063 19.35554687 23.965 20.015625 24.88671875 C24.77184781 18.93356569 29.2576808 12.81742058 33.63818359 6.58544922 C35.32537895 4.19575379 36.94274337 1.95960038 39.015625 -0.11328125 C42.67817138 0.01990225 45.12547107 0.16346868 48.015625 2.51171875 C49.50292859 6.04406478 48.89528264 8.16133103 48.015625 11.88671875 C46.38952621 14.84838667 44.41938025 17.50234344 42.390625 20.19921875 C41.84881592 20.94397461 41.30700684 21.68873047 40.7487793 22.45605469 C39.18236893 24.60820292 37.60129658 26.74874045 36.015625 28.88671875 C34.61161482 30.79740376 33.21393208 32.71279034 31.828125 34.63671875 C31.29832031 35.3534375 30.76851562 36.07015625 30.22265625 36.80859375 C28.02874211 40.58581809 27.89548087 44.46957052 28.0234375 48.7578125 C28.04019531 49.66208984 28.05695312 50.56636719 28.07421875 51.49804688 C28.11840255 53.37845743 28.17045577 55.25869994 28.23046875 57.13867188 C28.31427963 62.49113937 28.11230689 66.28657537 25.015625 70.88671875 C22.21692473 72.28606888 20.11063708 72.1393728 17.015625 71.88671875 C14.21406587 69.95460901 13.63323181 68.14293079 13.015625 64.88671875 C12.99385676 63.12107238 13.02227787 61.35447641 13.0859375 59.58984375 C13.29853317 45.38468845 11.91382054 36.40211119 2.50097656 25.60058594 C0.59058308 23.39628577 -1.17312167 21.09938279 -2.92578125 18.76879883 C-4.02827281 17.30676949 -5.16524909 15.87092163 -6.3046875 14.4375 C-8.04899762 11.78858254 -8.74232805 10.03332911 -8.984375 6.88671875 C-6.97768184 2.57232846 -5.08879725 -0.19316115 0 0 Z " fill="#1A0D03" transform="translate(495.984375,126.11328125)"/>
<path d="M0 0 C1.28566729 2.57133459 1.12009778 4.397171 1.11352539 7.27587891 C1.11344986 8.3768692 1.11337433 9.4778595 1.11329651 10.61221313 C1.10813522 11.80494843 1.10297394 12.99768372 1.09765625 14.2265625 C1.0962413 15.44451508 1.09482635 16.66246765 1.09336853 17.91732788 C1.08775639 21.8199099 1.07520179 25.72243523 1.0625 29.625 C1.05748657 32.26562417 1.05292339 34.90624924 1.04882812 37.546875 C1.03778301 44.03126945 1.02103302 50.51563068 1 57 C1.83249268 56.98428955 2.66498535 56.9685791 3.52270508 56.95239258 C6.61447856 56.90123358 9.70603618 56.8636352 12.7980957 56.83520508 C14.79327701 56.81271667 16.78826213 56.77459802 18.78320312 56.73632812 C20.03681641 56.72666016 21.29042969 56.71699219 22.58203125 56.70703125 C23.73936768 56.6913208 24.8967041 56.67561035 26.08911133 56.65942383 C29 57 29 57 30.8581543 58.3190918 C32.50629732 60.74531902 32.68058958 63.12530625 33 66 C29.45888553 69.53497812 26.89165974 70.46570195 21.8948822 70.53013611 C21.12390701 70.51890213 20.35293182 70.50766815 19.55859375 70.49609375 C18.3515554 70.4982766 18.3515554 70.4982766 17.12013245 70.50050354 C15.42485927 70.49884865 13.72957044 70.4873333 12.03442383 70.46655273 C9.44222172 70.43755282 6.85206086 70.44596024 4.25976562 70.45898438 C2.60936508 70.45274768 0.95897098 70.44435728 -0.69140625 70.43359375 C-1.46440567 70.43652939 -2.23740509 70.43946503 -3.03382874 70.44248962 C-6.05837868 70.38952473 -8.48942194 70.26254697 -11.20533752 68.86598206 C-13.76917848 66.2002545 -13.49499393 64.39863357 -13.48583984 60.74023438 C-13.4919931 59.44879517 -13.49814636 58.15735596 -13.50448608 56.82678223 C-13.49068969 55.41576426 -13.47615568 54.00475335 -13.4609375 52.59375 C-13.45855295 51.1479102 -13.45764778 49.70206726 -13.4581604 48.25622559 C-13.4550323 45.22644647 -13.43846736 42.19714054 -13.41162109 39.16748047 C-13.37764085 35.28345755 -13.3699925 31.39995462 -13.37151146 27.51580048 C-13.37096765 24.53036533 -13.35999872 21.54504392 -13.34550858 18.55964661 C-13.33914327 17.12751628 -13.3352023 15.69537307 -13.33372116 14.26322937 C-13.32938552 12.26202769 -13.31029874 10.26087433 -13.29052734 8.25976562 C-13.28290375 7.12075806 -13.27528015 5.98175049 -13.26742554 4.80822754 C-13 2 -13 2 -11 -1 C-7.17127553 -2.84345993 -3.81101484 -1.36621287 0 0 Z " fill="#130903" transform="translate(723,128)"/>
<path d="M0 0 C0.99 0.495 0.99 0.495 2 1 C2 1.99 2 2.98 2 4 C4.97 4.495 4.97 4.495 8 5 C8.37125 4.0409375 8.37125 4.0409375 8.75 3.0625 C10 1 10 1 12.125 0.25 C12.74375 0.1675 13.3625 0.085 14 0 C15.25 3.1875 15.25 3.1875 16 7 C14.5625 9.9375 14.5625 9.9375 12 12 C8.25 12.3125 8.25 12.3125 5 12 C4.16180842 10.37750059 3.3295884 8.75191503 2.5 7.125 C2.0359375 6.22007812 1.571875 5.31515625 1.09375 4.3828125 C0 2 0 2 0 0 Z " fill="#180E01" transform="translate(378,186)"/>
<path d="M0 0 C2.92574989 2.76002114 5.19096546 5.52093445 7.3125 8.9375 C7.84488281 9.77152344 8.37726563 10.60554688 8.92578125 11.46484375 C10.1963869 14.46347309 9.93787627 15.934077 9 19 C6.72854654 18.96699341 4.45759874 18.89759995 2.1875 18.8125 C0.92292969 18.77769531 -0.34164062 18.74289063 -1.64453125 18.70703125 C-5 18 -5 18 -6.94921875 15.44921875 C-7.29597656 14.64097656 -7.64273438 13.83273438 -8 13 C-7.34 13 -6.68 13 -6 13 C-5.67 13.66 -5.34 14.32 -5 15 C-3.35 15 -1.7 15 0 15 C1.88391785 11.73454239 2.49287967 8.71888239 3 5 C2.34 5 1.68 5 1 5 C0.67 3.35 0.34 1.7 0 0 Z " fill="#FBEB78" transform="translate(248,95)"/>
<path d="M0 0 C0.99 0.66 1.98 1.32 3 2 C3 2.66 3 3.32 3 4 C5.475 4.99 5.475 4.99 8 6 C8 6.99 8 7.98 8 9 C8.99 9 9.98 9 11 9 C11 9.66 11 10.32 11 11 C12.11375 11.2475 13.2275 11.495 14.375 11.75 C18 13 18 13 19.25 15.0625 C19.4975 15.701875 19.745 16.34125 20 17 C20.99 17.33 21.98 17.66 23 18 C24.203125 19.77734375 24.203125 19.77734375 25.25 21.9375 C25.60578125 22.64777344 25.9615625 23.35804687 26.328125 24.08984375 C26.54984375 24.72019531 26.7715625 25.35054687 27 26 C26.67 26.66 26.34 27.32 26 28 C25.19949219 27.05640625 25.19949219 27.05640625 24.3828125 26.09375 C16.36624452 16.88440546 8.20989631 9.96097539 -3 5 C-2.505 4.54625 -2.01 4.0925 -1.5 3.625 C0.22609337 2.12364481 0.22609337 2.12364481 0 0 Z " fill="#FAEC7B" transform="translate(184,95)"/>
<path d="M0 0 C0.33 0.33 0.66 0.66 1 1 C3.35203598 1.16016386 5.70703279 1.27753239 8.0625 1.375 C13.90817 1.67376483 18.68417285 2.50481583 24 5 C24 5.33 24 5.66 24 6 C15 5 15 5 11.0625 4.5 C4.70615602 3.79373956 -1.67413399 3.64467189 -8.0625 3.4375 C-9.93325195 3.37272461 -9.93325195 3.37272461 -11.84179688 3.30664062 C-14.89444091 3.20137704 -17.94715523 3.09924059 -21 3 C-21 2.67 -21 2.34 -21 2 C-13.99180557 0.2973584 -7.22197545 -0.56360244 0 0 Z " fill="#FDEB75" transform="translate(159,58)"/>
<path d="M0 0 C0.66 0.33 1.32 0.66 2 1 C2.05428973 3.22889496 2.09292338 5.45817471 2.125 7.6875 C2.14820313 8.92886719 2.17140625 10.17023438 2.1953125 11.44921875 C2.00896059 14.83709655 1.58000739 17.02229376 0 20 C-2.70879335 21.35439668 -5.00933268 21.06501451 -8 21 C-7.01 19.515 -7.01 19.515 -6 18 C-5.01 18 -4.02 18 -3 18 C-2.90912109 16.95199219 -2.90912109 16.95199219 -2.81640625 15.8828125 C-2.73261719 14.97273437 -2.64882813 14.06265625 -2.5625 13.125 C-2.48128906 12.22007812 -2.40007812 11.31515625 -2.31640625 10.3828125 C-2 8 -2 8 -1 6 C-1 5.154375 -1 4.30875 -1 3.4375 C-1 1 -1 1 0 0 Z " fill="#2D2501" transform="translate(412,177)"/>
<path d="M0 0 C0.33 0 0.66 0 1 0 C1.33 19.14 1.66 38.28 2 58 C2.66 58.33 3.32 58.66 4 59 C2.35 58.67 0.7 58.34 -1 58 C-0.67 38.86 -0.34 19.72 0 0 Z " fill="#110000" transform="translate(259,136)"/>
<path d="M0 0 C6.16674083 5.44124191 11.12397792 12.93310505 13 21 C13.125 23.875 13.125 23.875 13 26 C12.34 26 11.68 26 11 26 C11 23.69 11 21.38 11 19 C10.34 19 9.68 19 9 19 C6.95208138 16.95208138 6.43734309 15.85179586 5.5 13.1875 C5.24605469 12.47980469 4.99210938 11.77210938 4.73046875 11.04296875 C4.36888672 10.03169922 4.36888672 10.03169922 4 9 C3.33933281 7.33094605 2.67561748 5.6630584 2 4 C1.34 4 0.68 4 0 4 C0 2.68 0 1.36 0 0 Z " fill="#F7E878" transform="translate(160,166)"/>
<path d="M0 0 C0.99 0 1.98 0 3 0 C2.4902277 4.46050765 1.1276485 6.79215539 -2 10 C-8.91780822 15 -8.91780822 15 -12 15 C-11.60196439 12.11424181 -11.20990931 11.17810487 -8.9375 9.25 C-7.9784375 8.63125 -7.9784375 8.63125 -7 8 C-6.34 8.33 -5.68 8.66 -5 9 C-5 8.34 -5 7.68 -5 7 C-3.35 6.34 -1.7 5.68 0 5 C0 3.35 0 1.7 0 0 Z " fill="#241100" transform="translate(624,181)"/>
<path d="M0 0 C0.67353516 0.08121094 1.34707031 0.16242188 2.04101562 0.24609375 C2.73388672 0.31183594 3.42675781 0.37757813 4.140625 0.4453125 C5.83860081 0.60925499 7.53395266 0.79999338 9.22851562 0.99609375 C8.89851563 1.98609375 8.56851562 2.97609375 8.22851562 3.99609375 C1.95851563 3.99609375 -4.31148438 3.99609375 -10.77148438 3.99609375 C-5.20507812 -0.45703125 -5.20507812 -0.45703125 0 0 Z " fill="#3F3400" transform="translate(425.771484375,169.00390625)"/>
<path d="M0 0 C3.82868919 1.45226142 5.2538953 3.33318013 7 7 C7 8.32 7 9.64 7 11 C8.65 11.33 10.3 11.66 12 12 C11.67 12.99 11.34 13.98 11 15 C11.66 15.66 12.32 16.32 13 17 C12.01 17 11.02 17 10 17 C5.77997896 12.59775078 0 6.26943522 0 0 Z " fill="#FBEB77" transform="translate(65,208)"/>
<path d="M0 0 C1.1034375 0.15339844 2.206875 0.30679688 3.34375 0.46484375 C8.3851341 1.09501676 13.42686479 1.33760084 18.5 1.5625 C19.4178125 1.60568359 20.335625 1.64886719 21.28125 1.69335938 C23.52072061 1.79833456 25.76028092 1.90049248 28 2 C28 2.33 28 2.66 28 3 C16.78 3 5.56 3 -6 3 C-6 2.67 -6 2.34 -6 2 C-4.02 1.67 -2.04 1.34 0 1 C0 0.67 0 0.34 0 0 Z " fill="#FDEF7F" transform="translate(108,58)"/>
<path d="M0 0 C6.3343346 5.09500827 11.62789574 10.92530665 17 17 C13.76169533 17 12.68408288 16.70805274 10 15 C7.36736021 12.14170537 5.5762962 9.88999932 5 6 C4.34 6 3.68 6 3 6 C0 2.53846154 0 2.53846154 0 0 Z " fill="#F6E576" transform="translate(227,71)"/>
<path d="M0 0 C4.81412645 5.96034703 6.39025198 10.45512842 6 18 C5.34 18 4.68 18 4 18 C4.33 16.35 4.66 14.7 5 13 C4.34 13 3.68 13 3 13 C2.731875 12.071875 2.46375 11.14375 2.1875 10.1875 C1.05059563 7.13580933 0.25240693 6.1500248 -2 4 C-2 3.01 -2 2.02 -2 1 C-1.34 0.67 -0.68 0.34 0 0 Z " fill="#100401" transform="translate(446,164)"/>
<path d="M0 0 C1.2375 0.144375 2.475 0.28875 3.75 0.4375 C9.49002931 1.07833262 15.24293318 1.5421622 21 2 C21 2.33 21 2.66 21 3 C11.1 3.33 1.2 3.66 -9 4 C-9 3.34 -9 2.68 -9 2 C-6.03 2 -3.06 2 0 2 C0 1.34 0 0.68 0 0 Z " fill="#FEEF81" transform="translate(80,58)"/>
<path d="M0 0 C0.33 0.66 0.66 1.32 1 2 C-0.29716432 4.98347795 -1.6236601 7.54002901 -3.6875 10.0625 C-5.34381914 12.50754255 -5.24103854 14.1075375 -5 17 C-6.32 17.33 -7.64 17.66 -9 18 C-7.20512705 12.12587036 -5.29524101 6.22969424 -2 1 C-1.34 0.67 -0.68 0.34 0 0 Z " fill="#2F1600" transform="translate(359,127)"/>
<path d="M0 0 C0 0.33 0 0.66 0 1 C-1.65 1 -3.3 1 -5 1 C-5 1.66 -5 2.32 -5 3 C-7.64 2.67 -10.28 2.34 -13 2 C-13 2.66 -13 3.32 -13 4 C-13.7425 3.95875 -14.485 3.9175 -15.25 3.875 C-17.96561761 3.79611379 -17.96561761 3.79611379 -19.9375 5.0625 C-22.85198018 6.38726372 -24.94912242 5.69338127 -28 5 C-24.17973319 2.68163228 -20.02269856 2.10939837 -15.6875 1.375 C-14.95337891 1.2409375 -14.21925781 1.106875 -13.46289062 0.96875 C-8.90603492 0.17625336 -4.62383868 -0.1343784 0 0 Z " fill="#FDEF7E" transform="translate(148,12)"/>
<path d="M0 0 C0.99 0.33 1.98 0.66 3 1 C2.01 1.33 1.02 1.66 0 2 C-0.2475 2.721875 -0.495 3.44375 -0.75 4.1875 C-2.3043536 7.68479561 -4.37580679 9.24374685 -7.34375 11.5703125 C-9.2526135 13.08924941 -9.2526135 13.08924941 -11 16 C-12.32 15.67 -13.64 15.34 -15 15 C-14.25556641 14.38125 -14.25556641 14.38125 -13.49609375 13.75 C-8.5188434 9.51886498 -4.17380962 5.0216147 0 0 Z " fill="#FAED7F" transform="translate(237,212)"/>
<path d="M0 0 C0.33 0 0.66 0 1 0 C1.3540919 6.51791392 1.03901852 11.17521449 -2 17 C-2.66 16.34 -3.32 15.68 -4 15 C-3.828125 12.03125 -3.828125 12.03125 -3.25 8.5 C-3.06953125 7.3346875 -2.8890625 6.169375 -2.703125 4.96875 C-2 2 -2 2 0 0 Z " fill="#231800" transform="translate(454,143)"/>
<path d="M0 0 C3.64037693 5.4605654 3.13239068 11.53107667 3.0625 17.875 C3.05798828 18.65875 3.05347656 19.4425 3.04882812 20.25 C3.03714093 22.16670014 3.01920908 24.08336048 3 26 C2.67 26 2.34 26 2 26 C1.46921744 22.04293373 0.9520619 18.08420556 0.4375 14.125 C0.28603516 12.99707031 0.13457031 11.86914062 -0.02148438 10.70703125 C-0.2293457 9.09248047 -0.2293457 9.09248047 -0.44140625 7.4453125 C-0.57232666 6.45031738 -0.70324707 5.45532227 -0.83813477 4.43017578 C-1 2 -1 2 0 0 Z " fill="#FBEE81" transform="translate(232,135)"/>
<path d="M0 0 C7.91216535 1.05412861 15.43109219 2.4371644 23 5 C22.34 5.66 21.68 6.32 21 7 C18.75 6.6875 18.75 6.6875 16 6 C14.00102872 5.66055205 12.00124361 5.32578384 10 5 C10 4.34 10 3.68 10 3 C6.7 2.67 3.4 2.34 0 2 C0 1.34 0 0.68 0 0 Z " fill="#FDED7A" transform="translate(182,13)"/>
<path d="M0 0 C5.61 0 11.22 0 17 0 C17.33 0.99 17.66 1.98 18 3 C12.06 3 6.12 3 0 3 C0 2.01 0 1.02 0 0 Z " fill="#0C0700" transform="translate(350,179)"/>
<path d="M0 0 C0.99 0.495 0.99 0.495 2 1 C2 1.99 2 2.98 2 4 C2.61875 4.268125 3.2375 4.53625 3.875 4.8125 C6 6 6 6 8 9 C7.67 9.66 7.34 10.32 7 11 C8.98 10.67 10.96 10.34 13 10 C12.67 10.66 12.34 11.32 12 12 C9.69 12 7.38 12 5 12 C4.16180842 10.37750059 3.3295884 8.75191503 2.5 7.125 C2.0359375 6.22007812 1.571875 5.31515625 1.09375 4.3828125 C0 2 0 2 0 0 Z " fill="#2B1700" transform="translate(378,186)"/>
<path d="M0 0 C0.99 0 1.98 0 3 0 C1.43632643 3.52238047 -0.69495889 6.27123994 -3.125 9.25 C-3.84945312 10.14203125 -4.57390625 11.0340625 -5.3203125 11.953125 C-5.87460938 12.62859375 -6.42890625 13.3040625 -7 14 C-8.04449911 10.86650268 -7.93423645 10.01031744 -7 7 C-5.68 7 -4.36 7 -3 7 C-2.814375 6.1028125 -2.814375 6.1028125 -2.625 5.1875 C-2 3 -2 3 0 0 Z " fill="#FCED82" transform="translate(247,218)"/>
<path d="M0 0 C0.66 0.66 1.32 1.32 2 2 C0.71632558 3.83893824 -0.57716761 5.67102625 -1.875 7.5 C-2.95394531 9.03140625 -2.95394531 9.03140625 -4.0546875 10.59375 C-4.69664062 11.3878125 -5.33859375 12.181875 -6 13 C-6.66 13 -7.32 13 -8 13 C-7.63265306 6.63265306 -7.63265306 6.63265306 -4.5625 3.5625 C-2 2 -2 2 0 2 C0 1.34 0 0.68 0 0 Z " fill="#261201" transform="translate(539,141)"/>
<path d="M0 0 C0.33 0 0.66 0 1 0 C1 1.65 1 3.3 1 5 C1.556875 5.103125 2.11375 5.20625 2.6875 5.3125 C5.52242204 6.15531466 7.60950977 7.25558821 10 9 C10.8125 11.1875 10.8125 11.1875 11 13 C6.35725346 11.49793494 3.3828799 9.46155153 0 6 C-0.375 2.6875 -0.375 2.6875 0 0 Z " fill="#382300" transform="translate(575,182)"/>
<path d="M0 0 C1.67070095 0.63486636 3.33774767 1.28954599 4.94921875 2.0625 C8.5161323 3.69308905 12.26857899 4.80696063 16 6 C16 6.99 16 7.98 16 9 C9.54646385 6.94235079 3.2638737 4.57616518 -3 2 C-2.01 1.34 -1.02 0.68 0 0 Z " fill="#F8E87B" transform="translate(187,63)"/>
<path d="M0 0 C0.33 0 0.66 0 1 0 C1.06058594 1.01320312 1.12117188 2.02640625 1.18359375 3.0703125 C1.26806704 4.42188514 1.35271157 5.77344709 1.4375 7.125 C1.47681641 7.79015625 1.51613281 8.4553125 1.55664062 9.140625 C1.75151529 12.19865818 2.02970567 15.16833213 2.5625 18.1875 C2.99164931 20.94631697 2.93793272 23.12182671 2.5625 25.875 C2.46066406 26.65617187 2.35882812 27.43734375 2.25390625 28.2421875 C2.12822266 29.11230469 2.12822266 29.11230469 2 30 C1.67 30 1.34 30 1 30 C-0.25676377 20.01321644 -0.09367165 10.04368267 0 0 Z " fill="#FCF286" transform="translate(15,147)"/>
<path d="M0 0 C0.928125 0.20625 1.85625 0.4125 2.8125 0.625 C0.14583333 1.95833333 -2.52083333 3.29166667 -5.1875 4.625 C-5.1875 5.615 -5.1875 6.605 -5.1875 7.625 C-5.8475 7.625 -6.5075 7.625 -7.1875 7.625 C-7.5175 8.945 -7.8475 10.265 -8.1875 11.625 C-9.20147631 8.39871174 -9.38990769 7.06017654 -7.9375 3.9375 C-5.43919328 0.63616613 -4.20128574 -0.49426891 0 0 Z " fill="#320E00" transform="translate(496.1875,126.375)"/>
<path d="M0 0 C1.65 0 3.3 0 5 0 C1.15080717 4.33034194 -2.72289646 6.6560756 -8 9 C-8 7.68 -8 6.36 -8 5 C-5.36 3.68 -2.72 2.36 0 1 C0 0.67 0 0.34 0 0 Z " fill="#2C2300" transform="translate(687,187)"/>
<path d="M0 0 C2.09939759 3.45783133 2.09939759 3.45783133 1.65625 5.875 C0.98928335 8.03470152 0.24652652 10.13949604 -0.5625 12.25 C-0.83191406 12.95640625 -1.10132813 13.6628125 -1.37890625 14.390625 C-1.58386719 14.92171875 -1.78882813 15.4528125 -2 16 C-2.66 16 -3.32 16 -4 16 C-2.98408579 10.53135543 -1.92908943 5.23609987 0 0 Z " fill="#FCEB79" transform="translate(24,104)"/>
<path d="M0 0 C0 0.33 0 0.66 0 1 C-6.38226945 1.82351864 -12.56744599 2.12086218 -19 2 C-19 1.34 -19 0.68 -19 0 C-13.60102685 -2.69948658 -5.7622264 -0.83814202 0 0 Z " fill="#FBEC7B" transform="translate(185,297)"/>
<path d="M0 0 C0.33 0 0.66 0 1 0 C1.103125 1.093125 1.20625 2.18625 1.3125 3.3125 C1.97307727 6.85559629 2.2027092 7.93243723 5 10 C4.67 10.66 4.34 11.32 4 12 C-0.67692308 10.52307692 -0.67692308 10.52307692 -2.3125 7.875 C-2.539375 7.25625 -2.76625 6.6375 -3 6 C-2.34 5.34 -1.68 4.68 -1 4 C-0.3574765 1.93125966 -0.3574765 1.93125966 0 0 Z " fill="#211800" transform="translate(452,178)"/>
<path d="M0 0 C0.99 0 1.98 0 3 0 C3.85178626 2.38500154 4.09806909 3.6665651 3.375 6.125 C1.58752966 8.56245955 -0.1632534 9.10418528 -3 10 C-2.01 6.7 -1.02 3.4 0 0 Z " fill="#FCED78" transform="translate(218,172)"/>
<path d="M0 0 C-10.83487408 3.96397832 -10.83487408 3.96397832 -15.2109375 2.015625 C-15.80132812 1.68046875 -16.39171875 1.3453125 -17 1 C-14.92118505 0.44124338 -12.83669506 -0.09643187 -10.75 -0.625 C-9.58984375 -0.92664063 -8.4296875 -1.22828125 -7.234375 -1.5390625 C-3.88384275 -2.01655381 -2.73177617 -1.87978657 0 0 Z " fill="#FCEC7C" transform="translate(198,282)"/>
<path d="M0 0 C0.66 0.66 1.32 1.32 2 2 C-1.56045177 3.18681726 -4.43808337 3.09689832 -8.1875 3.0625 C-9.45980469 3.05347656 -10.73210938 3.04445312 -12.04296875 3.03515625 C-13.50669922 3.01775391 -13.50669922 3.01775391 -15 3 C-15 2.67 -15 2.34 -15 2 C-9.7709663 0.25698877 -5.52246315 -0.37440428 0 0 Z " fill="#240E01" transform="translate(675,195)"/>
<path d="M0 0 C6.42928965 1.60732241 8.45224452 4.67836678 12 10 C11.67 10.99 11.34 11.98 11 13 C7.23645964 8.73958774 3.50118038 4.48151089 0 0 Z " fill="#FBEC7A" transform="translate(247,59)"/>
<path d="M0 0 C0.66 0.33 1.32 0.66 2 1 C-1.05142642 4.52087664 -3.60136813 5.63153675 -8 7 C-8.33 7.66 -8.66 8.32 -9 9 C-12.0625 9.625 -12.0625 9.625 -15 10 C-13.55475933 7.10951866 -11.461031 6.48873019 -8.625 5 C-5.63971073 3.42464946 -2.81097449 1.87398299 0 0 Z " fill="#F9EA7C" transform="translate(230,263)"/>
<path d="M0 0 C6.41688675 -0.10349817 12.62694402 0.25492456 19 1 C19 1.33 19 1.66 19 2 C12.4 2.33 5.8 2.66 -1 3 C-0.67 2.01 -0.34 1.02 0 0 Z " fill="#FBEF7E" transform="translate(45,93)"/>
<path d="M0 0 C3.69459731 0.19970796 4.78742451 0.76444338 7.3125 3.5625 C8.1478125 4.7690625 8.1478125 4.7690625 9 6 C8.67 6.66 8.34 7.32 8 8 C4.48144841 6.59257936 3.61387166 5.33533477 2 2 C1.01 1.67 0.02 1.34 -1 1 C-0.67 0.67 -0.34 0.34 0 0 Z " fill="#140500" transform="translate(495,128)"/>
<path d="M0 0 C-1.43457328 0.9834496 -2.87277406 1.96160921 -4.3125 2.9375 C-5.11300781 3.48277344 -5.91351563 4.02804688 -6.73828125 4.58984375 C-9 6 -9 6 -12 7 C-11.7421875 5.14453125 -11.7421875 5.14453125 -11 3 C-9.2578125 1.69921875 -9.2578125 1.69921875 -7.125 0.6875 C-6.42632812 0.34074219 -5.72765625 -0.00601563 -5.0078125 -0.36328125 C-3 -1 -3 -1 0 0 Z " fill="#F3E06F" transform="translate(212,238)"/>
<path d="M0 0 C5.77759884 -0.12036664 11.27959989 0.1679418 17 1 C16.01 2.485 16.01 2.485 15 4 C12.03 3.67 9.06 3.34 6 3 C6 2.34 6 1.68 6 1 C4.02 1 2.04 1 0 1 C0 0.67 0 0.34 0 0 Z " fill="#FCEF87" transform="translate(114,148)"/>
<path d="M0 0 C1.31602523 0.61754259 2.62773556 1.24428742 3.9375 1.875 C4.66839844 2.22304687 5.39929688 2.57109375 6.15234375 2.9296875 C8 4 8 4 9 6 C7.5199159 5.88637738 6.04089926 5.75877092 4.5625 5.625 C3.73878906 5.55539063 2.91507813 5.48578125 2.06640625 5.4140625 C1.38449219 5.27742188 0.70257813 5.14078125 0 5 C-0.33 4.34 -0.66 3.68 -1 3 C-0.67 2.01 -0.34 1.02 0 0 Z " fill="#FAEC7A" transform="translate(169,122)"/>
<path d="M0 0 C0.33 0.99 0.66 1.98 1 3 C0.21625 3.598125 -0.5675 4.19625 -1.375 4.8125 C-4.14574323 6.91085249 -4.14574323 6.91085249 -6 10 C-6.99 10 -7.98 10 -9 10 C-8.62669176 7.27425729 -8.20805399 6.19177915 -6.15234375 4.296875 C-5.42144531 3.78640625 -4.69054687 3.2759375 -3.9375 2.75 C-3.20402344 2.22921875 -2.47054687 1.7084375 -1.71484375 1.171875 C-1.14894531 0.78515625 -0.58304688 0.3984375 0 0 Z " fill="#FAE976" transform="translate(76,37)"/>
<path d="M0 0 C2.31551097 0.42127361 4.62740355 0.86248121 6.9375 1.3125 C8.22527344 1.55613281 9.51304687 1.79976562 10.83984375 2.05078125 C11.88269531 2.36402344 12.92554688 2.67726562 14 3 C14.33 3.99 14.66 4.98 15 6 C9.45949887 5.43174347 4.96284034 3.37113483 0 1 C0 0.67 0 0.34 0 0 Z " fill="#FAEB80" transform="translate(128,246)"/>
<path d="M0 0 C0.66 0.66 1.32 1.32 2 2 C1.46428571 5.53571429 1.46428571 5.53571429 0 7 C-2.33297433 7.04092937 -4.66705225 7.04241723 -7 7 C-6.67 6.01 -6.34 5.02 -6 4 C-4.35 3.67 -2.7 3.34 -1 3 C-0.67 2.01 -0.34 1.02 0 0 Z " fill="#0D0401" transform="translate(753,190)"/>
<path d="M0 0 C2 3 2 3 1.625 5.1875 C1.41875 5.785625 1.2125 6.38375 1 7 C0.34 7 -0.32 7 -1 7 C-1.28875 7.804375 -1.5775 8.60875 -1.875 9.4375 C-3 12 -3 12 -5 13 C-4.54554036 11.58208592 -4.08625056 10.16571954 -3.625 8.75 C-3.24214844 7.56664062 -3.24214844 7.56664062 -2.8515625 6.359375 C-2.04826333 4.13372042 -1.10288338 2.09068328 0 0 Z " fill="#221500" transform="translate(349,146)"/>
<path d="M0 0 C3.25061904 0.43341587 4.95502089 1.44377611 7 4 C7 4.66 7 5.32 7 6 C7.99 6 8.98 6 10 6 C9.67 7.32 9.34 8.64 9 10 C7.70756532 8.8758824 6.41607925 7.75067408 5.125 6.625 C4.40570313 5.99851562 3.68640625 5.37203125 2.9453125 4.7265625 C1.5923402 3.52573166 0.2791655 2.2791655 -1 1 C-0.67 0.67 -0.34 0.34 0 0 Z " fill="#FCEF7A" transform="translate(236,49)"/>
<path d="M0 0 C0.763125 0.20625 1.52625 0.4125 2.3125 0.625 C-0.38795182 2.42530122 -2.75427881 3.55877066 -5.75 4.75 C-7.06677734 5.27980469 -7.06677734 5.27980469 -8.41015625 5.8203125 C-10.6875 6.625 -10.6875 6.625 -12.6875 6.625 C-12.6875 5.965 -12.6875 5.305 -12.6875 4.625 C-11.718125 4.50125 -10.74875 4.3775 -9.75 4.25 C-8.739375 4.04375 -7.72875 3.8375 -6.6875 3.625 C-6.3575 2.965 -6.0275 2.305 -5.6875 1.625 C-2.6875 -0.375 -2.6875 -0.375 0 0 Z " fill="#FCED7C" transform="translate(112.6875,32.375)"/>
<path d="M0 0 C1.32 0.33 2.64 0.66 4 1 C1.36 3.97 -1.28 6.94 -4 10 C-4.33 9.01 -4.66 8.02 -5 7 C-4.67 6.34 -4.34 5.68 -4 5 C-3.34 5 -2.68 5 -2 5 C-1.7834375 4.0409375 -1.7834375 4.0409375 -1.5625 3.0625 C-1 1 -1 1 0 0 Z " fill="#FCEE80" transform="translate(266,248)"/>
<path d="M0 0 C5.11365014 1.0681847 10.07227969 2.23107476 15 4 C15 4.33 15 4.66 15 5 C8.53673535 5.45356243 5.39068413 4.59378942 0 1 C0 0.67 0 0.34 0 0 Z " fill="#FAEE83" transform="translate(186,51)"/>
<path d="M0 0 C0.99 0 1.98 0 3 0 C3 2.97 3 5.94 3 9 C1.68 8.34 0.36 7.68 -1 7 C-0.67 4.69 -0.34 2.38 0 0 Z " fill="#110400" transform="translate(588,142)"/>
<path d="M0 0 C4.02992782 0.55312735 8.02022924 1.1558062 12 2 C11.67 2.66 11.34 3.32 11 4 C6.71 3.67 2.42 3.34 -2 3 C-1.34 2.01 -0.68 1.02 0 0 Z " fill="#0E0301" transform="translate(598,136)"/>
<path d="M0 0 C3.36591866 1.44253657 5.51047079 3.33264727 8 6 C4.70342144 6 2.83635572 5.25666731 -0.1875 4 C-1.08855469 3.62875 -1.98960937 3.2575 -2.91796875 2.875 C-3.60503906 2.58625 -4.29210937 2.2975 -5 2 C-4.360625 1.855625 -3.72125 1.71125 -3.0625 1.5625 C-1.02454854 1.18992819 -1.02454854 1.18992819 0 0 Z " fill="#FCF07F" transform="translate(157,129)"/>
<path d="M0 0 C0 0.33 0 0.66 0 1 C-6 0.33333333 -12 -0.33333333 -18 -1 C-18 -1.33 -18 -1.66 -18 -2 C-11.01768512 -3.23217321 -6.61108632 -2.3061929 0 0 Z " fill="#FDF08D" transform="translate(183,63)"/>
<path d="M0 0 C2.46800047 1.15173355 4.04783565 2.04783565 6 4 C5.625 6.625 5.625 6.625 5 9 C0.57142857 3.85714286 0.57142857 3.85714286 0 0 Z " fill="#281C00" transform="translate(439,186)"/>
<path d="M0 0 C2.1640625 0.2421875 2.1640625 0.2421875 4.625 0.875 C5.44226563 1.07867187 6.25953125 1.28234375 7.1015625 1.4921875 C8.04128906 1.74355469 8.04128906 1.74355469 9 2 C9 2.99 9 3.98 9 5 C5.37 4.01 1.74 3.02 -2 2 C-1.34 1.34 -0.68 0.68 0 0 Z " fill="#321601" transform="translate(588,163)"/>
<path d="M0 0 C0.66 0.66 1.32 1.32 2 2 C-0.33846154 8.64615385 -0.33846154 8.64615385 -3.6875 10.4375 C-4.450625 10.623125 -5.21375 10.80875 -6 11 C-4.18690997 7.22272911 -2.0926741 3.62730178 0 0 Z " fill="#372801" transform="translate(301,145)"/>
<path d="M0 0 C2.96 4.44 2.96 4.44 4 7 C3.67 7.99 3.34 8.98 3 10 C1.99406757 8.8803014 0.9954151 7.7540588 0 6.625 C-0.556875 5.99851562 -1.11375 5.37203125 -1.6875 4.7265625 C-3 3 -3 3 -3 1 C-2.01 0.67 -1.02 0.34 0 0 Z " fill="#F9EB79" transform="translate(230,89)"/>
<path d="M0 0 C2.24027294 2.88035092 4.16172132 5.84866512 6 9 C4.68 9.33 3.36 9.66 2 10 C0.68373308 6.38026598 0 3.90432869 0 0 Z " fill="#0E0401" transform="translate(578,150)"/>
<path d="M0 0 C0.66 0.33 1.32 0.66 2 1 C2 3.31 2 5.62 2 8 C0.68 8.33 -0.64 8.66 -2 9 C-2.20140476 5.37471432 -1.85776765 3.13498292 0 0 Z " fill="#110504" transform="translate(491,130)"/>
<path d="M0 0 C0.99 0.33 1.98 0.66 3 1 C0.24479785 3.95929119 -2.46627288 6.03681826 -6 8 C-4.75237172 4.15314615 -3.6129609 1.97070595 0 0 Z " fill="#FBED77" transform="translate(250,264)"/>
<path d="M0 0 C1.95766281 -0.08082094 3.91626728 -0.13910778 5.875 -0.1875 C7.51082031 -0.23970703 7.51082031 -0.23970703 9.1796875 -0.29296875 C10.11039063 -0.19628906 11.04109375 -0.09960938 12 0 C12.66 0.99 13.32 1.98 14 3 C13.01 3.99 12.02 4.98 11 6 C10.67 4.68 10.34 3.36 10 2 C6.7 1.67 3.4 1.34 0 1 C0 0.67 0 0.34 0 0 Z " fill="#FCF491" transform="translate(240,211)"/>
<path d="M0 0 C2.475 0.495 2.475 0.495 5 1 C4.25 5.75 4.25 5.75 2 8 C1.34 5.36 0.68 2.72 0 0 Z " fill="#F9ED88" transform="translate(287,211)"/>
<path d="M0 0 C0.99 0.33 1.98 0.66 3 1 C2.34 1 1.68 1 1 1 C0.01 3.97 -0.98 6.94 -2 10 C-2.99 9.34 -3.98 8.68 -5 8 C-4.67 7.01 -4.34 6.02 -4 5 C-3.34 5 -2.68 5 -2 5 C-2 4.01 -2 3.02 -2 2 C-1.34 2 -0.68 2 0 2 C0 1.34 0 0.68 0 0 Z " fill="#341F00" transform="translate(347,182)"/>
<path d="M0 0 C-1.52708963 3.43595166 -3.59927045 6.11912454 -6 9 C-6.33 7.68 -6.66 6.36 -7 5 C-6.34 5 -5.68 5 -5 5 C-4.87625 4.360625 -4.7525 3.72125 -4.625 3.0625 C-4.41875 2.381875 -4.2125 1.70125 -4 1 C-2 0 -2 0 0 0 Z " fill="#211700" transform="translate(310,156)"/>
<path d="M0 0 C0.33 1.32 0.66 2.64 1 4 C0.01 4.495 0.01 4.495 -1 5 C-1 5.66 -1 6.32 -1 7 C-2.375 8.625 -2.375 8.625 -4 10 C-4.66 10 -5.32 10 -6 10 C-4.6302836 6.00499382 -2.74277578 3.19990508 0 0 Z " fill="#F9E977" transform="translate(45,67)"/>
<path d="M0 0 C1.11375 0.598125 2.2275 1.19625 3.375 1.8125 C4.00148437 2.14894531 4.62796875 2.48539062 5.2734375 2.83203125 C7 4 7 4 9 7 C8.01 7.495 8.01 7.495 7 8 C6.34 7.34 5.68 6.68 5 6 C4.01 6.495 4.01 6.495 3 7 C2.34 6.34 1.68 5.68 1 5 C1.66 5 2.32 5 3 5 C2.34 4.34 1.68 3.68 1 3 C0.67 2.01 0.34 1.02 0 0 Z " fill="#FBEF7C" transform="translate(217,64)"/>
<path d="M0 0 C7.56634615 -0.37211538 7.56634615 -0.37211538 9.76171875 1.51171875 C10.17035156 2.00285156 10.57898438 2.49398438 11 3 C9.54257537 3.08096803 8.08387193 3.13917774 6.625 3.1875 C5.81289062 3.22230469 5.00078125 3.25710938 4.1640625 3.29296875 C3.44992188 3.19628906 2.73578125 3.09960938 2 3 C1.34 2.01 0.68 1.02 0 0 Z " fill="#FCEE93" transform="translate(152,297)"/>
<path d="M0 0 C0.33 0.99 0.66 1.98 1 3 C0.67 3.33 0.34 3.66 0 4 C-3.5 3.6875 -3.5 3.6875 -7 3 C-7.33 2.34 -7.66 1.68 -8 1 C-6.865625 1.020625 -5.73125 1.04125 -4.5625 1.0625 C-1.18424326 1.41577477 -1.18424326 1.41577477 0 0 Z " fill="#2C1800" transform="translate(267,194)"/>
<path d="M0 0 C0 0.66 0 1.32 0 2 C-2.31 2.66 -4.62 3.32 -7 4 C-7.99 3.01 -8.98 2.02 -10 1 C-6.52674819 -0.1577506 -3.63932552 -0.06866652 0 0 Z " fill="#241A00" transform="translate(454,194)"/>
<path d="M0 0 C1.5625 1.1875 1.5625 1.1875 3 3 C2.6875 5.6875 2.6875 5.6875 2 8 C0.68 7.34 -0.64 6.68 -2 6 C-1.34 4.02 -0.68 2.04 0 0 Z " fill="#FAEB77" transform="translate(220,112)"/>
<path d="M0 0 C7.42857143 1 7.42857143 1 11 2 C10.67 2.66 10.34 3.32 10 4 C6.28111761 3.49287967 3.26545761 2.88391785 0 1 C0 0.67 0 0.34 0 0 Z " fill="#FCF084" transform="translate(176,84)"/>
<path d="M0 0 C0 0.66 0 1.32 0 2 C0.66 2 1.32 2 2 2 C2 2.99 2 3.98 2 5 C-1.37503669 3.8141763 -3.64722731 2.72426311 -6 0 C-2.25 -1.125 -2.25 -1.125 0 0 Z " fill="#FAEB80" transform="translate(214,75)"/>
<path d="M0 0 C-2.64 1.98 -5.28 3.96 -8 6 C-8 2 -8 2 -6.25 0.1875 C-4 -1 -4 -1 0 0 Z " fill="#FBED84" transform="translate(261,259)"/>
<path d="M0 0 C1.12894876 0.93274109 2.25300876 1.87140122 3.375 2.8125 C4.00148437 3.33457031 4.62796875 3.85664062 5.2734375 4.39453125 C7 6 7 6 9 9 C8.01 9.33 7.02 9.66 6 10 C5.67 8.68 5.34 7.36 5 6 C4.34 6 3.68 6 3 6 C0 2.53846154 0 2.53846154 0 0 Z " fill="#F9EA81" transform="translate(227,71)"/>
<path d="M0 0 C2.97550031 3.0684847 3.96474513 4.46236331 4.25 8.8125 C4.1675 9.864375 4.085 10.91625 4 12 C3.34 12 2.68 12 2 12 C0.86235649 7.73383684 0 4.43513689 0 0 Z " fill="#FCF082" transform="translate(17,179)"/>
<path d="M0 0 C0.66 0 1.32 0 2 0 C2.70173653 4.38585329 3.10834375 8.55790643 3 13 C1.32889958 10.03821227 0.67317248 7.62928808 0.375 4.25 C0.30023438 3.45078125 0.22546875 2.6515625 0.1484375 1.828125 C0.09945312 1.22484375 0.05046875 0.6215625 0 0 Z " fill="#FBF085" transform="translate(87,164)"/>
<path d="M0 0 C0.66 0.99 1.32 1.98 2 3 C-0.97 5.475 -0.97 5.475 -4 8 C-4.33 7.01 -4.66 6.02 -5 5 C-3.35 3.35 -1.7 1.7 0 0 Z " fill="#130302" transform="translate(524,143)"/>
<path d="M0 0 C3.16115776 1.36983503 3.9927092 1.9890638 6 5 C5.01 5.495 5.01 5.495 4 6 C2.35 4.35 0.7 2.7 -1 1 C-0.67 0.67 -0.34 0.34 0 0 Z " fill="#F8EA77" transform="translate(92,223)"/>
<path d="M0 0 C3 1 3 1 5 4 C5.99 4.66 6.98 5.32 8 6 C7.01 6.495 7.01 6.495 6 7 C3.69 5.35 1.38 3.7 -1 2 C-0.67 1.34 -0.34 0.68 0 0 Z " fill="#F9EB7D" transform="translate(114,212)"/>
<path d="M0 0 C2.88575819 0.39803561 3.82189513 0.79009069 5.75 3.0625 C6.1625 3.701875 6.575 4.34125 7 5 C6.67 5.66 6.34 6.32 6 7 C5.34 7 4.68 7 4 7 C2.50475822 4.7272325 1.21600285 2.4320057 0 0 Z " fill="#0E0401" transform="translate(685,133)"/>
<path d="M0 0 C0.69867188 0.36480469 1.39734375 0.72960937 2.1171875 1.10546875 C2.82101563 1.46253906 3.52484375 1.81960937 4.25 2.1875 C5.9921875 3.29296875 5.9921875 3.29296875 6.9921875 5.29296875 C5.55287633 4.84035517 4.11579751 4.38063896 2.6796875 3.91796875 C1.87917969 3.66273437 1.07867187 3.4075 0.25390625 3.14453125 C-2.0078125 2.29296875 -2.0078125 2.29296875 -5.0078125 0.29296875 C-2.0078125 -0.70703125 -2.0078125 -0.70703125 0 0 Z " fill="#FBEF88" transform="translate(189.0078125,63.70703125)"/>
<path d="M0 0 C0 0.66 0 1.32 0 2 C-3.3 2.66 -6.6 3.32 -10 4 C-9.67 3.01 -9.34 2.02 -9 1 C-2.25 0 -2.25 0 0 0 Z " fill="#FDEF7A" transform="translate(140,25)"/>
<path d="M0 0 C-2.97 2.475 -2.97 2.475 -6 5 C-6.66 3.68 -7.32 2.36 -8 1 C-2.25 -1.125 -2.25 -1.125 0 0 Z " fill="#FCEE74" transform="translate(119,18)"/>
<path d="M0 0 C0 2 0 4 0 6 C-1.98 6 -3.96 6 -6 6 C-4 4 -2 2 0 0 Z " fill="#FAEA7B" transform="translate(238,257)"/>
<path d="M0 0 C-2.64 1.65 -5.28 3.3 -8 5 C-5.69411765 -1.42352941 -5.69411765 -1.42352941 0 0 Z " fill="#FBEA7C" transform="translate(224,246)"/>
<path d="M0 0 C0.66 0 1.32 0 2 0 C0.50902342 3.7952131 -1.75700849 5.61042731 -5 8 C-4.67 6.68 -4.34 5.36 -4 4 C-3.34 4 -2.68 4 -2 4 C-2 3.34 -2 2.68 -2 2 C-1.34 2 -0.68 2 0 2 C0 1.34 0 0.68 0 0 Z " fill="#FBEF89" transform="translate(236,232)"/>
<path d="M0 0 C0.66 0 1.32 0 2 0 C3.06775224 1.96466413 4.06553465 3.96855359 5 6 C4.67 6.66 4.34 7.32 4 8 C3.34 7.67 2.68 7.34 2 7 C2 6.01 2 5.02 2 4 C1.01 3.67 0.02 3.34 -1 3 C-0.67 2.01 -0.34 1.02 0 0 Z " fill="#FBED82" transform="translate(43,216)"/>
<path d="M0 0 C0.99 0.33 1.98 0.66 3 1 C3.33 3.31 3.66 5.62 4 8 C1.10067643 5.60490662 0.49831724 3.68754757 0 0 Z " fill="#F9E775" transform="translate(92,183)"/>
<path d="M0 0 C1.65 0.33 3.3 0.66 5 1 C5 1.66 5 2.32 5 3 C5.66 3.33 6.32 3.66 7 4 C4.69 4 2.38 4 0 4 C-0.33 3.34 -0.66 2.68 -1 2 C-0.67 1.34 -0.34 0.68 0 0 Z " fill="#100403" transform="translate(585,160)"/>
<path d="M0 0 C1.32 0.99 2.64 1.98 4 3 C3.67 4.65 3.34 6.3 3 8 C0.9375 6.25 0.9375 6.25 -1 4 C-0.75 1.75 -0.75 1.75 0 0 Z " fill="#261801" transform="translate(506,158)"/>
<path d="M0 0 C2.64 0.33 5.28 0.66 8 1 C7.01 1.495 7.01 1.495 6 2 C6 2.66 6 3.32 6 4 C4.02 3.34 2.04 2.68 0 2 C0 1.34 0 0.68 0 0 Z " fill="#270C00" transform="translate(597,154)"/>
<path d="M0 0 C0.99 0.33 1.98 0.66 3 1 C3 2.98 3 4.96 3 7 C2.01 7 1.02 7 0 7 C0 4.69 0 2.38 0 0 Z " fill="#0A0601" transform="translate(685,149)"/>
<path d="M0 0 C2.0625 1.75 2.0625 1.75 4 4 C3.75 6.25 3.75 6.25 3 8 C0.9375 5.6875 0.9375 5.6875 -1 3 C-0.67 2.01 -0.34 1.02 0 0 Z " fill="#FCED86" transform="translate(180,147)"/>
<path d="M0 0 C2.475 0.495 2.475 0.495 5 1 C4.34 2.98 3.68 4.96 3 7 C0 3.375 0 3.375 0 0 Z " fill="#2A0301" transform="translate(682,146)"/>
<path d="M0 0 C0.66 0 1.32 0 2 0 C2 0.99 2 1.98 2 3 C2.66 3.33 3.32 3.66 4 4 C4 4.99 4 5.98 4 7 C3.01 6.67 2.02 6.34 1 6 C-0.1875 3.4375 -0.1875 3.4375 -1 1 C-0.67 0.67 -0.34 0.34 0 0 Z " fill="#100300" transform="translate(498,147)"/>
<path d="M0 0 C0.66 0 1.32 0 2 0 C1.67 4.62 1.34 9.24 1 14 C0.67 14 0.34 14 0 14 C-0.19393875 11.85473901 -0.37998676 9.70876323 -0.5625 7.5625 C-0.71912109 5.77005859 -0.71912109 5.77005859 -0.87890625 3.94140625 C-0.91886719 2.97074219 -0.95882813 2.00007812 -1 1 C-0.67 0.67 -0.34 0.34 0 0 Z " fill="#FCEF82" transform="translate(29,131)"/>
<path d="M0 0 C1.98 0 3.96 0 6 0 C6.33 0.99 6.66 1.98 7 3 C6.01 3.495 6.01 3.495 5 4 C2.375 3.0625 2.375 3.0625 0 2 C0 1.34 0 0.68 0 0 Z " fill="#0D0401" transform="translate(608,128)"/>
<path d="M0 0 C3.57104439 1.87949705 5.54744301 3.17053157 7 7 C6.34 7 5.68 7 5 7 C5 6.34 5 5.68 5 5 C2.525 4.01 2.525 4.01 0 3 C0 2.01 0 1.02 0 0 Z " fill="#F7EB82" transform="translate(210,101)"/>
<path d="M0 0 C2.50298434 2.93828597 3.46930939 5.17902761 4 9 C3.01 8.67 2.02 8.34 1 8 C0.67 5.36 0.34 2.72 0 0 Z " fill="#FBEC7A" transform="translate(290,95)"/>
<path d="M0 0 C-5.445 1.485 -5.445 1.485 -11 3 C-11 2.01 -11 1.02 -11 0 C-6.79405774 -0.72795155 -4.19895255 -1.04973814 0 0 Z " fill="#FEF086" transform="translate(213,290)"/>
<path d="M0 0 C0.33 0.99 0.66 1.98 1 3 C-0.65 4.65 -2.3 6.3 -4 8 C-3.50168276 4.31245243 -2.89932357 2.39509338 0 0 Z " fill="#F5E370" transform="translate(256,241)"/>
<path d="M0 0 C0.66 0.66 1.32 1.32 2 2 C0.515 4.475 0.515 4.475 -1 7 C-1.66 6.67 -2.32 6.34 -3 6 C-1.125 1.125 -1.125 1.125 0 0 Z " fill="#FAEB77" transform="translate(286,220)"/>
<path d="M0 0 C1.98 0.99 3.96 1.98 6 3 C5.34 3.66 4.68 4.32 4 5 C2.68 5 1.36 5 0 5 C0 3.35 0 1.7 0 0 Z " fill="#0F0300" transform="translate(313,192)"/>
<path d="M0 0 C-2.05233685 2.2477975 -3.00667261 3.0022242 -6 4 C-6 2.68 -6 1.36 -6 0 C-3 -1 -3 -1 0 0 Z " fill="#241A00" transform="translate(685,192)"/>
<path d="M0 0 C1.5 1.1875 1.5 1.1875 3 3 C3.1875 5.6875 3.1875 5.6875 3 8 C0.52557871 5.84832931 -0.56238367 4.28212246 -1 1 C-0.67 0.67 -0.34 0.34 0 0 Z " fill="#100500" transform="translate(386,175)"/>
<path d="M0 0 C2.29633824 3.44450737 2.54016485 5.93812283 3 10 C0.9375 7.8125 0.9375 7.8125 -1 5 C-0.75 2.1875 -0.75 2.1875 0 0 Z " fill="#FBEE87" transform="translate(202,163)"/>
<path d="M0 0 C0.66 0.33 1.32 0.66 2 1 C1.34 1.66 0.68 2.32 0 3 C-0.64767793 5.57061311 -0.64767793 5.57061311 -1 8 C-1.99 7.67 -2.98 7.34 -4 7 C-2.92598892 4.08482708 -2.22189824 2.22189824 0 0 Z " fill="#1E1501" transform="translate(313,128)"/>
<path d="M0 0 C2.625 -0.1875 2.625 -0.1875 5 0 C4.01 0.495 4.01 0.495 3 1 C3 1.66 3 2.32 3 3 C2.01 3 1.02 3 0 3 C-0.33 3.99 -0.66 4.98 -1 6 C-1.33 5.01 -1.66 4.02 -2 3 C-1.34 2.01 -0.68 1.02 0 0 Z " fill="#351901" transform="translate(262,126)"/>
<path d="M0 0 C0.66 0 1.32 0 2 0 C2 0.66 2 1.32 2 2 C2.99 2 3.98 2 5 2 C5 4.31 5 6.62 5 9 C3.05731159 6.08596738 1.53604696 3.14191424 0 0 Z " fill="#FAEE82" transform="translate(211,124)"/>
<path d="M0 0 C1.32 0.33 2.64 0.66 4 1 C4.33 3.64 4.66 6.28 5 9 C2.67527795 6.14693203 1.2491742 3.45925163 0 0 Z " fill="#FAED7B" transform="translate(274,95)"/>
<path d="M0 0 C3.3125 -0.25 3.3125 -0.25 7 0 C7.99 1.32 8.98 2.64 10 4 C6.7 3.01 3.4 2.02 0 1 C0 0.67 0 0.34 0 0 Z " fill="#FFF38A" transform="translate(198,31)"/>
</svg>
