<?xml version="1.0" encoding="UTF-8"?>
<svg version="1.1" xmlns="http://www.w3.org/2000/svg" width="314" height="314">
<path d="M0 0 C29.99763894 25.80083094 49.52308164 60.31755889 52.76953125 100.05078125 C55.44131788 138.27598315 45.19665234 176.1201338 20.09716797 205.71679688 C16.98723852 209.28531837 13.74241727 212.70639427 10.45703125 216.11328125 C9.73 216.90347656 9.00296875 217.69367188 8.25390625 218.5078125 C-15.11851091 243.22197953 -51.40547494 257.37809403 -84.96484375 258.39453125 C-119.23942148 259.00167972 -150.62614001 251.94462046 -178.54296875 231.11328125 C-179.39761719 230.53449219 -180.25226563 229.95570313 -181.1328125 229.359375 C-209.34229981 209.97294111 -229.51296918 176.35158264 -236.54296875 143.11328125 C-238.36468839 133.19196431 -238.91430289 123.43592685 -238.85546875 113.36328125 C-238.85264893 112.66162842 -238.8498291 111.95997559 -238.84692383 111.23706055 C-238.68419819 84.20925373 -231.64023483 59.3298777 -217.54296875 36.11328125 C-217.1159668 35.406875 -216.68896484 34.70046875 -216.24902344 33.97265625 C-205.08749927 15.96750897 -189.35446919 0.17495864 -171.25830078 -10.83740234 C-169.7142269 -11.78195537 -168.20233318 -12.77863679 -166.6953125 -13.78125 C-151.10721178 -23.7172624 -132.72982338 -29.31023085 -114.54296875 -31.88671875 C-113.83857666 -31.98694336 -113.13418457 -32.08716797 -112.40844727 -32.19042969 C-71.55796143 -37.36522356 -31.67054895 -26.20829839 0 0 Z M-157.98046875 -3.69921875 C-158.62580566 -3.36631836 -159.27114258 -3.03341797 -159.93603516 -2.69042969 C-163.73715787 -0.69782601 -163.73715787 -0.69782601 -165.54296875 3.11328125 C-164.05983437 3.11541878 -164.05983437 3.11541878 -162.54673767 3.11759949 C-153.12063635 3.13444048 -143.69495731 3.17772499 -134.26908016 3.24537182 C-129.42582736 3.27932189 -124.58287925 3.30470108 -119.73950195 3.30883789 C-92.82106813 3.33993175 -68.05496329 3.64908471 -43.54296875 16.11328125 C-42.51816406 16.61988281 -41.49335938 17.12648437 -40.4375 17.6484375 C-34.25041694 20.84865288 -28.90191449 24.68448782 -23.54296875 29.11328125 C-22.55296875 29.85578125 -21.56296875 30.59828125 -20.54296875 31.36328125 C-15.88488746 35.30276046 -12.28650388 40.33469584 -8.54296875 45.11328125 C-7.785 46.05558594 -7.02703125 46.99789062 -6.24609375 47.96875 C5.01140327 62.35117291 13.71731877 79.8959723 16.45703125 98.11328125 C16.56660156 98.81453125 16.67617188 99.51578125 16.7890625 100.23828125 C20.47001378 129.29325667 13.29482909 156.90797997 -4.36328125 180.36328125 C-22.24096584 202.91863959 -47.14990243 218.5954394 -75.90625 222.640625 C-107.28260009 226.24387985 -136.80271778 218.21743196 -161.71191406 198.62646484 C-184.93233159 179.4371118 -196.88022866 155.02495894 -201.59277344 125.53344727 C-201.88876136 122.02619616 -201.88876136 122.02619616 -203.54296875 119.11328125 C-205.00775381 119.01444789 -206.47719833 118.98248836 -207.9453125 118.98046875 C-209.28045898 118.97853516 -209.28045898 118.97853516 -210.64257812 118.9765625 C-211.57908203 118.98042969 -212.51558594 118.98429688 -213.48046875 118.98828125 C-214.41310547 118.98441406 -215.34574219 118.98054687 -216.30664062 118.9765625 C-217.19802734 118.97785156 -218.08941406 118.97914063 -219.0078125 118.98046875 C-220.23939087 118.98216064 -220.23939087 118.98216064 -221.49584961 118.98388672 C-223.60912899 118.98390285 -223.60912899 118.98390285 -225.54296875 120.11328125 C-223.55278364 148.21606761 -214.15146267 175.61669656 -195.54296875 197.11328125 C-194.71925781 198.07105469 -193.89554688 199.02882812 -193.046875 200.015625 C-171.25428283 224.83652798 -139.7310232 242.30688708 -106.54296875 245.11328125 C-91.99819737 245.76817672 -77.70868156 245.66256959 -63.54296875 242.11328125 C-62.85477051 241.94699219 -62.16657227 241.78070313 -61.45751953 241.609375 C-29.6658183 233.73617222 0.82516742 212.92436544 18.45703125 185.11328125 C18.85229004 184.49759277 19.24754883 183.8819043 19.65478516 183.24755859 C38.40199699 153.77549458 43.95970369 119.35468116 36.64453125 85.15625 C32.54244292 67.33696595 25.99044993 49.5300546 14.45703125 35.11328125 C13.44382812 33.80037109 13.44382812 33.80037109 12.41015625 32.4609375 C6.95361277 25.56286037 1.0562787 18.94543669 -5.54296875 13.11328125 C-6.20296875 13.11328125 -6.86296875 13.11328125 -7.54296875 13.11328125 C-7.54296875 12.45328125 -7.54296875 11.79328125 -7.54296875 11.11328125 C-24.9951669 -4.5209796 -47.1173899 -12.59480819 -69.54296875 -17.88671875 C-70.76113281 -18.180625 -70.76113281 -18.180625 -72.00390625 -18.48046875 C-101.30846296 -23.16919782 -131.8350459 -17.32120376 -157.98046875 -3.69921875 Z M-189.55078125 21.01171875 C-190.06253906 21.57375 -190.57429688 22.13578125 -191.1015625 22.71484375 C-191.61847656 23.30007812 -192.13539063 23.8853125 -192.66796875 24.48828125 C-193.19261719 25.06578125 -193.71726562 25.64328125 -194.2578125 26.23828125 C-199.27155956 31.06774522 -199.27155956 31.06774522 -201.54296875 37.11328125 C-189.98910482 37.95592967 -178.51796408 38.22388051 -166.93555641 38.12731552 C-164.1011345 38.10478215 -161.26678425 38.09103792 -158.43229675 38.07962036 C-150.38600074 38.04651165 -142.33982288 38.0048639 -134.29370117 37.94189453 C-129.33330788 37.90369696 -124.37303103 37.88106232 -119.41251183 37.86758804 C-117.55226056 37.85967757 -115.69202222 37.84628389 -113.83185768 37.82665634 C-103.67177687 37.72129738 -93.77031735 38.12534333 -83.69018555 39.47705078 C-82.78382512 39.59846373 -81.87746469 39.71987667 -80.9436388 39.8449688 C-73.62959998 40.91977161 -67.23912816 42.9255886 -60.54296875 46.11328125 C-59.82625 46.42007813 -59.10953125 46.726875 -58.37109375 47.04296875 C-41.25267828 54.78049254 -28.29369642 70.58040004 -21.0390625 87.65234375 C-20.09444317 90.46180199 -19.24399859 93.234209 -18.54296875 96.11328125 C-18.35476562 96.84675781 -18.1665625 97.58023438 -17.97265625 98.3359375 C-14.94189323 117.92568758 -18.56483224 138.50566349 -29.54296875 155.11328125 C-42.04105882 171.90885012 -60.57974992 183.43374424 -81.24414062 186.82470703 C-91.41868866 188.10192833 -102.69698145 188.20030697 -112.54296875 185.11328125 C-113.53039062 184.80648437 -114.5178125 184.4996875 -115.53515625 184.18359375 C-136.33704058 176.95032462 -150.27697474 163.14070739 -159.78125 143.5625 C-162.32829376 137.71118327 -163.78961477 131.57796258 -165.23730469 125.38134766 C-165.8063593 121.96242577 -165.8063593 121.96242577 -167.54296875 119.11328125 C-168.93471234 119.01465522 -170.33133018 118.98249145 -171.7265625 118.98046875 C-172.57154297 118.97917969 -173.41652344 118.97789062 -174.28710938 118.9765625 C-175.17591797 118.98042969 -176.06472656 118.98429687 -176.98046875 118.98828125 C-177.86541016 118.98441406 -178.75035156 118.98054688 -179.66210938 118.9765625 C-180.93151367 118.97849609 -180.93151367 118.97849609 -182.2265625 118.98046875 C-183.00572021 118.98159668 -183.78487793 118.98272461 -184.58764648 118.98388672 C-186.62271363 118.99182972 -186.62271363 118.99182972 -188.54296875 120.11328125 C-189.53263279 136.60768193 -182.64581885 153.62847405 -173.54296875 167.11328125 C-173.14078125 167.73847656 -172.73859375 168.36367187 -172.32421875 169.0078125 C-157.98393442 189.77499255 -134.94650896 204.76906817 -110.2265625 209.39453125 C-82.80532433 213.91002185 -57.21048259 207.79607922 -34.359375 191.8984375 C-32.01402404 190.03857776 -29.77221929 188.10949376 -27.54296875 186.11328125 C-26.67091797 185.45199219 -26.67091797 185.45199219 -25.78125 184.77734375 C-14.41009053 176.030298 -7.16932176 163.01731317 -1.54296875 150.11328125 C-1.11113281 149.12328125 -0.67929688 148.13328125 -0.234375 147.11328125 C6.22885557 130.82499323 5.82261569 112.07897593 2.45703125 95.11328125 C2.14185547 93.50839844 2.14185547 93.50839844 1.8203125 91.87109375 C-1.95149474 76.23189299 -10.45795506 60.73466657 -21.54296875 49.11328125 C-22.00896484 48.59862305 -22.47496094 48.08396484 -22.95507812 47.55371094 C-40.86704512 27.7763968 -64.99111865 17.8167758 -91.46987152 16.21111298 C-98.93300862 15.85891937 -106.41724004 15.94824273 -113.88671875 15.9453125 C-115.82914249 15.94209268 -117.771566 15.93872808 -119.71398926 15.93522644 C-123.75822513 15.92927794 -127.80243975 15.92738249 -131.84667969 15.92797852 C-137.02602367 15.92808079 -142.20523256 15.91434269 -147.38454437 15.89720631 C-151.38395822 15.88609715 -155.38333903 15.88405885 -159.38276672 15.88458824 C-161.29332451 15.88340981 -163.20388319 15.87899569 -165.11442566 15.87125587 C-167.77755363 15.86146254 -170.44038289 15.86432963 -173.10351562 15.87036133 C-173.88798065 15.86474182 -174.67244568 15.85912231 -175.48068237 15.85333252 C-181.30152544 15.88684576 -185.58388886 16.6004897 -189.55078125 21.01171875 Z M-212.18128967 53.49229431 C-213.50186943 56.03417246 -214.75305301 58.50583885 -215.79296875 61.17578125 C-216.128125 62.01238281 -216.46328125 62.84898438 -216.80859375 63.7109375 C-217.73786012 66.33214428 -217.73786012 66.33214428 -217.54296875 70.11328125 C-214.45178749 71.143675 -212.37092356 71.22829508 -209.13330078 71.2109375 C-207.45718468 71.2060733 -207.45718468 71.2060733 -205.74720764 71.20111084 C-204.52738693 71.19275208 -203.30756622 71.18439331 -202.05078125 71.17578125 C-200.09949457 71.16914446 -198.14820781 71.16251941 -196.19691944 71.15639877 C-194.1172835 71.14927302 -192.03766449 71.14003379 -189.95803833 71.13049316 C-182.76893517 71.09936657 -175.5797853 71.09808599 -168.390625 71.09765625 C-167.67115377 71.09759331 -166.95168255 71.09753036 -166.21040916 71.09746552 C-153.77572322 71.09820695 -141.34171156 71.11758111 -128.90838623 71.32080078 C-127.06851005 71.34868558 -125.2285213 71.37005807 -123.38848877 71.38427734 C-102.65448277 71.55736122 -83.21909534 75.63988768 -67.81640625 90.58203125 C-53.72076012 106.27615272 -47.53257611 124.70667511 -46.75390625 145.5234375 C-46.70158081 149.07083685 -46.70158081 149.07083685 -45.54296875 152.11328125 C-42.17563313 151.07370113 -41.40992812 149.89929268 -39.5078125 146.83984375 C-38.81500804 145.48120328 -38.14007022 144.11334774 -37.48046875 142.73828125 C-36.95549805 141.65244751 -36.95549805 141.65244751 -36.41992188 140.54467773 C-30.0167405 126.90777051 -27.81451101 111.30364707 -32.5703125 96.7265625 C-33.05177734 95.43298828 -33.05177734 95.43298828 -33.54296875 94.11328125 C-33.89488281 93.11683594 -34.24679688 92.12039062 -34.609375 91.09375 C-37.26234554 84.13298571 -40.59622014 78.66355474 -45.54296875 73.11328125 C-46.04183594 72.52160156 -46.54070312 71.92992188 -47.0546875 71.3203125 C-58.06405532 59.20168847 -74.3114563 51.9822515 -90.47646904 50.92062569 C-93.62822398 50.83483164 -96.77457202 50.80879868 -99.92749023 50.80688477 C-101.11260696 50.79856125 -102.29772369 50.79023773 -103.51875305 50.78166199 C-107.40055704 50.75774118 -111.28219286 50.74881629 -115.1640625 50.7421875 C-116.50839897 50.73802205 -117.85273458 50.73356898 -119.19706917 50.72883415 C-126.22375693 50.70444455 -133.25037169 50.69130599 -140.27709961 50.68774414 C-146.81726467 50.68409412 -153.35696479 50.65406829 -159.89698738 50.61233956 C-165.52866385 50.57767083 -171.16018544 50.56219648 -176.79196793 50.56149811 C-180.14896272 50.56070555 -183.50547985 50.55197409 -186.86236382 50.52350044 C-190.59673211 50.49674783 -194.32979493 50.5013622 -198.06420898 50.51391602 C-199.17333649 50.49908173 -200.28246399 50.48424744 -201.42520142 50.46896362 C-207.36469961 50.39055887 -207.36469961 50.39055887 -212.18128967 53.49229431 Z M-223.54296875 87.11328125 C-224.14449526 89.01059274 -224.14449526 89.01059274 -224.30859375 91.08984375 C-224.39367187 91.84265625 -224.47875 92.59546875 -224.56640625 93.37109375 C-224.64117187 94.15226562 -224.7159375 94.9334375 -224.79296875 95.73828125 C-224.88320312 96.5271875 -224.9734375 97.31609375 -225.06640625 98.12890625 C-225.27838316 100.11875404 -225.41683438 102.11615367 -225.54296875 104.11328125 C-223.51294101 106.14330899 -219.30194489 105.27779544 -216.51342773 105.28686523 C-215.67091461 105.29355225 -214.82840149 105.30023926 -213.96035767 105.30712891 C-212.12153532 105.32122194 -210.28269504 105.33310228 -208.44384575 105.34307671 C-205.51987778 105.35948264 -202.5960386 105.38272998 -199.6721344 105.40797424 C-191.3548122 105.47869293 -183.03743194 105.53835186 -174.7199707 105.59008789 C-169.63531762 105.62219865 -164.55080357 105.66357177 -159.46626472 105.71028328 C-157.53970963 105.72613938 -155.61312243 105.73853493 -153.68652153 105.74719048 C-131.02409283 105.85031354 -110.7791507 106.93516749 -93.29296875 123.20703125 C-83.24357377 133.71321691 -79.10681724 146.25963573 -79.40625 160.609375 C-79.63474843 164.79416055 -80.04719982 168.95236343 -80.54296875 173.11328125 C-74.09668343 172.69785397 -69.0288931 171.85222181 -63.79296875 167.73828125 C-57.09994075 159.03734484 -58.77973604 143.79331799 -59.96875 133.38671875 C-62.90151591 117.44542677 -70.8643654 104.45650021 -83.68359375 94.73046875 C-102.35828203 82.50621628 -123.15269332 83.9484357 -144.55859375 83.91015625 C-145.63331688 83.90732887 -146.70804001 83.9045015 -147.81533051 83.90158844 C-153.47926571 83.88672042 -159.14317616 83.87740726 -164.80712891 83.87304688 C-170.65477426 83.86751428 -176.50219238 83.84335191 -182.34976578 83.81507492 C-186.85864961 83.79650479 -191.36747733 83.79124642 -195.87639618 83.789711 C-198.03423077 83.78668194 -200.19206431 83.77864491 -202.34986115 83.76552582 C-205.35093626 83.74854936 -208.35143599 83.75032244 -211.35253906 83.75683594 C-212.68959648 83.74301376 -212.68959648 83.74301376 -214.05366516 83.72891235 C-214.86911301 83.73448151 -215.68456085 83.74005066 -216.52471924 83.74578857 C-217.23253162 83.74432201 -217.94034401 83.74285545 -218.66960526 83.74134445 C-221.11262288 84.22638014 -222.0023023 85.19754391 -223.54296875 87.11328125 Z M-152.54296875 120.11328125 C-151.81346967 134.46009654 -145.01500957 148.68524547 -134.4765625 158.49609375 C-127.41033226 164.40603177 -120.06402683 168.64525125 -111.54296875 172.11328125 C-110.53234375 172.54640625 -109.52171875 172.97953125 -108.48046875 173.42578125 C-104.17102612 174.43437421 -99.9475884 174.26996732 -95.54296875 174.11328125 C-91.45303171 166.11123052 -90.52760951 157.4881055 -92.6328125 148.71875 C-96.62419489 137.29277552 -103.92928731 128.73508406 -114.66796875 123.23828125 C-125.22221536 118.86643851 -141.52347628 116.44011709 -152.54296875 120.11328125 Z " fill="#FAE765" transform="translate(249.54296875,44.88671875)"/>
<path d="M0 0 C0.99 0 1.98 0 3 0 C-1.48626664 16.59918657 -14.32328748 30.89145639 -26 43 C-27.09054687 44.18529297 -27.09054687 44.18529297 -28.203125 45.39453125 C-42.3662344 60.37070804 -64.69661628 74.55874852 -85 78 C-85 77.34 -85 76.68 -85 76 C-83.515 75.5978125 -83.515 75.5978125 -82 75.1875 C-79.16649784 74.38534766 -76.43476536 73.43473124 -73.6875 72.375 C-70 71 -70 71 -68 71 C-68 70.34 -68 69.68 -68 69 C-67.18015625 68.68546875 -66.3603125 68.3709375 -65.515625 68.046875 C-64.43796875 67.61890625 -63.3603125 67.1909375 -62.25 66.75 C-61.18265625 66.33234375 -60.1153125 65.9146875 -59.015625 65.484375 C-55.97391511 63.98716029 -54.31452098 62.42332325 -52 60 C-50.845 59.54625 -49.69 59.0925 -48.5 58.625 C-44.35529322 56.70067185 -43.37754905 54.80407847 -41 51 C-38.3125 49.25 -38.3125 49.25 -36 48 C-35.505 47.01 -35.505 47.01 -35 46 C-33.02111039 45.27306096 -31.02045442 44.60183749 -29 44 C-29 43.34 -29 42.68 -29 42 C-28.34 42 -27.68 42 -27 42 C-27.33 41.01 -27.66 40.02 -28 39 C-24.82537338 35.73466976 -21.56134629 32.83081372 -18 30 C-13.26411093 25.70810053 -9.83723083 20.68545867 -7 15 C-6.17781584 13.72192527 -5.34416056 12.45116718 -4.5 11.1875 C-2.16534735 7.51679244 -0.96877841 4.22739669 0 0 Z " fill="#EFDC6D" transform="translate(286,218)"/>
<path d="M0 0 C-2.20512886 0.63621365 -4.41436685 1.25818383 -6.625 1.875 C-8.46964844 2.39707031 -8.46964844 2.39707031 -10.3515625 2.9296875 C-21.07912627 5.58080115 -31.78628843 6.30960851 -42.80639648 6.20581055 C-44.82874022 6.18735177 -46.85062681 6.18530336 -48.87304688 6.18554688 C-55.66145646 6.15540593 -62.27327385 5.92501735 -69 5 C-69 4.34 -69 3.68 -69 3 C-68.05382812 3.00523682 -67.10765625 3.01047363 -66.1328125 3.01586914 C-62.53939809 3.03430679 -58.9459876 3.0455698 -55.35253906 3.05493164 C-53.81281831 3.05988508 -52.27310206 3.06664968 -50.73339844 3.07543945 C-32.22655259 4.26388596 -32.22655259 4.26388596 -15 0 C-12.96484375 -0.16015625 -12.96484375 -0.16015625 -10.9375 -0.0625 C-6.76410219 0.00374441 -4.00505397 -1.24294778 0 0 Z " fill="#F1DF6C" transform="translate(201,297)"/>
<path d="M0 0 C0 0.33 0 0.66 0 1 C-32.67 1 -65.34 1 -99 1 C-99 1.66 -99 2.32 -99 3 C-105.75 3.125 -105.75 3.125 -108 2 C-108 1.34 -108 0.68 -108 0 C-98.49596191 -0.15647299 -88.99183563 -0.30454836 -79.48751736 -0.4429636 C-75.0704646 -0.50753224 -70.65348465 -0.57460247 -66.23657227 -0.64819336 C-44.12035255 -1.01457319 -22.10054196 -0.99011089 0 0 Z " fill="#FDEC6E" transform="translate(152,93)"/>
<path d="M0 0 C0.185625 0.8353125 0.185625 0.8353125 0.375 1.6875 C0.93949998 4.01758272 0.93949998 4.01758272 1.97265625 6.1640625 C3.22693238 9.62643692 3.65691718 13.05136185 4.0625 16.6875 C4.481772 21.48829064 4.481772 21.48829064 6 26 C5.94648554 28.48702416 5.83059423 30.93457863 5.66015625 33.4140625 C5.61434921 34.14370209 5.56854218 34.87334167 5.52134705 35.62509155 C5.37362911 37.95876332 5.21815556 40.29184553 5.0625 42.625 C4.96107791 44.20569649 4.86016007 45.78642541 4.75976562 47.3671875 C4.5123632 51.24519253 4.25800336 55.1226864 4 59 C3.34 59 2.68 59 2 59 C2.02094727 58.14583496 2.04189453 57.29166992 2.06347656 56.41162109 C2.42154448 39.52577278 2.34379654 23.50698446 -1.6328125 6.96582031 C-2 5 -2 5 -2 1 C-1.34 0.67 -0.68 0.34 0 0 Z " fill="#EBD76B" transform="translate(286,120)"/>
<path d="M0 0 C2.64 0.33 5.28 0.66 8 1 C8 1.66 8 2.32 8 3 C13.60748991 4.69282714 18.43578928 5.17005403 24.2890625 4.97265625 C27 5 27 5 29.9765625 5.5546875 C33.23258793 6.03425714 35.5410189 5.72597853 38.75 5.0625 C44.24171157 4.03966872 49.42799976 3.77810619 55 4 C43.65245899 10.04186748 26.57194451 9.73689988 14.28515625 6.703125 C4.92170819 3.82206406 4.92170819 3.82206406 1 2 C0.67 1.34 0.34 0.68 0 0 Z " fill="#EEDA6A" transform="translate(125,225)"/>
<path d="M0 0 C0 3.80390929 -1.18545488 4.92420019 -3.4375 7.9375 C-5.74645504 11.03010039 -7.12722333 13.27511386 -8 17 C-9.2684375 18.4540625 -9.2684375 18.4540625 -10.5625 19.9375 C-13.29511654 23.37078744 -13.10249066 23.90037371 -13 28 C-14.2739589 30.03833424 -15.61061923 32.03852126 -17 34 C-17.71573527 35.64619113 -18.4025696 37.30728055 -19 39 C-19.99 39 -20.98 39 -22 39 C-18.19664725 25.45055583 -10.06532764 10.06532764 0 0 Z " fill="#F3E06D" transform="translate(43,66)"/>
<path d="M0 0 C2.2490281 5.79718424 -1.66944768 11.70055286 -4 17 C-7.91857039 25.31143461 -12.95294477 33.0700747 -19 40 C-19.66 40 -20.32 40 -21 40 C-21.103125 40.598125 -21.20625 41.19625 -21.3125 41.8125 C-22.68647271 46.18423135 -26.16350108 47.83582112 -30 50 C-30.99 50.495 -30.99 50.495 -32 51 C-30.63698986 47.90877125 -29.81409143 46.84969094 -27.0625 44.625 C-13.45050787 33.28167322 -5.33418089 16.56403541 0 0 Z " fill="#E9D667" transform="translate(251,184)"/>
<path d="M0 0 C5.78890259 8.68335388 4.00138808 24.23234288 2.17578125 34.08984375 C-0.24010971 45.24010971 -0.24010971 45.24010971 -3 48 C-2.67728189 41.3008172 -2.08137443 34.99824783 -0.375 28.5 C1.83769884 19.07197886 0.78246227 9.57317239 0 0 Z " fill="#ECD86B" transform="translate(230,138)"/>
<path d="M0 0 C0.82514784 2.83384108 1.07936233 5.16935251 0.87890625 8.109375 C0.83056641 8.86347656 0.78222656 9.61757812 0.73242188 10.39453125 C0.64831055 11.56048828 0.64831055 11.56048828 0.5625 12.75 C0.51029297 13.54277344 0.45808594 14.33554688 0.40429688 15.15234375 C0.27510676 17.10193997 0.13830035 19.05102886 0 21 C-0.66 21 -1.32 21 -2 21 C-1.88931477 25.33382182 -1.75887732 29.6668375 -1.625 34 C-1.5940625 35.22074219 -1.563125 36.44148438 -1.53125 37.69921875 C-1.32280488 44.12627669 -0.78815601 49.82797763 1 56 C1.125 59.5 1.125 59.5 1 62 C0.34 62 -0.32 62 -1 62 C-2.79124687 52.3824295 -3.35881821 43.01966774 -3.3125 33.25 C-3.31233887 32.55221436 -3.31217773 31.85442871 -3.31201172 31.13549805 C-3.29496119 20.51180001 -2.61676933 10.34246925 0 0 Z " fill="#E6D268" transform="translate(14,125)"/>
<path d="M0 0 C2.80350162 1.06249029 5.45857351 2.23185659 8.13671875 3.5859375 C20.61068607 9.87095074 33.15463574 12.60727105 47 14 C47 14.33 47 14.66 47 15 C38.4488728 15.27733386 30.41518047 14.52016163 22 13 C22 12.34 22 11.68 22 11 C21.175 10.9175 20.35 10.835 19.5 10.75 C15.86196808 9.97042173 13.21099395 8.70975539 9.9609375 6.97265625 C7.82421719 5.8429495 7.82421719 5.8429495 4.625 5 C2 4 2 4 0.625 1.875 C0.41875 1.25625 0.2125 0.6375 0 0 Z " fill="#EDD76C" transform="translate(106,241)"/>
<path d="M0 0 C3.65637821 7.31275642 3.12721176 15.44859975 3.25 23.5 C3.27143066 24.30195801 3.29286133 25.10391602 3.31494141 25.93017578 C3.328125 28.21875 3.328125 28.21875 3 32 C2.01 32.66 1.02 33.32 0 34 C0 22.78 0 11.56 0 0 Z " fill="#F0DD6E" transform="translate(265,139)"/>
<path d="M0 0 C0.66 0 1.32 0 2 0 C3.35816875 1.98321845 4.68679235 3.98672817 6 6 C7.60894814 7.88626278 9.25576358 9.74083482 10.9375 11.5625 C11.77152344 12.47128906 12.60554688 13.38007813 13.46484375 14.31640625 C20.30028911 22.3708986 20.30028911 22.3708986 29.125 27.5 C32.11662586 28.2977669 33.25580176 30.57058102 35 33 C31.0108895 33 29.07044888 31.11275667 26.0625 28.75 C25.20567627 28.08206421 25.20567627 28.08206421 24.33154297 27.40063477 C15.31261008 20.21604006 6.21948005 11.76721162 0 2 C0 1.34 0 0.68 0 0 Z " fill="#E7D26C" transform="translate(40,244)"/>
<path d="M0 0 C3.22446156 6.23395903 3.18323873 11.40498896 3.1875 18.3125 C3.19974609 19.34568359 3.21199219 20.37886719 3.22460938 21.44335938 C3.23826422 28.53932961 2.20235671 33.65830855 -1 40 C-0.9285376 39.22760986 -0.8570752 38.45521973 -0.78344727 37.65942383 C-0.06904099 29.31553293 0.12199971 21.05865133 0.0625 12.6875 C0.05798828 11.45837891 0.05347656 10.22925781 0.04882812 8.96289062 C0.03720289 5.97520644 0.02086559 2.98763145 0 0 Z " fill="#E7D267" transform="translate(253,144)"/>
<path d="M0 0 C0.99 0.495 0.99 0.495 2 1 C2 2.32 2 3.64 2 5 C2.66 5 3.32 5 4 5 C7.25968109 14.41002278 7.25968109 14.41002278 8 19 C8.66 19 9.32 19 10 19 C10.37125 19.94875 10.7425 20.8975 11.125 21.875 C12.92690104 26.13166478 15.33525379 29.95844458 17.79296875 33.86328125 C19 36 19 36 19 38 C20.485 38.495 20.485 38.495 22 39 C21.67 39.99 21.34 40.98 21 42 C13.43756175 32.90463508 8.01058413 22.60641051 3.4375 11.75 C3.09106445 10.92806152 2.74462891 10.10612305 2.38769531 9.25927734 C0 3.40979041 0 3.40979041 0 0 Z " fill="#EAD56E" transform="translate(18,202)"/>
<path d="M0 0 C4.46855624 3.42696471 7.60810997 6.86365419 10.5625 11.6875 C10.945271 12.29674316 11.32804199 12.90598633 11.72241211 13.53369141 C14.81464132 18.52605977 17.55166162 23.66040775 20 29 C19.34 29 18.68 29 18 29 C17.67 27.68 17.34 26.36 17 25 C16.01 25 15.02 25 14 25 C12.05948235 21.18587911 10.190818 17.508848 8.6875 13.5 C6.78431212 9.55264737 4.42179258 6.85650605 1.42578125 3.69921875 C0 2 0 2 0 0 Z " fill="#F1DF6F" transform="translate(238,87)"/>
<path d="M0 0 C1.80307617 0.07250977 1.80307617 0.07250977 3.64257812 0.14648438 C5.51139648 0.2305957 5.51139648 0.2305957 7.41796875 0.31640625 C8.68318359 0.36861328 9.94839844 0.42082031 11.25195312 0.47460938 C14.37005681 0.60404009 17.48782053 0.73899754 20.60546875 0.87890625 C17.26555496 2.87027744 14.6068301 3.17478294 10.74609375 3.29296875 C9.63105469 3.33164062 8.51601562 3.3703125 7.3671875 3.41015625 C6.20832031 3.44109375 5.04945313 3.47203125 3.85546875 3.50390625 C2.09396484 3.56191406 2.09396484 3.56191406 0.296875 3.62109375 C-2.60010393 3.71530445 -5.49707751 3.80092227 -8.39453125 3.87890625 C-8.39453125 3.21890625 -8.39453125 2.55890625 -8.39453125 1.87890625 C-9.38453125 1.54890625 -10.37453125 1.21890625 -11.39453125 0.87890625 C-7.4893286 -0.06482458 -4.00764561 -0.17094223 0 0 Z " fill="#EDDB6A" transform="translate(148.39453125,289.12109375)"/>
<path d="M0 0 C7.42604392 3.03558839 13.51717056 11.28414012 16.9375 18.3125 C19.52433325 24.6419856 20.79539635 31.29143497 22 38 C21.34 38 20.68 38 20 38 C19.78085938 37.04480469 19.56171875 36.08960938 19.3359375 35.10546875 C16.21913424 22.13282814 11.22506731 12.74763647 1.9765625 3.1171875 C0 1 0 1 0 0 Z " fill="#E6D066" transform="translate(169,142)"/>
<path d="M0 0 C-0.53367187 0.22139648 -1.06734375 0.44279297 -1.6171875 0.67089844 C-4.07936134 1.69431931 -6.53967926 2.72213267 -9 3.75 C-9.83917969 4.09804688 -10.67835937 4.44609375 -11.54296875 4.8046875 C-15.60141927 6.50357376 -19.58381994 8.25796307 -23.5 10.265625 C-27 12 -27 12 -29 12 C-29 11.34 -29 10.68 -29 10 C-28.34 10 -27.68 10 -27 10 C-27 9.34 -27 8.68 -27 8 C-24.99537481 6.92609365 -23.22986192 6.05028229 -21 5.5625 C-18.8744181 5.1115392 -18.8744181 5.1115392 -17.125 3.4375 C-14.3218205 1.54123152 -12.31136456 1.77422514 -9 2 C-9 1.34 -9 0.68 -9 0 C-3.375 -1.125 -3.375 -1.125 0 0 Z " fill="#EFDC6D" transform="translate(115,32)"/>
<path d="M0 0 C0.66 0.66 1.32 1.32 2 2 C-1.603092 8.93564468 -5.49835322 14.98287021 -10.75 20.75 C-11.22155518 21.2749707 -11.69311035 21.79994141 -12.17895508 22.34082031 C-13.38644502 23.62610855 -14.68794106 24.82165407 -16 26 C-16.99 26 -17.98 26 -19 26 C-18.43410156 25.45730469 -17.86820313 24.91460937 -17.28515625 24.35546875 C-16.55167969 23.64003906 -15.81820312 22.92460937 -15.0625 22.1875 C-13.96615234 21.12595703 -13.96615234 21.12595703 -12.84765625 20.04296875 C-10.79165354 18.04463837 -10.79165354 18.04463837 -10 15 C-9.38125 14.62875 -8.7625 14.2575 -8.125 13.875 C-5.22516631 11.31632321 -4.76595603 8.63578153 -3.80859375 4.9609375 C-3.54175781 4.31382812 -3.27492187 3.66671875 -3 3 C-2.01 2.67 -1.02 2.34 0 2 C0 1.34 0 0.68 0 0 Z " fill="#E9D565" transform="translate(225,187)"/>
<path d="M0 0 C2.475 0.99 2.475 0.99 5 2 C5 2.99 5 3.98 5 5 C5.66 5 6.32 5 7 5 C7.0580476 8.27075883 7.09361165 11.54138524 7.125 14.8125 C7.14175781 15.74126953 7.15851563 16.67003906 7.17578125 17.62695312 C7.18222656 18.51962891 7.18867188 19.41230469 7.1953125 20.33203125 C7.20578613 21.15421143 7.21625977 21.9763916 7.22705078 22.82348633 C7 25 7 25 5 28 C5.02320313 27.32195312 5.04640625 26.64390625 5.0703125 25.9453125 C5.25216117 16.56711681 4.0589566 8.48690925 0 0 Z " fill="#EDD86D" transform="translate(152,184)"/>
<path d="M0 0 C0 0.66 0 1.32 0 2 C-3.9821252 3.32737507 -5.99445661 2.1585264 -10 1 C-12.63966722 0.72433032 -15.28721063 0.51572333 -17.9375 0.375 C-18.62134766 0.33632812 -19.30519531 0.29765625 -20.00976562 0.2578125 C-21.67279513 0.16477588 -23.33635847 0.08136213 -25 0 C-25 -0.66 -25 -1.32 -25 -2 C-16.02686281 -3.34192863 -8.70355679 -2.48472508 0 0 Z " fill="#F1DD6C" transform="translate(153,130)"/>
<path d="M0 0 C13.38095238 3.57142857 13.38095238 3.57142857 17 5 C17.33 5.66 17.66 6.32 18 7 C19.64363134 7.72159424 21.31050386 8.39351421 23 9 C23 9.99 23 10.98 23 12 C17.6462535 10.44347945 12.99849053 8.0182491 8.125 5.375 C7.34125 4.95476563 6.5575 4.53453125 5.75 4.1015625 C3.83107943 3.0718978 1.91522397 2.03652433 0 1 C0 0.67 0 0.34 0 0 Z " fill="#EDDA6A" transform="translate(206,34)"/>
<path d="M0 0 C7.61026791 2.34061504 15.18158389 4.79745422 22 9 C22.33 9.66 22.66 10.32 23 11 C21.35 11 19.7 11 18 11 C17.67 10.01 17.34 9.02 17 8 C15.948125 8.12375 15.948125 8.12375 14.875 8.25 C11.07280317 7.91937419 9.13742599 6.11296036 6 4 C2.76961158 3.20929452 2.76961158 3.20929452 0 3 C0 2.01 0 1.02 0 0 Z " fill="#F0E071" transform="translate(175,85)"/>
<path d="M0 0 C4.14918639 6.22377959 5.51574723 11.63601816 6 19 C6.66 19 7.32 19 8 19 C8.33 21.31 8.66 23.62 9 26 C6.55496122 23.82236734 5.42718148 22.04149798 4.39453125 18.9453125 C4.13349609 18.16542969 3.87246094 17.38554687 3.60351562 16.58203125 C3.34248047 15.77121094 3.08144531 14.96039063 2.8125 14.125 C2.40354492 12.92037109 2.40354492 12.92037109 1.98632812 11.69140625 C0.67502457 7.70162552 -0.38776666 4.25681624 0 0 Z " fill="#ECD768" transform="translate(50,181)"/>
<path d="M0 0 C3.43734063 -0.08703823 6.87439837 -0.14040272 10.3125 -0.1875 C11.28896484 -0.21263672 12.26542969 -0.23777344 13.27148438 -0.26367188 C14.20927734 -0.27333984 15.14707031 -0.28300781 16.11328125 -0.29296875 C16.97735596 -0.3086792 17.84143066 -0.32438965 18.73168945 -0.34057617 C21 0 21 0 22.78710938 1.30859375 C24.78480255 4.09442674 24.27958308 6.84181468 24.1875 10.1875 C24.16042969 11.45980469 24.13335937 12.73210937 24.10546875 14.04296875 C24.07066406 15.01878906 24.03585938 15.99460938 24 17 C23.67 17 23.34 17 23 17 C21.515 9.575 21.515 9.575 20 2 C13.4 1.67 6.8 1.34 0 1 C0 0.67 0 0.34 0 0 Z " fill="#E9D765" transform="translate(26,163)"/>
<path d="M0 0 C0.33 0 0.66 0 1 0 C0.67 4.29 0.34 8.58 0 13 C-0.66 13 -1.32 13 -2 13 C-1.9175 13.886875 -1.835 14.77375 -1.75 15.6875 C-2.05391197 19.71433365 -3.18236593 21.18236593 -6 24 C-6.66 24 -7.32 24 -8 24 C-6.25398755 18.61578485 -4.20866704 13.38029174 -2.12109375 8.12109375 C-1.14264559 5.39712133 -0.47208118 2.84839996 0 0 Z " fill="#EED969" transform="translate(218,168)"/>
<path d="M0 0 C1.33333333 0.66666667 2.66666667 1.33333333 4 2 C4.66 2.2475 5.32 2.495 6 2.75 C8.89976281 4.56235175 10.15466279 7.14811522 12 10 C12.86625 10.845625 13.7325 11.69125 14.625 12.5625 C17.00402413 15.00413003 17.98931274 16.7841769 19 20 C18.32582031 19.32453125 17.65164063 18.6490625 16.95703125 17.953125 C14.7945895 15.78992048 12.62334944 13.63582821 10.44921875 11.484375 C9.19527432 10.23962179 7.9413687 8.99482949 6.6875 7.75 C6.04232422 7.11320312 5.39714844 6.47640625 4.73242188 5.8203125 C4.12333984 5.21445312 3.51425781 4.60859375 2.88671875 3.984375 C2.33201904 3.43491211 1.77731934 2.88544922 1.20581055 2.31933594 C0 1 0 1 0 0 Z " fill="#E9D165" transform="translate(243,57)"/>
<path d="M0 0 C4.0663003 -0.18483183 6.45811739 0.06806403 10 2 C12.32873375 2.68255989 14.66182791 3.35050775 17 4 C19 5 19 5 20.125 8.0625 C20.41375 9.031875 20.7025 10.00125 21 11 C20.07058594 10.44570312 19.14117187 9.89140625 18.18359375 9.3203125 C16.93513501 8.58813369 15.68642348 7.85638579 14.4375 7.125 C13.82841797 6.76019531 13.21933594 6.39539063 12.59179688 6.01953125 C8.46535788 3.61790009 4.64052723 2.13474926 0 1 C0 0.67 0 0.34 0 0 Z " fill="#EEDC6D" transform="translate(125,165)"/>
<path d="M0 0 C0.66 0 1.32 0 2 0 C2.81498562 1.6029053 3.62689927 3.20737278 4.4375 4.8125 C4.88996094 5.70582031 5.34242188 6.59914062 5.80859375 7.51953125 C7 10 7 10 8 13 C8.66 13.33 9.32 13.66 10 14 C10 16.64 10 19.28 10 22 C9.34 22 8.68 22 8 22 C7.59007812 20.83082031 7.18015625 19.66164062 6.7578125 18.45703125 C6.21359785 16.90883441 5.6693239 15.36065843 5.125 13.8125 C4.85558594 13.04357422 4.58617187 12.27464844 4.30859375 11.48242188 C2.94942181 7.62038452 1.56285788 3.78575768 0 0 Z " fill="#E7CD68" transform="translate(210,126)"/>
<path d="M0 0 C0 0.99 0 1.98 0 3 C-5.28 5.31 -10.56 7.62 -16 10 C-16.33 9.01 -16.66 8.02 -17 7 C-12.34132394 4.91846389 -7.68728806 3.18277217 -2.8203125 1.6484375 C-1.00569531 1.14863649 -1.00569531 1.14863649 0 0 Z " fill="#F3E273" transform="translate(211,253)"/>
<path d="M0 0 C3.67230705 3.07999946 4.56802365 5.2482602 5 10 C5.66 10 6.32 10 7 10 C10.44419134 19.41002278 10.44419134 19.41002278 10 24 C7.35871507 20.0380726 5.70812262 15.81950513 3.875 11.4375 C3.50246094 10.56158203 3.12992187 9.68566406 2.74609375 8.78320312 C2.39417969 7.94595703 2.04226563 7.10871094 1.6796875 6.24609375 C1.35726074 5.47966553 1.03483398 4.7132373 0.70263672 3.92358398 C0 2 0 2 0 0 Z " fill="#EBD76E" transform="translate(274,96)"/>
<path d="M0 0 C8.17824952 2.39707314 15.46651278 6.08858772 23 10 C19.28272326 11.13583456 17.52948291 10.66670026 14 9 C14 8.34 14 7.68 14 7 C13.05125 6.855625 12.1025 6.71125 11.125 6.5625 C8 6 8 6 6 5 C6 4.34 6 3.68 6 3 C4.02 2.34 2.04 1.68 0 1 C0 0.67 0 0.34 0 0 Z " fill="#F0DF71" transform="translate(193,55)"/>
<path d="M0 0 C0.33 0 0.66 0 1 0 C0.67 4.62 0.34 9.24 0 14 C-0.99 14.33 -1.98 14.66 -3 15 C-3.12375 15.969375 -3.2475 16.93875 -3.375 17.9375 C-3.58125 18.948125 -3.7875 19.95875 -4 21 C-4.66 21.33 -5.32 21.66 -6 22 C-5.17791532 17.28482466 -3.80735764 12.76520355 -2.4375 8.1875 C-2.20353516 7.39923828 -1.96957031 6.61097656 -1.72851562 5.79882812 C-1.15431596 3.86529864 -0.57742667 1.93256823 0 0 Z " fill="#ECDA76" transform="translate(286,186)"/>
<path d="M0 0 C0.99 0.33 1.98 0.66 3 1 C3 1.66 3 2.32 3 3 C3.66 3 4.32 3 5 3 C6.03513247 5.0762657 7.05266211 7.16131479 8.0625 9.25 C8.63097656 10.41015625 9.19945312 11.5703125 9.78515625 12.765625 C11.04173988 16.11112739 11.02630799 16.79621363 10 20 C8.33002304 16.85591306 6.66457635 13.70944906 5 10.5625 C4.52304688 9.66466797 4.04609375 8.76683594 3.5546875 7.84179688 C3.10351562 6.98779297 2.65234375 6.13378906 2.1875 5.25390625 C1.76855469 4.46314697 1.34960938 3.6723877 0.91796875 2.85766602 C0 1 0 1 0 0 Z " fill="#EAD46F" transform="translate(237,106)"/>
<path d="M0 0 C1.93833996 0.08715017 3.8757429 0.19532964 5.8125 0.3125 C7.43091797 0.39951172 7.43091797 0.39951172 9.08203125 0.48828125 C12.17910163 1.03140872 13.21332071 1.4610347 15 4 C15 4.66 15 5.32 15 6 C15.99 6.33 16.98 6.66 18 7 C17.01 7.495 17.01 7.495 16 8 C13.23325418 6.92664301 10.56805742 5.79739939 7.875 4.5625 C7.12089844 4.22412109 6.36679688 3.88574219 5.58984375 3.53710938 C3.72340669 2.69839399 1.8612857 1.85008607 0 1 C0 0.67 0 0.34 0 0 Z " fill="#ECD86B" transform="translate(186,66)"/>
<path d="M0 0 C-2.37265061 0.67617524 -4.74755355 1.34108226 -7.125 2 C-8.12273437 2.28617187 -8.12273437 2.28617187 -9.140625 2.578125 C-13.1986205 3.69208455 -16.79685974 4.20950232 -21 4 C-19.07363661 1.39374365 -18.00234405 1.00045078 -14.75 0.375 C-13.5125 0.25125 -12.275 0.1275 -11 0 C-9.1746875 -0.309375 -9.1746875 -0.309375 -7.3125 -0.625 C-4.30971219 -0.96493824 -2.80415992 -0.81864364 0 0 Z " fill="#F0DC6D" transform="translate(201,297)"/>
<path d="M0 0 C1.67299959 0.65061095 3.33859237 1.32033324 5 2 C5.70125 2.268125 6.4025 2.53625 7.125 2.8125 C9.64198601 4.40659114 10.53026804 6.44394442 12 9 C12.99 9.66 13.98 10.32 15 11 C16.1875 14.125 16.1875 14.125 17 17 C11.33333333 11.33333333 5.66666667 5.66666667 0 0 Z " fill="#E9D468" transform="translate(193,108)"/>
<path d="M0 0 C0.66 0.66 1.32 1.32 2 2 C-0.64 5.63 -3.28 9.26 -6 13 C-7 9 -7 9 -6.07421875 6.89453125 C-5.61660156 6.20746094 -5.15898437 5.52039063 -4.6875 4.8125 C-4.23761719 4.11769531 -3.78773438 3.42289063 -3.32421875 2.70703125 C-2 1 -2 1 0 0 Z " fill="#F4DF6F" transform="translate(252,212)"/>
<path d="M0 0 C2.33288085 3.63391055 2.10976504 6.46026077 1.75 10.6875 C1.61851563 12.42580078 1.61851563 12.42580078 1.484375 14.19921875 C1.32453125 15.12347656 1.1646875 16.04773438 1 17 C0.34 17.33 -0.32 17.66 -1 18 C-1.02690844 15.37493198 -1.04679404 12.75013827 -1.0625 10.125 C-1.07087891 9.37863281 -1.07925781 8.63226563 -1.08789062 7.86328125 C-1.11328125 2.2265625 -1.11328125 2.2265625 0 0 Z " fill="#F2E071" transform="translate(24,130)"/>
<path d="M0 0 C0.66 0.66 1.32 1.32 2 2 C1.01 2.33 0.02 2.66 -1 3 C-1.35412344 4.32796291 -1.68521554 5.66216607 -2 7 C-4.62767075 10.28458844 -8.28654688 12.14327344 -12 14 C-10.64564617 10.87353147 -9.22498698 9.10708647 -6.5625 7 C-3.96182322 4.86527781 -1.85750071 2.84088344 0 0 Z " fill="#F2DF6D" transform="translate(231,221)"/>
<path d="M0 0 C0.99 0 1.98 0 3 0 C5.1519437 3.22791555 5.20086443 4.28400809 5 8 C5.66 8 6.32 8 7 8 C7.66 9.98 8.32 11.96 9 14 C4.9918197 10.32583472 2.47408385 6.85653496 0 2 C0 1.34 0 0.68 0 0 Z " fill="#EEDA6F" transform="translate(59,208)"/>
<path d="M0 0 C0.33 0 0.66 0 1 0 C0.63223832 6.30267439 -0.16625922 11.33251843 -3 17 C-3.66 17 -4.32 17 -5 17 C-3.83348574 11.07136283 -2.24480642 5.61201606 0 0 Z " fill="#F0DE6E" transform="translate(20,106)"/>
<path d="M0 0 C0 0.66 0 1.32 0 2 C2.97 2 5.94 2 9 2 C9 2.33 9 2.66 9 3 C2.07 3 -4.86 3 -12 3 C-7.42164847 0.71082423 -5.08462738 0 0 0 Z " fill="#FAEA7F" transform="translate(98,115)"/>
<path d="M0 0 C-1.67872725 3.96790076 -4.08277074 6.86931494 -7 10 C-7.99 10 -8.98 10 -10 10 C-9.67 9.01 -9.34 8.02 -9 7 C-8.34 7 -7.68 7 -7 7 C-6.896875 6.401875 -6.79375 5.80375 -6.6875 5.1875 C-5.47470998 1.32862265 -4.05869208 0 0 0 Z " fill="#F2E06F" transform="translate(58,68)"/>
<path d="M0 0 C7.6700283 0.4302337 14.65896942 1.74231361 22 4 C22 4.33 22 4.66 22 5 C20.10353002 4.88506243 18.20781668 4.75760358 16.3125 4.625 C15.25675781 4.55539063 14.20101562 4.48578125 13.11328125 4.4140625 C10.07569373 4.01006717 7.79003333 3.22302831 5 2 C3.34080104 1.63128912 1.6752357 1.28718326 0 1 C0 0.67 0 0.34 0 0 Z " fill="#EAD667" transform="translate(167,49)"/>
<path d="M0 0 C0.66 0.33 1.32 0.66 2 1 C0.27744283 2.46613447 -1.45333784 3.92261056 -3.1875 5.375 C-4.15042969 6.18710938 -5.11335937 6.99921875 -6.10546875 7.8359375 C-8.73115596 9.79900189 -10.91175041 10.9724654 -14 12 C-14 11.01 -14 10.02 -14 9 C-13.360625 8.87625 -12.72125 8.7525 -12.0625 8.625 C-11.381875 8.41875 -10.70125 8.2125 -10 8 C-9.67 7.34 -9.34 6.68 -9 6 C-7.24317275 4.97784597 -5.48399924 3.95804552 -3.69140625 3 C-1.8257777 1.99165437 -1.8257777 1.99165437 0 0 Z " fill="#EFDE68" transform="translate(228,241)"/>
<path d="M0 0 C0.66 0 1.32 0 2 0 C0.87216063 3.38351811 0.54911128 3.52883475 -2.4375 5.0625 C-4.74149765 6.26019398 -6.13152817 7.13152817 -8 9 C-9.98356483 9.71408334 -11.98315437 10.38617742 -14 11 C-12.64084464 6.92253393 -10.70703144 6.42960469 -7 4.375 C-3.28283814 2.49255718 -3.28283814 2.49255718 0 0 Z " fill="#EDD66A" transform="translate(216,235)"/>
<path d="M0 0 C0.66 0.66 1.32 1.32 2 2 C0.02 5.63 -1.96 9.26 -4 13 C-5.10286876 8.58852494 -4.80567731 7.06277395 -3 3 C-2.01 2.67 -1.02 2.34 0 2 C0 1.34 0 0.68 0 0 Z " fill="#EFDF79" transform="translate(225,187)"/>
<path d="M0 0 C5.86001992 0.293001 9.85546646 3.03429151 14 7 C14 7.66 14 8.32 14 9 C10.82010194 7.46205865 7.78518026 5.743521 4.75 3.9375 C3.85796875 3.41027344 2.9659375 2.88304687 2.046875 2.33984375 C1.37140625 1.89769531 0.6959375 1.45554688 0 1 C0 0.67 0 0.34 0 0 Z " fill="#EBD56E" transform="translate(155,133)"/>
<path d="M0 0 C0.66 0.33 1.32 0.66 2 1 C0.6875 3.5 0.6875 3.5 -1 6 C-1.99 6 -2.98 6 -4 6 C-4 6.99 -4 7.98 -4 9 C-5.65 9.33 -7.3 9.66 -9 10 C-8.06409496 8.8944811 -7.12620142 7.79064547 -6.1875 6.6875 C-5.66542969 6.07261719 -5.14335937 5.45773438 -4.60546875 4.82421875 C-3.12827531 3.14575321 -1.59960869 1.56117966 0 0 Z " fill="#F1DF75" transform="translate(251,249)"/>
<path d="M0 0 C1.4391134 0.28359887 2.87625518 0.57721399 4.3125 0.875 C5.11300781 1.03742188 5.91351563 1.19984375 6.73828125 1.3671875 C9 2 9 2 12 4 C12 4.99 12 5.98 12 7 C7.39104317 5.68315519 3.85859765 3.84801255 0 1 C0 0.67 0 0.34 0 0 Z " fill="#EED96B" transform="translate(75,278)"/>
<path d="M0 0 C2 0 2 0 3.9375 1.6875 C6.99858246 5.11962276 8.9703802 8.90606604 11 13 C6.88981036 9.64026633 3.05359558 6.39717763 0 2 C0 1.34 0 0.68 0 0 Z " fill="#EDD96E" transform="translate(68,222)"/>
<path d="M0 0 C0.33 0.99 0.66 1.98 1 3 C-0.59915881 3.69906942 -2.20455045 4.38389468 -3.8125 5.0625 C-4.70582031 5.44535156 -5.59914062 5.82820313 -6.51953125 6.22265625 C-9 7 -9 7 -12 6 C-8.04 4.02 -4.08 2.04 0 0 Z " fill="#ECD966" transform="translate(220,273)"/>
<path d="M0 0 C2.625 0.375 2.625 0.375 5 1 C2.19195732 3.96404505 -0.18315774 6.44499019 -4 8 C-4 7.01 -4 6.02 -4 5 C-3.01 5 -2.02 5 -1 5 C-1.33 4.01 -1.66 3.02 -2 2 C-1.34 1.34 -0.68 0.68 0 0 Z " fill="#F3E275" transform="translate(202,213)"/>
<path d="M0 0 C0.33 0.66 0.66 1.32 1 2 C2.64363134 2.72159424 4.31050386 3.39351421 6 4 C6 5.65 6 7.3 6 9 C0.125 4.375 0.125 4.375 -1 1 C-0.67 0.67 -0.34 0.34 0 0 Z " fill="#EFDB6B" transform="translate(98,201)"/>
<path d="M0 0 C4.455 0.99 4.455 0.99 9 2 C9 2.66 9 3.32 9 4 C9.99 4 10.98 4 12 4 C12 4.66 12 5.32 12 6 C6 4 6 4 0 2 C0 1.34 0 0.68 0 0 Z " fill="#F3DF6E" transform="translate(112,283)"/>
<path d="M0 0 C0.33 0.99 0.66 1.98 1 3 C-2.3 5.97 -5.6 8.94 -9 12 C-9.66 11.67 -10.32 11.34 -11 11 C-7.37 7.37 -3.74 3.74 0 0 Z " fill="#ECDB6B" transform="translate(55,53)"/>
<path d="M0 0 C0.96706319 3.00864103 1.27677226 5.05360248 0 8 C-2.0625 9.25 -2.0625 9.25 -4 10 C-3.29445932 6.33118845 -1.72264494 3.29549466 0 0 Z " fill="#EEDB6F" transform="translate(189,205)"/>
<path d="M0 0 C0 3 0 3 -1.96875 5.04296875 C-2.8040625 5.75066406 -3.639375 6.45835938 -4.5 7.1875 C-5.3353125 7.90292969 -6.170625 8.61835937 -7.03125 9.35546875 C-7.6809375 9.89816406 -8.330625 10.44085938 -9 11 C-9.66 10.67 -10.32 10.34 -11 10 C-9.73232923 8.70522938 -8.46073776 7.41429661 -7.1875 6.125 C-6.47980469 5.40570313 -5.77210937 4.68640625 -5.04296875 3.9453125 C-3 2 -3 2 0 0 Z " fill="#EAD869" transform="translate(67,42)"/>
<path d="M0 0 C2.88437779 1.29299694 4.87219421 2.65941363 7 5 C6.67 5.66 6.34 6.32 6 7 C3.53199953 5.84826645 1.95216435 4.95216435 0 3 C0 2.01 0 1.02 0 0 Z " fill="#F2E46D" transform="translate(200,97)"/>
<path d="M0 0 C0 0.66 0 1.32 0 2 C0.99 2.33 1.98 2.66 3 3 C0.54561886 3.87656469 -0.59561703 4.15930238 -3.0625 3.1875 C-4.73274425 2.16380191 -6.37001504 1.08665664 -8 0 C-5.13822943 -1.43088528 -3.06624227 -0.59991697 0 0 Z " fill="#F8E674" transform="translate(176,95)"/>
<path d="M0 0 C2.64 0 5.28 0 8 0 C4.79663178 2.83374881 2.21912747 3.5205537 -2 4 C-1.34 2.68 -0.68 1.36 0 0 Z " fill="#F4E06D" transform="translate(169,289)"/>
<path d="M0 0 C-1 3 -1 3 -4 5 C-7.1875 5.125 -7.1875 5.125 -10 5 C-3.63636364 0 -3.63636364 0 0 0 Z " fill="#EDDD6B" transform="translate(199,246)"/>
<path d="M0 0 C3.16115776 1.36983503 3.9927092 1.9890638 6 5 C6 5.99 6 6.98 6 8 C4.125 7.375 4.125 7.375 2 6 C0.75 2.875 0.75 2.875 0 0 Z " fill="#F4DF6C" transform="translate(260,73)"/>
<path d="M0 0 C4.43458973 1.3937282 6.87378374 3.60582235 10 7 C6.12697862 5.85569823 2.99736561 4.76679902 0 2 C0 1.34 0 0.68 0 0 Z " fill="#F4DF6C" transform="translate(233,34)"/>
<path d="M0 0 C2.64 0.33 5.28 0.66 8 1 C8 1.66 8 2.32 8 3 C8.66 3 9.32 3 10 3 C9.67 3.66 9.34 4.32 9 5 C4.545 3.02 4.545 3.02 0 1 C0 0.67 0 0.34 0 0 Z " fill="#F0DF79" transform="translate(125,225)"/>
<path d="M0 0 C1.48199902 0.44909061 2.96055236 0.90956564 4.4375 1.375 C5.26121094 1.63023437 6.08492187 1.88546875 6.93359375 2.1484375 C9 3 9 3 10 5 C3.375 4.25 3.375 4.25 0 2 C0 1.34 0 0.68 0 0 Z " fill="#EEDB69" transform="translate(134,154)"/>
<path d="M0 0 C6.625 -0.25 6.625 -0.25 10 2 C5.545 2.495 5.545 2.495 1 3 C0.67 2.01 0.34 1.02 0 0 Z " fill="#EFD86B" transform="translate(123,152)"/>
<path d="M0 0 C0.66 0.33 1.32 0.66 2 1 C-0.97 2.65 -3.94 4.3 -7 6 C-7.66 5.34 -8.32 4.68 -9 4 C-7.54618103 3.30300448 -6.08677047 2.61766134 -4.625 1.9375 C-3.40683594 1.36322266 -3.40683594 1.36322266 -2.1640625 0.77734375 C-1.44992188 0.52082031 -0.73578125 0.26429687 0 0 Z " fill="#F1DD68" transform="translate(102,22)"/>
<path d="M0 0 C-0.99 0 -1.98 0 -3 0 C-3 0.66 -3 1.32 -3 2 C-3.99 2 -4.98 2 -6 2 C-6.66 2.66 -7.32 3.32 -8 4 C-8 3.34 -8 2.68 -8 2 C-9.32 1.67 -10.64 1.34 -12 1 C-3.96428571 -1.27678571 -3.96428571 -1.27678571 0 0 Z " fill="#F0DF6A" transform="translate(128,16)"/>
<path d="M0 0 C0.99 0 1.98 0 3 0 C2.25 2.4375 2.25 2.4375 1 5 C-1.125 5.8125 -1.125 5.8125 -3 6 C-1.125 1.125 -1.125 1.125 0 0 Z " fill="#F9E56F" transform="translate(254,246)"/>
<path d="M0 0 C3.36720387 1.39332574 4.9859524 2.9789286 7 6 C5.68 6.33 4.36 6.66 3 7 C3 5.68 3 4.36 3 3 C2.34 3 1.68 3 1 3 C0.67 2.01 0.34 1.02 0 0 Z " fill="#F3DF68" transform="translate(89,228)"/>
<path d="M0 0 C0.33 0 0.66 0 1 0 C1.33 3.63 1.66 7.26 2 11 C1.34 11 0.68 11 0 11 C-0.84098656 6.98195309 -1.05404945 3.98196457 0 0 Z " fill="#EDDB6B" transform="translate(13,176)"/>
<path d="M0 0 C0.99 0.33 1.98 0.66 3 1 C3 3.64 3 6.28 3 9 C2.34 9 1.68 9 1 9 C0.67 6.03 0.34 3.06 0 0 Z " fill="#EDD965" transform="translate(217,139)"/>
<path d="M0 0 C-0.33 1.65 -0.66 3.3 -1 5 C-1.99 5 -2.98 5 -4 5 C-4 3.68 -4 2.36 -4 1 C-2 0 -2 0 0 0 Z " fill="#F8E77B" transform="translate(240,229)"/>
<path d="M0 0 C2.0625 0.4375 2.0625 0.4375 4 1 C3.54625 1.598125 3.0925 2.19625 2.625 2.8125 C1.36704087 4.50590652 0.17015276 6.24477086 -1 8 C-1.04241723 5.66705225 -1.04092937 3.33297433 -1 1 C-0.67 0.67 -0.34 0.34 0 0 Z " fill="#EDDB69" transform="translate(36,96)"/>
</svg>
